<mxfile host="app.diagrams.net" modified="2024-05-08T18:16:58.173Z" agent="Mozilla/5.0 (X11; CrOS x86_64 14541.0.0) AppleWebKit/537.36 (KHTML, like Gecko) Chrome/124.0.0.0 Safari/537.36" etag="tOWvmGxVlU0iSi3PZsu-" version="24.3.1" type="github">
  <diagram name="Page-1" id="w_ybeFm2ZTlXrCsu02aw">
    <mxGraphModel dx="955" dy="550" grid="1" gridSize="10" guides="1" tooltips="1" connect="1" arrows="1" fold="1" page="1" pageScale="1" pageWidth="850" pageHeight="1100" math="0" shadow="0">
      <root>
        <mxCell id="0" />
        <mxCell id="1" parent="0" />
        <mxCell id="pAG5VO9cVmeyoWC2blWp-1" value="" style="shape=image;verticalLabelPosition=bottom;labelBackgroundColor=default;verticalAlign=top;aspect=fixed;imageAspect=0;image=data:image/png,iVBORw0KGgoAAAANSUhEUgAABLAAAALmCAYAAABSJm0fAAAAAXNSR0IArs4c6QAAIABJREFUeF7snQfYFNX1hw9dEEQxWFDE3rAhil2jRGNX/haMgr0r9t4batSoGGONYo/Yew92E2vsXUSMDZWioHT+z+8mdzPffLM7ZXeWHXjP8/io3965c+e9587u/Oacc1vMnDlzpmEQgAAEIAABCEAAAhCAAAQgAAEIQAACEGhQAi0QsBp0ZhgWBCAAAQhAAAIQgAAEIAABCEAAAhCAgCOAgIUjQAACEIAABCAAAQhAAAIQgAAEIAABCDQ0AQSshp4eBgcBCEAAAhCAAAQgAAEIQAACEIAABCCAgIUPQAACEIAABCAAAQhAAAIQgAAEIAABCDQ0AQSshp4eBgcBCEAAAhCAAAQgAAEIQAACEIAABCCAgIUPQAACEIAABCAAAQhAAAIQgAAEIAABCDQ0AQSshp4eBgcBCEAAAhCAAAQgAAEIQAACEIAABCCAgIUPQAACEIAABCAAAQhAAAIQgAAEIAABCDQ0AQSshp4eBgcBCEAAAhCAAAQgAAEIQAACEIAABCCAgIUPQAACEIAABCAAAQhAAAIQgAAEIAABCDQ0AQSshp4eBgcBCEAAAhCAAAQgAAEIQAACEIAABCCAgIUPQAACEIAABCAAAQhAAAIQgAAEIAABCDQ0AQSshp4eBgcBCEAAAhCAAAQgAAEIQAACEIAABCCAgIUPQAACEIAABCAAAQhAAAIQgAAEIAABCDQ0AQSshp4eBgcBCEAAAhCAAAQgAAEIQAACEIAABCCAgIUPQAACEIAABCAAAQhAAAIQgAAEIAABCDQ0AQSshp4eBgcBCEAAAhCAAAQgAAEIQAACEIAABCCAgIUPQAACEIAABCAAAQhAAAIQgAAEIAABCDQ0AQSshp4eBgcBCEAAAhCAAAQgAAEIQAACEIAABCCAgIUPQAACEIAABCAAAQhAAAIQgAAEIAABCDQ0AQSshp4eBgcBCEAAAhCAAAQgAAEIQAACEIAABCCAgIUPQAACEIAABCAAAQhAAAIQgAAEIAABCDQ0AQSshp4eBgcBCEAAAhCAAAQgAAEIQAACEIAABCCAgIUPQAACEIAABCAAAQhAAAIQgAAEIAABCDQ0AQSshp4eBgcBCEAAAhCAAAQgAAEIQAACEIAABCCAgIUPQAACEIAABCAAAQhAAAIQgAAEIAABCDQ0AQSshp4eBgcBCEAAAhCAAAQgAAEIQAACEIAABCCAgIUPQAACEIAABCAAAQhAAAIQgAAEIAABCDQ0AQSshp4eBgcBCEAAAhCAAAQgAAEIQAACEIAABCCAgIUPQAACEIAABCAAAQhAAAIQgAAEIAABCDQ0AQSshp4eBgcBCEAAAhCAAAQgAAEIQAACEIAABCCAgIUPQAACEIAABCAAAQhAAAIQgAAEIAABCDQ0AQSshp4eBgcBCEAAAhCAAAQgAAEIQAACEIAABCCAgIUPQAACEIAABCAAAQhAAAIQgAAEIAABCDQ0AQSshp4eBgcBCEAAAhCAAAQgAAEIQAACEIAABCCAgIUPQAACEIAABCAAAQhAAAIQgAAEIAABCDQ0AQSshp4eBgcBCEAAAhCAAAQgAAEIQAACEIAABCCAgIUPQAACEIAABCAAAQhAAAIQgAAEIAABCDQ0AQSshp4eBgcBCEAAAhCAAAQgAAEIQAACEIAABCCAgIUPNCNw+eWX27///W/392WXXdb23ntvKIUIPPLII/bcc8+5v7Zu3drOOeecwjIaNWqUXXHFFaXx77nnnrb88ssX9npmp4GfcsopNm3aNHdJG264oW255ZYNfXnPPPOMPfbYY6UxnnXWWda2bduGHvPsNLii+Ute7D/88EO74YYbSt0ffPDBtthii+V1urL9Mh91R84JIQABCEAAAhCYzQkUVsCaOXOmffvtt/bJJ5/Y559/bj///LNNmDDBJk+ebG3atLH27dtb165drVu3brbCCivYwgsvXPVU6pzfffedffrppzZixAj76aef7JdffrFff/3ViRg6529+8xt3LgkAiy66qLVo0SLzeadPn27vvPOOffzxx/b111/bxIkTTX+ba665bL755nM/yFdddVVbaKGFMp8j6sDLLrusiYC177771rT/2aGzhx56qImAde655xb2siRgSbT0ttdee7k1g816AieddFITAWvrrbee9YOqMIKnn37aHn300VILCbsIWPWbsqL5S15kPvjgAxs6dGip+0MPPXSWCFjMR14zTL8QgAAEIAABCMypBAonYElEevfdd+2JJ55wYlJSk8jTt29fJ/ikNZ3z7bfftqeeeirVObt06eKiJtZaay1r1apVqtPqfA888IATyeKsZ8+etsMOO1jHjh3jmib6HAErHhMCVjwjWlRPoGgPwAhY1c95NT0UzV+qudZKxyJg5UWWfiEAAQhAAAIQgMCsJVAoAUsRVjfeeKN98cUXmakpsqR///7WoUOHRH2MGzfObrrpplJEUqKDQo0knu2yyy4uGiyJKQVn+PDhzZoqmqtly5YuCitsisg65JBDbJ555klyioptELDiERZBwBo/frxdddVV7mL+7//+z5ZZZpnICyMCK36+Z1WLRhEk9NLg4YcfdhiOOOIIa9euXSQSBKxZ5Sn/OW+j+MuspWCGgDWrZ4DzQwACEIAABCAAgXwIFEbAUrrg9ddfbxKUgrbAAgvYiiuuaEsuuaR16tTJCVNTpkyxH374wUaOHGlvvfVWs2MkKB1wwAE299xzV6SqB3vV0ZBwFjSfIrjEEku4cyp1cNKkSa6dxDXV3/jyyy+bHKM0moEDB9pyyy1X8ZyvvPKK3XXXXaU2itxaf/31rXfv3rbgggu6lESdR+d48sknbezYsaW2Sy21lLuuag0BK55gEQQsRfHdcsst7mL22GMPU6RelCFgxc/3rGrRKILEvffea//4xz8chjPPPNPd86IMAWtWecp/ztso/jJrKSBgzWr+nB8CEIAABCAAAQjkRaAQApbqTF166aVNhChFGqmgca9evSrWmVK00ssvv2wqui1hy9vSSy9t++23X9ljJQwNGTLE1bjypvpWqkEjwSzOVJtLKYDBNEfV5jrooINcbawokwimWkr6t0xRDqo/1aNHj8j2qr31l7/8xUaPHl36XAKWhKxqDAErnl4RBKzgGBGw4ue0EVs0iiARvCcgYDWipyBgBWeFCKzG9VFGBgEIQAACEIAABKohUAgBS5FXijjypuLsEp/mnXfexNeuIujXXHNNE0FKaVVrr712sz4kekkY8jvxqcHiiy9uKm5dLvIgaiAqKK+URxV996a6WMccc4wr+h42RTgo0sHbdtttZ+utt17Fa1Tfui5vG2ywgW2zzTaJuUQ1RMCKx1cEAUs7CyoKUYaAFT+njdiiEQSsqVOn2mmnnVZKXUbAakRP+c+YGsFfGoEOAlYjzAJjgAAEIAABCEAAArUn0PAC1kcffWTXXXdd6cq1A99RRx2VSrzyB4f7kgB2wgknuLpSQVPE1t1331360/zzz29HHnlkpt209PAnQSgYibXZZpvZ7373u2azefPNN7tdB2USuM4444zYc6rA/Omnn16K2lp22WVd1FY1llXA+vHHH51g4neDlNinFEuld1aqzaXIOO0i6U2pnZrnpCahMJjmqXNW2vlMuzlqF0nViFKEndqqAH737t1dmmYSyyJgKf31m2++cYX5NWb5XXC3zChRM8lYgm08+xkzZrioRfmfLFwDq3PnziURNS6FUGOWAKzxy9/ESlGEiyyySMXoR40hmOIaPKeiBuUrYqH1pUjKSqa58ruNKvJQc6Z0YaXzahzhNRzVl2ejz9RedePiTPyCGykEr6HcsWKkFOLvv//e7RyqsSrVWSJ4cJzyeR8VqmjLqE0YgoLERhttZFtttVXptJ6J/i1/ki+Jh85TC1/S3GkONfe6N3k7/PDDS+tTKc0S5b1VSiEUF607pXeLqcao+4JSsYN9xM2J/1z96SWD/FOcp02b5tLCNa+655Sr05W0/7h2Op/OrXmWT+r/dU5dk+odpnnBErwm+Y76lb+Kv19vSXa1rae/1GJNRjFWBLLWuvxP86o1o7Wu+4R8RZHMcZa3gKW5VpS1fFlzrznSfCuyO/jdk0VQ1D1B92TdI71f6ftQfqWdh8WhnIW/CzWuNOug2u/iuHnhcwhAAAIQgAAEIFAtgYYXsK6++mr77LPPSte588472xprrJH5uhURJdFilVVWsZVXXrmZsKKHogsvvND9MPWm4ujl0viSDOSrr75yIpb6lukh6+STT272kKnr1MOQHmz1cLfxxhsn6d4uuuiiUhqhRJhBgwYlOq5cozQClq7pzTffdDs0auzlTD+8N998c/cDP2xjxoyx888/v/TnPn362I477pj4GoL1efRALVEySpzQQ4EK5Iuzn4vwSfQQsskmm5jGUEkUSSpg6TxvvPGGPffcc+6htJzpIWOllVZywmalB5Q4KH/729/sX//6V1wzC24rHxawFN2ogu+K7lPqbTASMdixxL5+/fo5sSDKtM4kwnrbf//93fyL3QsvvOAezmV6yFKET5S99957rtabRJRypoc7RVL+9re/rbg5w6233upq4skkRGkNxlmaB2HNtaIotRbCdfP8df7+9793u5LKrrzySvegLtM9Tfe2sAUfgLWLqo7XennwwQddoWrPMHic7i8SyddZZ524y6v4+eDBg53IW8l0n1Las7ewgKV1rTUpLs8880yzeoT+ONUG1E6qSUQfPWRrPcmHginewXGqdqBSvbfYYgtT6nctTcKKfFIvGyQYlDPVWlRErOZWDCqZBJEXX3zRMZJoE2Vio+8E+Xq5/urhL7Vck8Hr1Bp//PHHTS+aovxabTWvuk9uuummThQuZ2nWbRrf0Lg0R/LzqLnXfVz1KuV3+u80ApZeAOn6tWGC/KGcSbDX+taGNGHTd7B+v3jTPUD36KSm3Z11//Kml4XyYwwCEIAABCAAAQg0CoGGFrD0g+6Pf/xjiVW5iKk0MPWQWelhQm9Vr7322lKXtSqMrmLw77//fqnf3XbbzVZdddU0Qy/b9qyzzio9MC+//PK29957V9VvUgFL0SkqEq6HhaS24YYbuiiS8BwE0930tl2CRpKoGj1QnH322aWHvnLzpR/l+nGe1CTK7LnnnmUjwZIIWHoIkWiiB76kpoceFftXJF0Wq4WAdfDBB5vW3h133FFW6PNj0xxJmIoSseQfQZFIKbgSZ4ObFKifKAFLabw6fxIxzo9FotQ+++xT9oErTwFLfqj+fQRlpbmTAKGHyosvvrgUmbnuuuva9ttv3+yw4AOwxCuJMhL1ywk3wQ4kGEuMzWrVCljyDQlYmm9tThFnijBRpGulzTUk3un+LP9MYhI8dt11V/eyohYmUVcvQSoJV+HzSGjYfffdnfgSZRKsFGVcTigOH6N7vO4RUZFIefpLHmvSX9tLL71k999/f+z9xrcXS+3sW+47NA8BS2tcOxIHv8fL+ZQiIVXv8pxzzilFWeq7TzU0o0wlEvRdGqzTGeevetkhISts2nlWkY4yRWWeeuqpiSMyJX75F1G1eBkWdw18DgEIQAACEIAABNISaGgBK7wjn9666p88TRE6w4cPL51CDz+rrbZa1afUD1TV8vKmt7T9+/evul8JAvqR7COK9MCqB9dqLImApfP99a9/dWkU3vRmWDsmKtpKQoxP1Xv++edd1Ig3H0kSHOM///lPu+eee0p/UhpkEhEnnBYqpmIbtLB4pRRDPUwoGkj/rYdRRckpSsRHxOh4pasceOCBkYJnEgEr7EtKAVp99dWdwKKoIaXKKMJFApceuPSAKBM71UmTIJPWNB96AFGUyLPPPls6XFE/eqjypghEn7IWjsBSJMx9993noiD04K9/FNEmQUppLZqrYDSZatIde+yxzYYqHzn++ONLf9cD56OPPuquWQ/f8hel2+g8EsGCdvvtt7vINW8Sr+VbEig1bj3oKS33tddea/JAKfHj6KOPjkzHy1PACs+15lCilCLZJMjK/yXGeYFLYpXmx6dYlqtdFxQkdO/T9eoYrbE111zTRaFIDNbfFAkZFJMlICkaMUlUU5Sf6VziLJ8KirASoL14onME6wgGI7Dk43rA1mYWmmf5oNac5k+pUfI7CRfBaDW1kf9FmdopLTaY0qloHHFQNKBEDaW5ioH69ZthiI+EzST3k0rrTefXA77GLhMDRVfpmvxa1f1Ya+P1119vIrKVm1+t+csvv9zdf7zJxyXM+LRK7cCrtPZghKvW74ABA5oNN09/yWNN6gLC3/PiqtqPEv6872r9aO2Ig79Pal71PaE1FrY8BKxwdJL8WN+3mn+tcX3fKbpX33daj0qL1ve+95dyApbEWPm1F0W1pvQ9IbFa9135tfxK4qn8OiieShjVGgia7jN6keEt6W8Y+aA2rvFWrkZo2u8k2kMAAhCAAAQgAIFaEmhoAWvYsGHuQcCbxIRy6Uq1ghKMBFKfp5xySsX6TUnPqwdBRRX51AiliQUf7pP2E24XFmdqEfKfRMBSCo9EHG8+qiQquk3XrqgFL3bpB/phhx3m6sR40498RVL51IlyKVXh6w/6iB6SxThYg0T1ZFSQ33PXg78eZssV4w8LERIaJESELU7A0nWo2LV/2NADqR4kykX/qR7U0KFDSw871RbjVzSH5tFbmiLuXiDSw1HUQ7+uTRsH+ALxOke5NFv5uBdXJYTpIVSCsB6OytU5k1gif/GmNa+ownJ1zZRKJpHEm/oX67DlJWBJNLngggtKvisRTVFsEvbCpmtTPSk9pIuLj7go93AbFCQ0LxJRlJ5ULr344YcfbiJcVhuFpfFLaFO/3pIWcffzJXFHQkNUWq/YXXLJJSW/l/CntNOoaKVgFKvWkcRqPehHmUQBRaqpf5nOLWGzUm28uHuwXmzo/iBT6qR8XiJslIWjlXQ9+i4JR5eFRZFyG3dozekFSHBDEK0JRWMFLS9/yWtNan7+9Kc/le6TeqGgyKVyaZ8SPTWvvraf5lXiebjmW60FLImmigb355VPK1U/qraj1rRe7uj+KD/1979yazz8O0cCrk8zDvuWxEwJnv6+oZch+s4PmnxFL7V8lKYEPqWFx1nw3qH7kyK30tSijOufzyEAAQhAAAIQgEAtCDS0gPXnP//ZFUOW6YegfpQlKeBaDRg9PPkffknr5CQ9n1KG9ANUJhFH11NNsWU9pKlP/6NaAoFSS6q1OAFLP5CVXuRrtag+mB7YK6Vmiqke8j1bvZ3+wx/+0GSoSs9Q/Q+ZBCaJUeXSbtRG41D6pI+0iIpqkyjko1LUpx5iKxWU18OGHpB8CoZ8QA+F4WuLE7Dkt/JfbxLsFIFVySRG6h+NT6KNIpayWjUCls4ZFckWHIsiDcTJm3a+lOgWthNPPLEUMaG5FAM9oFZKD9UDmh5UZRI0JIJFFTgPnis4z5orzVk4gi0vAStc90nzVk5Y0ZjDgpv+lkTAUrs4YVcPthKY/D1BURxKha3GsgpYOqfu10cccUSkmOfHpHpS+sebisSHhaGwP6ve2ZZbblnxssI+WkkYSMInuBuuooOUElvJNBe6x8sUSSQxPPgCRp9LtPcid9z9W1E45513XkkoVd0wifFBCwpYtfSXvNakauypppS3KFEuzDjsj1ERRrUWsMIvbOJKAIQFr3JrPLwJS7lo1iADifW6h3jTPTYsDqtGniLBZLofqk2lSEyNQ+m+PiJU969qvn+SrCfaQAACEIAABCAAgSwEGlrA0htPX+tE4oMezPI0/YhTyo1/Y1rrGhB6K/vxxx+XLkEPG1nTexSxpCLQXhBTCoMeFLP2F+QaJ2CFUxSSpvvFveENv+XXA2JUoVo/VkXzBHdHO+CAA1yKmTelqqnAtJ9PRa0oeiXOwumevqh58Lg4AStcS021fYIpfFFjUNSGHjaS1P6Ku4ZqBCw9RCmFsZIgKfFQ9a082yQ1nDRmX8i93PiVoqhNCbyV6zd8vNaV1pc3pblp176g5SVgBR/uk9Rv0zxLzA3u0JhEwJJf6EE0LrVUEYdffPGFu/SoCI043wl/Xo2ApchMRdtVsvDcSYQP16zSrrBKH5NJFFM0U7koyuC5gi9BJLQraiqrBbn27NnTFNUYZxISy710UXSxom+8SdhV2nIlk1ArXrp23esVBRRcp0EBq1b+ktea1L1DAp/fgVZpoHrBEGcS/PSiyacSRomJtRawghsuKCpJ54+7T6uGn9JwvUWtcUUGS6wXA/2jtS3fqmTh78ko0S88Z+V2Pvbn0f1C/u0t/F0aNyd8DgEIQAACEIAABOpFoKEFrNNPP72UWqJ6IBKX8jSJQjqnN6VPSZypld12222uTo03/VjXj/a0pnEqGsA/pOqHtN7ER9UCSdu32scJWMGizIqQkbAY92Ne/aq+lB4EvIWFIT2QKCLBR2nF1QkLRmzpDbT8I/gwpxpKqtviLbjzXiUuEmfkBz6KJaquWJyApfpMSo3xlnY3qCzzFjymGgErSXSLzhWMViw3V8EH6iTijkQKiRXekoqjmjNF7PkU1KholjwELD2ES0xJGwWp3cb+/ve/l64ziYCl9Ff5cJwF14VEDs1BNVaNgKX7kiKFKplEeEWSeovaaTb4MiMq8qhc/8EU62qjXlVk++2333anUiqiUrd8naosfIMCh/pTNGncfVT3yEpRqcH1Vit/yWtNhnfMS/qCQayDuxPrvhLc7VSf11LA0hpXOp1P20sSfacxyFfkM94qFXFP4z/hmoXlIj6D5RDkp4pkLfdSQgX0tQumLK5tmrHSFgIQgAAEIAABCNSaQEMLWPrR6NMrVBPjuOOOq/X1N+lP9WX0EOGtFjv6BU8QLoKbJConfMGK2pB4JYFEFlcLJguwOAErmAqZ9CFJ49ADgB72vUVFydx7772umLpMb7olSkSlWSptUHPlBYuoHZmCP8rVn9Iek6agBhlE+UGcgKWHHglYehPuTW/W9ZCmyL5K0U1Z5ix8TDUCVlwKnD+Xoid8QW3V+FJaTdiCD9Qqdhwu1h5uH4y00We6B6guThITb78uomrM5SFgqbi0Um+8ldsZLDz+cHpbEgFLxcp32mmnWBTBnSijdniM7SDUoBoBK0mU6Q8//OAi0ryFi0dL0A4KFEkFVvUXFjIUsaT1l8X08kEvIbypnpXmW+nQElHSWvA+qnqAiqCt1oLrrVb+kteaDPNMWmxcjLTJhAqae1M0aDAysZYClr5zlbrpLakQFX6JkfS4OB/4+uuvXdF3b1GCrz4Lv8ApF1UVjoTTbqfaaAWDAAQgAAEIQAACjUigoQUsCRR+hyo9LASjo/KAGRZYqk05CY8xWKdHnyliKM0bfEUwKbrC156q9RbxfrxxApZEJV93SkJBml0a9TDsRaeo9KJwKoPq96iOT9iUmqEIBm96u6yxBE2FwP3uaYpsKFf4OsqX9Pbc7/qlnd6UUhe0OAFLbVVH69prry2luvjjVeNK0X0SdJTyGJcSlsXXqxGwyjEPj0OCoNI0ZUkErCQP1ME6QxIbdY6kFjxWES2+/pA/Pg8BK+yvO+64o/Xp0yd2yFrDwZToJAJW0sL+jSRg6R4eVwhaaeKKsPIWFrDCD+xaN7o3JzGlZWmXO29xtYsq9al0LxWSV4px0HRvkZDv17QEskpRUv7Y4H20FrXK1G9QwKqVv+S1JsPCaBpxMXxsuMZgLQWscMTT1ltv7WrWxVn490QSAUuCuNLP5fO6t+o+oX7ke4q+078V7enTLjWGcgKWvmcV0ex3QSxX10obA2hTDlm5+oFx18rnEIAABCAAAQhAoF4EGlrACkZU6CFBD7NJHgyqgac3uT4dqFY7BfrxBGuo6G96wE66K9arr75q99xzT0kMUQ0U1WDJY1fGSgJWuE5YNazL7RYXTBeKKvaucwbrialujOrHhO2qq64qFWOvZpwSnIKRY+oriYCldhKxFLXhI5WixqE6RYrOUoHusAiXddzVCFhxtcf8mNIKWOuvv75tu+22FS8pmPaSNnoomOKlkygyKpiSlYeAFa51ljSKRA+iqmcVt0NZUJBI8gCs624kASvJPS5OwApHq2VdEzqu2kLu+m5QZGdQFAuPR2nVErN0f5MwFfWdFb6PlhOA015rHv6S15oMp9HqJYFeFiQxRekqWtdbuLZeLQWs8BoPC6zlxhue40rr96uvvjIVXvebhyRh4NuUE7D0ebDge7mdBYMlAdKk56YZI20hAAEIQAACEIBArQg0tIAVrOWiC05aw6gaOArN19tPmd5GKnUlSbHguHOGdxtKusOhjtNOTXrj7E3plBIZVGw7D6skYOmtbrU1dfyYy9USCe5KpodBRd4F0wgVlacHY4kAsnJRL8Hi2tVwiormSSpg6bx6gy4BUkWbJSyVM/mbaklpR79qfa4RBawkAkzQ99LWbwqn6IbFkzwErPfff99F5XjbfffdbaWVVkrkbkGxPEkEVhJ+OvHsJmCFi7wnglumUVTacpb+tMuoRBRFePoIl6h+VJtvu+22axZFGr6P1mrXtzwErLzWZPAeKnZpIpIlIEp48RYW3WspYIXXuNJ4FU2axHRN/nuq3PrVZiS6N/l2/reHvuflP/ou0PefhFAJ8op+DtbSrCRghdMYwwJuuO5k1AYKSa6TNhCAAAQgAAEIQKBeBBpawAoW4BWQWj18VIIbfBupdkm29U4yWeEfkkl2sdJDjn7Y+jQ4nUfpM/qRWa3AUWnMcSmEihzxO0Ap0kApFVlM4lR4+2/1E47ICIsCqn2iGigyvVVWKo76CpvS9/T2XKYaNQceeGCWYTohM1xsP42AFTzpuHHj3C5iStvQPz5FNthGwuTBBx9sSpvNakUVsIJRc2nThrUjpR4G/QOgIrCCtcbyELCyRmBp/WgdeUPAKp9CGE7TVH0eRSxlMdVTq2Zdhc+peRw5cmRpTSuSJihE+PaKPFQEYtCC4kbFBM9aAAAgAElEQVTUpgNZri8PASuvNRl8UaFrTbOpSfA7QMfq3h6MRq6lgBVe4/369TNtyhFnSda4Uga166pPq5dApXuBdlAt56dJa2D58QUj6MJlEYKc9B2pmoN5R7nHceNzCEAAAhCAAAQgUIlAQwtY4QeXqFpEWaZXb8/LFfJ96623nGjkrVapHU888YRJkPMWl4agH7SK7JDY4U21dXRc3E5VWZgEj4kTsFS7x9fhqnWhez+OYLplONUw+FmlyIVgSlnaekpxDLMKWMF+FV33zTffmHxO0Ry+rpjalEuvjBuX/7yoApZ8XhEPMj1InXvuuYkL3gcFS9VdCm7IoP6yCFjvvvuuqzvnLRwFGr5HJU1RU0ppsEYXAlZ5ASss/m+55ZamQu6NaFrDqpH1z3/+s0k6mO7Z2rQjKIQHd/FMssFBkuvNQ8DKa00+//zzLm3Om0T7xRdfPMlluh08lYLoTQXwVQjfWy0FrPAaT/oiLckaV1kA+Yq3JPePcE2uShFY6leRv8OGDSudI1gvMhi1miTFO9Hk0AgCEIAABCAAAQjkSKChBSw94CuKQrsAeUtan6ccM4lXSi3Tj91NN920WWqH0r30YOnFBD1E6wef0pmymt7EahcjXwdJ6QBKHyr3hlXXrWgSPTx7q+fOQHECVlBAUrTQsccemxVN2eOCNU6Uwqc0QolQ8gX5hK8dtN9++9kyyywT2c9jjz1mw4cPL32mOlaqZ1ULq4WAFRyHfEORDtqRTabIIV1zlt3NdHxRBaxwWpGilKKi9KLmUH6hiAZZ1K5uQQFLkTiKNoizl19+2bQLm7ewgBXehVDRQVqrcRZOS0LAKi9gqe6U5spHNq211lqullWj23PPPedq5XkLCwR//vOfTd9HsrTpsuWuPQ8BK681GV4DcUJM8Jq1gYc28vD3ynCqfy0FrPAaX3fddW377bePdT9tunLllVeW2kWtcf0u8L9v9F2qOmBxO9T+61//cmnC3uK4af3oN41Pdd18881tk002cbU+JfL7nZ6z7IocC4EGEIAABCAAAQhAoMYEGlrA0rWGdxvSD/2jjjoqdmerKE76wSZxRm/0ZXorrh+MqjURtGDhU/1daXL77rtvZvSPPvqoPf3006XjFUmluk3lLPzAUO+IgzgBK8inWqGlHINffvnF7aDkUxX9znhBf5AvSOAo94NfqZfaidCbit4rdbMWVmsBS2MKj7fctudJxl9UASv8cJZ01zj5iyIDvbAZJXIoCkHRCLKkEXnhCImwgKXzSYz2KUBJUoN1fhUCf/HFF0tTiYBVXsASpEsuucRFK8oWXnhhF81UBAvWVFSKWzCNOexbSQR2Rd+oqL1SyPWPImCD6dN5CFh5rclwhJLS8pSel8SC/qDv7+OOO67JYbUUsLTGNTd+c5ek0XLPPPOMq1/pLbzG1a++v7wwm7QOWlCIV99xAlb4fuPXTzDafNFFFzXt5IhBAAIQgAAEIACBRifQ8AKWfjReeOGFptpB3vSjXXWRgoW940DrR6KimoL1pMr9YFZ63AUXXNCkOK+itfRPWlM6iVIw/I9UPWwoYqlcJJBSBq+77rrSg7hqYShloZ4WJ2CFiyrrbbTeSseZ5lJRZRIEk9Shkfjk58sLEsGoBb1F1tvkcqY3zhLBvLiQps6Mainph35Y3PTnihOwVNtKtUpUE0d+ppS2OFP0lfzOW6Xosri+iipghQv0J02lVDSGojK8Re0GGBaNFLVRKcJN4qlSGINb1kdtJBHcLECigmqyVaojI7FN0WLBlFEErMoCVvglgF5iaPfOOPv+++9dTb2lllrKiZZZTb4wevRot541x0mF8GBB/XD9Id1j9J3kTcXe11tvvYpDDNZo1AsY3d+C15WHgJXnmrz44ovt22+/ddesjU0k6MSlyCtiSZFL3tZee22XWh+0WgpY6jcYdSzeunfE+VN4E5HwGg/XyFJheBWIr2TyZdXM8i921DaJgCXGYu1NL+4krvl07biSBlnXDcdBAAIQgAAEIACBWhNoeAFLF/zRRx/Z9ddfXxJ19Dc9kPzhD39IlBImQUoPEsF6UqqnpTeOSk+LsjfeeMNUHyJoSgFRNFRS4Uw7JWmr7+CPzUo7GEngkYAxfvx4d1pdo0SMuB/0tXaKOAErnNrZsWNHJ8rFFZb3RfkVMbXYYouZIowqsQzWH9LDzaBBg2zw4MElP9A543ZiDEbd6LwHHXRQbJ2VYOpHly5dTJFbErOCVknAkmCmBxylo8q22GIL23jjjWOnKfzQleT6ynWqB+0hQ4aUPq70kBOuqZI0TVdz4X21XK24LA/UQeFSvi+xQuu1nGl9KSJDAoNM4qiiosK+pYgniVje4nbcUtSkhJOgRQlY4Xo8cQ+DwfQn33cjC1jhVLhKu8WFmYV3goyaw/CmDVH81Eb3Rh9hJxF8n332qZhupbaqi6bNEuQLinxNkvoVNcbgHEv0lF+X++4IHh+8l4bFWPmt+Ph6grrHqZB5ObFbQpIYeOFTqdP6fghalvWWZNfKvNZkuA5WkhpQ4Y1WDj/8cFtkkUWacKi1gBX266ii/MEB6MWVfrMELWqNB+ugqS6nvuPKmX4fqCC7Xoz4daC2cWPx/QVFOAmlqr0lH5QQpxTdJC9ZYr/EaAABCEAAAhCAAARyJlAIAUsMwg9R+pseIPSjUA8GUQ+4SlFQypBC+YNbnav+jVI54sSP8Ft/nVP1eFTnRm/go6KIJFpo1yL94JUwELS4aKpgyoEe3FWYNkmUQa19JE7A0vm0jfdtt91WOrV+fEvoiYos049tiQcq2Ot/eMelUapj/bhWjQ4/dxIQX3jhBXfOcDRDOQZ68JW44cUkzZkEGgloUTZixAiXdujPKR/RQ2VYRIyLwLrzzjvt1VdfdadQNI5SRnv37l12qhTlc80115TSW6vdsCAsClRKT2k0AUupYvJBL/yKhR7U9YAfNomFYq00J2/lHujCop4KaqtwdJTwqtpXEp/nn39+UxSPtygBSyLeH//4x1Kknx4ItRYksgRNPvjwww+7gv0SH1T/yIsRjSxgSYiXaOBNvqz1G2V5CVg6VzjlTlGZilqKEsH1sK8xB/1il112Ma2DLKY6SBKPfCStio1rjitFkupepXRrb1HpsOE2Sk8bMGBAs8hAiVe6L6mguDeltYd9LC8BK681qTWhyCBfu05rR8JkcEfB4HyFRehyKbu1FrAUAa7599G8+u0h/lFF5zVHQ4cOdd85+t7w3z1RazxYIF/XWS7NXfdzbUqie5hq7GlTmDTfpeo7GKWqlzn++F69ermXgRgEIAABCEAAAhAoAoHCCFiCqQc/PRAEI5o8ZNVD0gOuHij0I1M/iPWjL/imUm31MKx6SuVSw8KTpgcy7XYU3hpdPwD1ACwxTG/k9SCqhwyF6ofHpx+x+tEZF4UT3N1P48gaeSVxLuluTlFOmkTA0nHhSBK9wdWP4SWWWMIxUWSB5kDRbL44uY5TVJPemsdFbIUfWsXDz0OSN/X+2vTDXSKH9wXN3UorreTqx8hnVMRWDyhKV5SA5U0PxmIZJXbFCVgSNSScKV3Mm/pZbrnlnHAqVvITCVcSMt5+++1SMV2Nb++993Zts5o46e1+ME1thRVWcMXN9Tf5rlJvZI0mYGlMYSFEvCSaKCpRviWBUWmSmlv/8KvjNKcSKMvVRQv6ttrrviEBXHOi+ZYfKPJPc6J0X/Wl4vreyu2UFt5lVO31EK51qH40RvmX7hG6FtVwkn8UQcAKp6OKk9a51o5eEqyxxhql+02eApaEAKVl+ZQzfy+RKCW/lqig8Uhs0YuL4NrTelfaeTWmlCu9ZPCmeVS/Wtf6HpBQrfnUvU4Cii/QrvbyA0V/hv0yGCXm+5V/r7LKKu67Su39TqW+2LbalXsBkJeAleea1D33r3/9a0kc0jVrTa644orOxyRGSkTWS5ORI0eW+Gvt6nskSkSstYClk4ZfaOn7SGnpWufyBa1tRfsp+krzqpIDuj/5Iu0bbLCBbbPNNk1cUNHlKhngTX1qbtWn7hu6HylyXNeje7r+vv/++zvRz0ecaj1KyNUakO9IdI+ycDF336aaWovVrCeOhQAEIAABCEAAAlkIFErA0gXqDaQiI8LRTXEXr4cL1SJSOldc7YpwX3oQ0Tn1IJfWVBxVhWkVoRRnSs0JC2Vxx0R9nmY78qjjkwpY+pGuqCofFZVkrEr10FvmpLs66oFFaRNB0w921RlKk/IgEU0RGf4NetxY9VCkiAlFRERZnIClY+Q3iprwu0/GnVOfyzclzmWNFAmeI7wZQPCz4E5ajShgaawSC7STZNI1IVFFKbqV0lKVfqOdwYJiQNS8+CgqiRPyNW/lHva0FrRboaKVKpkiOCWgKyVV/RZBwNL1hIW/4DUGUzHzFLB0TgmXWlNBoTluXUkMUQpt0tTvcv1pjhUFpui8NCbRQfe8coK9hAXVwpLwkcRUK0n3iKgXHHkKWHmtSfUr4eemm25qIrhXYqH1I5E/KipTx+UhYEXV0Sw3Rr0s0JxLpPabxpSruan7RhKfUtSxrll+FJXerLHE1eq877777KWXXioNWy+TtMty3M6HSfySNhCAAAQgAAEIQKAeBAonYHko+sGrt+z6oRp80x6GpsgKvc1WuklS0aQceKUG6px6a+rrlkS11VtQRYJIhAineFSa1KIJWP5aJNSoRoz4+J2awtept8OK+NHDV6UC11F8VPA6GGWTtLB3uC9FRQ0fPtxFO5WbP/mI5k1vyyulByURsHR++aYEPqUyKRqtnOlcqiP129/+tmo/9eeQWOfTqIKRiHpYUTSgL4DfqAKWrkMPf08++aRbc1Gik3xJAoGup5zYGGauPjV/imwIR2iqPz18KmJSUWp6aNW69OZ3wyw3j7of6QFR96dgJKaiIuS38itfOF51Z/w1ad5VXy9seQsSSb9kFEWiFKZgVJGOFS89qOt+J8tbwNI5NGdaw6qfpPGE59CPS9F64l1NJGMUH93ntKb173KCuNaYoq50z9O8JxEIdE3aZVUvSqKuSQKGNq6Qf5azevhLHmtS16N7su7P2h0vSvQXQ6XUq36Tov4qRSjnIWB531MkuMT14MYyfj60zjXn8juN7+qrr3a7RsrKpXFrruVPWjuK4gqb7kOKytJLB//dqXuLXqopwiso8MftWKxoPolq3jbbbDP73e9+l/Q2QDsIQAACEIAABCAwywkUVsAKktPDlVIM9HZeAopSSSQI6C1tpV3GqqGvH686pwQKnVMRG3ozKsFMIkiSB5Zqzt+Ix+phThEuSovTXCjiQak1+gGuQu+NYnpg0EOY/Ebj1Fxp7pSyozfSeZkeyuQzekiRz+hhxPuMzpuXz+i8SrvSdWs9KH02SfpmXhyy9KsHNvmWrkVRS0qvkU8poi9tRKU/v9auxAI9OIu9ojnkq7W4Z+ihUv0q7U33onC0oOZCwpgXKpIW+s/CrpbHKG1JYrJ8V9elNVNtZFM149P6lV941rr36/4roSNJkfVqzq37ndazeEiI1FzqnKoDqPPLR7OYT0XXv9WnOMvPk+zcmuV8WY/JY036sfj7s9ao9zUxbaTvEd1TNffyQc2Noit1/8hqumfIl/WiQ2z13SlfrlSrU/dCfY+JkfwuLipZwrpqLcoksGnXx3JRbFmvg+MgAAEIQAACEIBAngRmCwErT0D0DQEIQKDWBMJF9ivtElnrc9MfBCAwZxIIFo2vRV24OZMiVw0BCEAAAhCAwKwkgIA1K+lzbghAYLYgoEgrFe/WP0pljIvi0hb2qqfkTTtdVhO9MVtA5CIgAIHcCCjdVpsg+KjPQw45xO3mi0EAAhCAAAQgAIEiEUDAKtJsMVYIQKDhCKiWlnZR8xZXSFmpZ5deemlpFzGlCSmVJ68U0oYDxoAgAIG6ElDK+p///OfSDp4S2bWbIQYBCEAAAhCAAASKRgABq2gzxnghAIGGIiBBShsN+MLTqkez66672sorr9xsnKqVNGzYMHv33XdLn22zzTau6DMGAQhAoNYEVEdMGzCo/pVMta8OO+ww08YqGAQgAAEIQAACECgaAQSsos0Y44UABBqOwDvvvOMeEoO7x3Xv3t3tQqriyirQrMLUahfcAXOJJZawAw44oOKOag13sQwIAhBoWAIS0l9++WW3oYBq7WlXRxWa97bVVlvZRhtt1LDjZ2AQgAAEIAABCECgEgEELPwDAhCAQA0IvPLKK25re+0glsSWW245F6lVtB0hk1wbbSAAgVlDQDsZKkU5ytZbbz3bbrvtZs3AOCsEIAABCEAAAhCoAQEErBpApAsIQAACIqCIh2effbZZpJWn07p1a1t88cVt3XXXtZ49e1L3CreBAARqSiBKwFpggQWsb9++1qtXr5qei84gAAEIQAACEIBAvQkgYNWbOOeDAATmCALjxo2zsWPHmnYobNOmjduZsGvXrqYaWRgEIACBPAgoAlTpykpV1sYQ8803n80///x5nIo+IQABCEAAAhCAQN0JIGDVHTknhAAEIAABCEAAAhCAAAQgAAEIQAACEEhDAAErDS3aQgACEIAABCAAAQhAAAIQgAAEIAABCNSdAAJW3ZFzQghAAAIQgAAEIAABCEAAAhCAAAQgAIE0BBCw0tCiLQQgAAEIQAACEIAABCAAAQhAAAIQgEDdCSBg1R05J4QABCAAAQhAAAIQgAAEIAABCEAAAhBIQwABKw0t2kIAAhCAAAQgAAEIQAACEIAABCAAAQjUnQACVt2Rc0IIQAACEIAABCAAAQhAAAIQgAAEIACBNAQQsNLQoi0EIAABCEAAAhCAAAQgAAEIQAACEIBA3QkgYNUdOSeEAAQgAAEIQAACEIAABCAAAQhAAAIQSEMAASsNLdpCAAIQgAAEIAABCEAAAhCAAAQgAAEI1J0AAlbdkXNCCEAAAhCAAAQgAAEIQAACEIAABCAAgTQEELDS0KItBCAAAQhAAAIQgAAEIAABCEAAAhCAQN0JIGDVHTknhAAEIAABCEAAAhCAAAQgAAEIQAACEEhDAAErDS3aQgACEIAABCAAAQhAAAIQgAAEIAABCNSdAAJW3ZFzQghAAAIQgAAEIAABCEAAAhCAAAQgAIE0BBCw0tCiLQQgAAEIQAACEIAABCAAAQhAAAIQgEDdCSBg1R05J4QABCAAAQhAAAIQgAAEIAABCEAAAhBIQwABKw0t2kIAAhCAAAQgAAEIQAACEIAABCAAAQjUnQACVt2Rc0IIQAACEIAABCAAAQhAAAIQgAAEIACBNAQQsNLQoi0EIAABCEAAAhCAAAQgAAEIQAACEIBA3QkgYNUdOSeEAAQgAAEIQAACEIAABCAAAQhAAAIQSEMAASsNLdpCAAIQgAAEIAABCEAAAhCAAAQgAAEI1J0AAlbdkXNCCEAAAhCAAAQgAAEIQAACEIAABCAAgTQEELDS0KItBCAAAQhAAAIQgAAEIAABCEAAAhCAQN0JIGDVHTknhAAEIAABCEAAAhCAAAQgAAEIQAACEEhDAAErDS3aQgACEIAABCCQmMBnn31mL7/8snXr1s1++9vfJjpu4sSJdv/991vLli1tl112SXQMjepD4PPPP7d//OMfttBCC9kmm2xSn5NyFghAAAIQgAAEIPBfAghYuAIEIAABCEAAArkQuO222+zYY4914tWtt96a6Bxffvmlrb322taqVSsbNWpUomNoVB8Cd9xxhx155JG2/vrr27Bhw+pzUs4CAQhAAAIQgAAEELDwAQhAAAIQgAAEogiMHDnSCRR77bWXLbDAApkh/fOf/7Tbb7/dVlhhBTvggAMS9YOAlQjTLGmEgDVLsHNSCEAAAhCAAAQQsPABCEAAAhCAAASiCFxzzTV25pln2hNPPGE9e/asKyQErLriTnUyBKxUuGgMAQhAAAIQgECNCZBCWGOgdAcBCEAAAhAoOgFFSz300EMIWEWfyBqPHwGrxkDpDgIQgAAEIACBVAQQsFLhojEEIAABCEBg1hJ47rnnXFreu+++az///LN17tzZVlllFdttt91srbXWajK4J5980v72t79Zr169bNCgQc0GPnz4cLvllltKnz///PM2dOhQe+mll1zf66yzjs0zzzy25ZZb2o477uiO//HHH+2GG25wxbxHjx5tbdq0cWmGG264ofXv39+6dOlSOo/vb+WVV3a1k4Kmc1x99dX2wQcfWOvWrW3FFVe0/fff3xZeeOGKNbD+9a9/ufO/+eab9tNPP9l8881na6yxhu299962/PLLz9rJKejZP/30U1PU3auvvmrjxo2z+eef3zbYYAM76KCDmqSQVhKwFDl30003uT6+/fZbmz59uvXo0cM233xz23PPPd0ch+3DDz90/qe5HDt2rHXq1MkWWWQR22KLLWy77bZzvhW0NO2vvfZa56PyqY4dO9pZZ51lKkJ/wQUX2MYbb1zqNs168gdpc4LrrrvOXesPP/xg7du3t2WWWca23XZb69evn9uAIGjHHXeca/enP/3Jvv76a7v00kvtnXfecUxWX311Vyeue/fuNmbMGPeZ1s348eNt8cUXd6m3v//97wvqWQwbAhCAAAQgUFsCCFi15UlvEIAABCBQMAITJs20HybMzG3UHdu1sN90alGT/pXWJ6FBD8h68NVucHoglqgzc+ZM04Py4YcfXjqXHuLPOOMM9wB8/fXXNxuDxKpTTjml9Lmirs4991yTGDFjxgy3e6BEhN13390OPPBA++KLL5yw8P333zuRY8kll3R9fvzxx+6Be9FFF7U777zTFltsMff3ckXctcvgIYcc4sasFMUllljCvvrqK/dQr/FozFFF3K+44gobPHiwtWjRwnr37u3EFYkvOr/EAD38S0BoBJs2ckSuw2jdvYdZq1ZVn+Pxxx93IsnUqVOd4CSmEmgkpnTt2tUeeOCB0nyWE7DkfxIvtYOkfGbppZd2/y2RdfLkyU4IlegaFLEee+wxd95p06a5/iVc/frrr/bee++5sWy00UZOqGzbtq27xrTtjznmGCfenn322Xb55Zfbd9995/qRD8mHZWnXk455+OGHne9qjBKtll12WSf2vvLKKzZp0iS3O6PWVfBaJe6KqdauhFyJVRLV3n//ffvll1/c/6tfjUv/r3Wl9hKI5euqR7feeutVPdd0AAEIQAACECg6AQSsos8g44cABCAAgaoIPP72NLvgoclV9VHp4N+v0tqO27pd1f3rAVfRJIpS8VFVvtMXXnjBBg4c6B6q77nnHuvTp4/7KK2A5ftbaaWVXERMuAaWxLG77rrLRXtJ6PIP6VOmTHFigAQHCRkXX3yx6ypKwJKwoUgx9X/SSSc5McDb008/7aJ+JAiEBSxdo/pWtIuidrRTobd7773XCXcS29SHF9Cqhl5FB9//fh2z6dOr6KHyoV0f/0fVApZEHYkrEk0k8nhhR/OpqCDNtaL3JGzKyglYffv2NUVH7bvvvnb66aeXIpAkeG611VZuri+55BLbeeedSxclH5VoKdFxp512Kv1dkUr77LOPvfbaazZkyJBS5F/a9ieccILdfPPNpui/Dh062EUXXeTENdlcc83lBKO060nj1Y6a4nXeeec5YdebPtN16JqPP/54O+yww0qfKeJLIqvEwXPOOccxkekYRZspqlGila7xj3/8o1tXWsv77befKYpym222sauuuio3X6JjCEAAAhCAQFEIIGAVZaYYJwQgAAEI5EKgKAKWxAU91Icfjj0U/V3CjtKYrrzySvfnWgtYSgdTlJQiQtZff/0m86HoE4lnSy21VCmVMUrAUkSPRCpF3GiXwqh0q1tvvbWZgCXx48UXX7SjjjrKjj766Ga+oL8pyufggw+2k08+ORdfSdNpEQQspbRJbJSgouigoElEVGqqBENFaSlKKErAkpgj0UXRQkrTU9RW0HyUk1JQJUjJJkyYYMstt5yLLtKOl+H0QqX6vf7667bqqqu6KKe07XUO+YAEVQmhio5StGLQsqwnXedll13m0ivla2G77777nCAroeqNN95w1ydTVNZHH31km222mYvOCpoissRVEVlKSVTKrjeJV0q/VETbs88+m8b9aAsBCEAAAhCYLQkgYM2W08pFQQACEIBAUgJFELCUWqUHftUV+vvf/x5Z60kpVopcWXDBBd3Ds6zWApbqTEnMkOChiJq55567IuYoAUvpgRpXUNAIdqL+dZ5gBJbEMV2/0s3KXb+ixfbaay8nujz66KNJpz+3dkUQsLyIc+GFF9quu+7ajIVSPL0Iow+zFHFX6uqpp57qRBxFRMl86qjSThWFJ0EzLGQGB5O2vY71Ata6667r0lqDlnU9KRJKa0tRVPK1sKkm2worrOD+rIhBpcbKvIAlAWzAgAFNDvOimFImtV6CphRMpf9KEFOaJgYBCEAAAhCY0wkgYM3pHsD1QwACEJjDCRRBwFL0hh6CZYpYCRe31t9VDP13v/uda6MIFtUOqrWA9fbbb9sOO+zgUqgUMaKHbkVi6d+qnxS2KAFLaVGPPPKIS/lTza6wKRVNKWlBASt4/RI7oq5faViK3JKopnStWW1FELCUXqdaV4omUlRRnFUSsFS4XeKj5k99SnSU4Prvf//bPvnkE5d6p/nxJjFLaX4yRUfJv+VLSmlUYf6wpW3vBaw//OEPLn0waFnXk+clv5bPR5k2I5Awp2vVNcu8gKVr8OvYH+uj4IKpt/4zvxYU1aZC9xgEIAABCEBgTieAgDWnewDXDwEIQGAOJ1AEAUtRH4r+UKqVauxEmf6uaBOZ0vy0G2CtBSz1reLSithRxJMKdHtTMXbV/dl6661Lf4sSsFQ/65lnnimbCumvIyhg+etP6qqjRo1yAtistCIIWIoQUr0rFdXXTo5xVk7AUmF0RRIpQk71pVTMX6lwEhpV00o+ExawdC75gVLylOKnKCuZIrHUVuKmBKOgpWnvBXn1v38AACAASURBVKyolNKs6ykJrzXXXNNtrKCUTF/rygtYUUKhF7BUw+78889vcr0IWHEeyecQgAAEIDCnEUDAmtNmnOuFAAQgAIEmBIogYGlnNtXPkWmHwKh0Kx/lojbamU+1i+IELJ/eFd6lsFwR9yA4RWH94x//sOeee85F3mhcsmB6VZSAtccee9hTTz3l6lipnlXYfHRMUMAKRpepDla7dpWL4i+88MKz3MuLIGAtv/zyrmC+Uuy8+FkJXJSApdpMSj+UuKodInfZZZcmNa185FSUgOXPpfpZzz//vPMlCaNKxVMEoYQ1pYSGLUl7L2CpJpXSFIOWdT0l4aW6XRLtgtFWCFizfDkyAAhAAAIQmE0IIGDNJhPJZUAAAhCAQDYCRRCwtIubRCWZolVUAD1sevhXupQiXyT4yP7617+6XeE23XRTV9A6bBIcFD2TRcAK9qXomb/85S9uZzbtkqjzq3ZSlIDli1ZrBze1D9vw4cPdjopBAUspWUrNkgVrC2Wb8focVQQBywsr4R0CyxGKErCOOOIIJ4CpyL76CZuv8VRJwAoeI2FUkXyqY1bOb5O0ryRgZV1PfrfF4O6IwbEomk2bGMyYMcPtHuh9FgGrPmuOs0AAAhCAwOxPAAFr9p9jrhACEIAABCoQePHj6Xb9M1NyY7Tesq1s79+2rbp/1QdSbatLL73Udtppp2b9XXDBBW6Xt2CxbNXhUSqW0pq0Q1rY+vXr5wSxJAKWRCql96kAti9UHRaxllxySZeSphQtFZOPErCuuuoqO/vss2211Vazhx9+uNmYtJPd1Vdf3WwXwo033tjVttLnKlYfNolcGlt4t7mqwWfsYOy+u2Q8Mtlh8119q1mVaZLHHnusm6NyBfXlF0oTVQ0ppRhGCVgSIlVY/8QTT7RDDz20yeCVUqiaVvKboIA1depUtyuf0ly7devW7IK1A6F201TKngTLtO3VYSUBS59nWU9aS1pT5cQ6jVW1rFQfTlFefndFBKxkPk0rCEAAAhCAQBwBBKw4QnwOAQhAAAIQaAACipRSxNSyyy7rhJ8OHTqURqWUKhVwVyFzpQ1uueWW7rOXXnrJiV1KJ5RQJcHAm/pQfSCJDGEBq3fv3qai3H/729+cACFTXan11lvPVFBaKYP6d9Def/99FzGjc+m/lQIWJWAFUx3vvfde69OnT6kbCR2bb765SyELRmCpgU+HVHqgzj///POXjlOxcKWKPfjgg04c0y6GWDyB1157zbQToWpViV2w5pQETzFVUXwJSoqsixKwvFCk2mcSHr1pTlSkXeLWd999Z7169bKHHnrIfayILUVuqRD6TTfd1CTlUJ/7yEGJTMOGDUvdXn3ECVhZ1pN2AtR1KoVVPrjMMsuUrlfrSOmTSquV/8kPvSFgxfsiLSAAAQhAAAJJCCBgJaFEGwhAAAIQgMAsJqAolO23397tRqYHZxVDl4ikXQlvvPFGk4gVFhH0UL322mvbN998445RpI2ECPUhweLAAw90aV+qrzV06NDSFSqKRNEkEsu22GILtyucdg88/vjj7ZZbbnHn1VgUIaPILEWG3X333abULKUIHnPMMa6vKAFLf5dwpvpGEkcGDBhgiy++uBPIJJipX6U7qs6Xr6ulY4ICgaKsdFz37t3t+++/d32pcL0iwLTDoa4RS0bACz0SRCV2KiJKAqTEJolQSgEUa1mUgCVxSyKYTAKOov00JxInJ06c6Iq0K9JP0UhnnHGGE7KUWie/UpFy1ZWS4KqIPUXQaafLBx54wPmVfE0CqqL60rRPImBlWU/q97TTTrPrrrvOOnfu7ISqpZde2tW8kv9r7FoT8kGl8iJgJfNBWkEAAhCAAASSEkDASkqKdhCAAAQgAIFZTGDChAlupzIJCRIHvElQUlqdhKHw7nt6qB40aJAr7O5NgpF2EpQopLpZ4fpEEiX23HNPGzNmjDtEIoLEJdX2keAlwUzRXkFbbLHFnCCmIu3eyglYEioknOihX2OQSUDZa6+9XHF31RHyKYs+DUttlM528cUXO2Fj3LhxpfNICJOIoj7nnXfeWTxLxTq9OCty6sorr3RCjDeJg4qgkqDordwuhPINpXYqck4m8VH1opTWusACC7hoK0VdyXx0kubvlFNOcbWuJk2a1ASaRC6lJCriz1va9nERWOo3y3oSL21+oAguRSl6U+ShWKlgfDDSUZ8TgVWsNcFoIQABCECgcQkgYDXu3DAyCEAAAhCAQCQBiT4jRowwFbxWdJTEIxVNr2RKz5MgpYfrHj16xJJVhIqiopQupaic4M6HErL+/e9/OxFL51X0TJad/7QDniLIlMKmMUkESGI6v46TYKLr1/jUB5adgI+kUy2xpD4SPJt8UhFzElYlfilCKWiaa1k4Ok5+5udSaafy5fCxwX7Stk9CJMt6Ur9aU4o6lPiqyCt8MAlt2kAAAhCAAASyE0DAys6OIyEAAQhAAAIQgAAEIAABCEAAAhCAAATqQAABqw6QOQUEIAABCEAAAhCAAAQgAAEIQAACEIBAdgIIWNnZcSQEIAABCEAAAhCAAAQgAAEIQAACEIBAHQggYNUBMqeAAAQgAAEIQAACEIAABCAAAQhAAAIQyE4AASs7O46EAAQgAAEIQAACEIAABCAAAQhAAAIQqAMBBKw6QOYUEIAABCAAAQhAAAIQgAAEIAABCEAAAtkJIGBlZ8eREIAABCAAAQhAAAIQgAAEIAABCEAAAnUggIBVB8icAgIQgAAEIAABCEAAAhCAAAQgAAEIQCA7AQSs7Ow4EgIQgAAEIAABCEAAAhCAAAQgAAEIQKAOBBCw6gCZU0AAAhCAAAQgAAEIQAACEIAABCAAAQhkJ4CAlZ0dR0IAAhCAAAQgAAEIQAACEIAABCAAAQjUgQACVh0gcwoIQAACEIAABCAAAQhAAAIQgAAEIACB7AQQsLKz40gIQAACEIAABCAAAQhAAAIQgAAEIACBOhBAwKoDZE4BAQhAAAIQgAAEIAABCEAAAhCAAAQgkJ0AAlZ2dhwJAQhAAAIQgAAEIAABCEAAAhCAAAQgUAcCCFh1gMwpIAABCEAAAhCAAAQgAAEIQAACEIAABLITQMDKzo4jIQABCEAAAhCAAAQgAAEIQAACEIAABOpAAAGrDpA5BQQgAAEIQAACEIAABCAAAQhAAAIQgEB2AghY2dlxJAQgAAEIQAACEIAABCAAAQhAAAIQgEAdCCBg1QEyp4AABCAAAQhAAAIQgAAEIAABCEAAAhDITgABKzs7joQABCAAAQhAAAIQgAAEIAABCEAAAhCoAwEErDpA5hQQgAAEIAABCEAAAhCAAAQgAAEIQAAC2QkgYGVnx5EQgAAEIAABCEAAAhCAAAQgAAEIQAACdSCAgFUHyJwCAhCAAAQgAAEIQAACEIAABCAAAQhAIDsBBKzs7DgSAhCAAAQgAAEIQAACEIAABCAAAQhAoA4EELDqAJlTQAACEIAABCAAAQhAAAIQgAAEIAABCGQngICVnR1HQgACEIAABCAAAQhAAAIQgAAEIAABCNSBAAJWHSBzCghAAAIQgAAEIAABCEAAAhCAAAQgAIHsBBCwsrPjSAhAAAIQgAAEIAABCEAAAhCAAAQgAIE6EEDAqgNkTgEBCEAAAhCAAAQgAAEIQAACEIAABCCQnQACVnZ2HAkBCEAAAhCAAAQgAAEIQAACEIAABCBQBwIIWHWAnOYUEydOtFtvvdWeeeYZ+/bbb22uueay5Zdf3vr3729rrbVW4q4eeeQRe+mll2zBBRe0QYMGRR73448/2k033WQvvviijR071rp27WqbbLKJDRw40Nq3b1/2XE8//bTdeeedNmLECGvZsqUbn47p1atX4vHREAIQgAAEIAABCEAAAhCAAAQgAAEIJCWAgJWUVB3avfnmm7bddtvZqFGj3NlatGhhM2fOLJ35sMMOsyFDhsSO5PPPP7dVVlnFJkyYYD179rR333232TEvv/yybbvttjZ69Gj3WevWrW3atGnuv5dbbjl78sknrXv37k2O01j22WcfGzp0qPu7xCvZjBkz3H8PHjzYTjjhhNjx0QACEIAABCAAAQhAAAIQgAAEIAABCKQhgICVhlaObceNG2crrLCCi7pSFNRFF11kK6+8so0ZM8auu+46O+WUU5xQdPPNN9uAAQPKjkQi08Ybb2zPPfecE7+iBKzx48fbsssu68SrAw880E499VTr1q2bi6g66qij7P7777c111zTJHJJRPN2/vnn24knnmiLLLKIXXvttbbpppu6Md11112un59//tkeeugh22qrrXIkRdcQgAAEIAABCEAAAhCAAAQgAAEIzGkEELAaZMYvvvhiO/roo22ppZayt99+2zp06NBkZBKIrr76aicaPfHEE2VHfemll9qRRx5pO++8s91xxx2RApYipSSIbbbZZvb444836Wvy5Mm20kor2aeffuqELEVpyZTaKOFK4pdSDtddd90mx11//fUuOktphG+88UaDUGUYEIAABCAAAQhAAAIQgAAEIAABCMwOBBCwGmQWFWWlulWKvjrkkEOajWrYsGG2yy67OIFL4lKUffTRR05AUurfLbfcYn369IkUsFZbbTV76623mghUwf58pNVuu+3m+pHdd9991q9fv7IC1ZQpU1wNrZ9++sk++eQTW3rppRuELMOAAAQgAAEIQAACEIAABCAAAQhAoOgEELAKMoMqtr7HHnu41L5XXnml2ainT59u6623nr322mv2wgsvWMeOHV0KYjiFUJFUnTp1cumFKuLepUuXZn0pwmr99de3Hj162MiRI93nxx13nF144YWuIPxll10WSU3RYU899ZSrkbXnnnsWhCzDhAAEIAABCEAAAhCAAAQgAAEIQKDRCSBgNfoM/Xd8qiulCK2zzz7bpf+F7dxzz7WTTz7ZFVE/77zzXOH2KAFLkVeKwOrcubOp7laUff311y5dUIXZJXhpJ0RFXykK65JLLrEjjjgi8rj999/f1cY66aSTXEF3DAIQgAAEIAABCEAAAhCAAAQgAAEI1IIAAlYtKObch4++kqj0wQcfuAiqoL3zzju2xhpruN0DFYHVtm3bsgLW8OHDrW/fvrbkkkvaZ599FjlypQO2a9fOfSYxa+GFF7YNN9zQnn/+edNYBg4cGHmchCuJZxKyVK8LgwAEIAABCEAAAhCAAAQgAAEIQAACtSCAgFULijn2oRpUe++9txOlJD6prlXQpk6d6v723nvvuV0DVQNLVi4CS7sEbrPNNm7Hw/fff7/syBV9pTRDX89KAtnrr79uqsWlAvFRdtZZZ9npp59uwdpZOaKhawhAAAIQgAAEIAABCEAAAhCAAATmEAIIWA080WeeeaadccYZNu+889qDDz7o6lKF7dRTT7VzzjnHJB7pv72VE7Aee+wx22KLLWyZZZaxjz/+OPLqZ8yYYa1atXKfffHFF7bYYovZ2muv7QSyW2+91XbdddfI4/xY9tprL9OuhGlNAhkGAQhAAAIQgAAEIAABCEAAAhCAwKwl0Lt371k7gIizI2A13JSYTZo0ySQC3X777bbEEkuYoqZWXHHFZiNVuuA666xjq6++uqnweuvWrWMFrJdeeskVe1daoNIDo2z8+PFONJONHTvW/fdmm21mTz75pEsNVIpglB155JF26aWX2uGHH+7+ncYQr9LQoi0EIAABCEAAAhCAAAQgAAEIQCBfAo0mYiFg5TvfqXtX0fTNN9/c7SQooenee++1rl27RvazyiqrmOpfHXvssa6mVdAkTqnge7du3UqRWYqcUv/6m1IEJZS1adOmWd/qU33PN998NmbMGPf5AQccYNdcc43rS9FeUbbDDjvYPffcY0OGDLHDDjss1bV7AavRFkj4IooyTj9uxpvKDVM3LgrfoowTv03tgpkOKIo/FGWc+G0mN0x9UFH8oSjjxG9Tu2CmA4riD0UZJ36byQ1TH1QUfyjKOPHb1C5Y8QAErNryrKq3yZMn29Zbb21PPfWU7bTTTnbzzTeXiqlHddyxY0cnSCU1X89qwQUXtNGjR9urr77qir+HbejQoa7u1sYbb+zqbsmuuOIKO+SQQ0y7ISoiLMp69Ohho0aNsmeffdYVfU9jRbkBFWWc3CjTeF/2tkXxh6KME7/N7otpjiyKPxRlnPhtGu/L3rYo/lCUceK32X0xzZFF8YeijBO/TeN92dsWxR+KMk78NrsvRh2JgFVbnlX1ts8++7jaUf369bM777yzVIeqXKfPPPOMTZs2LfLjkSNH2n777WeLL764XXvtta6NIrrat2/v0hNvuOEGO+GEE9yugWFTjSzVyrrkkkvsiCOOcB+rP6Uz6vivvvrKRWcFTfWxVCerS5cu9t133zVJZ0wCpSg3oKKMkxtlEq+rvk1R/KEo48Rvq/fJJD0UxR+KMk78NonXVd+mKP5QlHHit9X7ZJIeiuIPRRknfpvE66pvUxR/KMo48dvqfTLYAwJWbXlm7k1RV5tuuql1797d7Q6o6KpqrFwRd/X55ptvurpZEqNUO2u11VYrneqOO+6w/v37O4FqxIgRpVpYaiBh7b777rMBAwbYjTfe6NIQZRMmTLC+ffvaK6+8Yio8f9ppp6UeelFuQEUZJzfK1C6Y6YCi+ENRxonfZnLD1AcVxR+KMk78NrULZjqgKP5QlHHit5ncMPVBRfGHoowTv03tgpkOKIo/FGWc+G0mNyx7EAJWbXlm7s0XSVe9K+36V8kkIi266KIV21QSsHTgySefbOeee64TsXbccUdT+p+OeeCBB2zmzJk2bNgwl8YYtC+//NL69Olj3377ra266qquVteUKVPs7rvvdqmDa665pksfVJ9prSg3oKKMkxtlWg/M1r4o/lCUceK32fww7VFF8YeijBO/TeuB2doXxR+KMk78Npsfpj2qKP5QlHHit2k9MFv7ovhDUcaJ32bzw3JHIWDVlmfm3lSLyi/CuE58LatK7eIELIlUV155pQ0ePLjJboQ9e/a0iy66yIlTUaZUwkGDBtmjjz5q06dPd006dOhgAwcOtAsuuMDmmWeeuOFHfl6UG1BRxsmNMpMbpj6oKP5QlHHit6ldMNMBRfGHoowTv83khqkPKoo/FGWc+G1qF8x0QFH8oSjjxG8zuWHqg4riD0UZJ36b2gUrHoCAVVuehettxowZ9tlnn9m4ceNsoYUWcimMSUy7E0rM0i6GSy21lBOxqrGi3ICKMk5ulNV4Y/Jji+IPRRknfpvc96ppWRR/KMo48dtqvDH5sUXxh6KME79N7nvVtCyKPxRlnPhtNd6Y/Nii+ENRxonfJve9JC0RsJJQok3uBIpyAyrKOLlR5u6y7gRF8YeijBO/xW+DBPDbfP0BvvnwhWs+XH2vbz/8oE1dqJv17t073xPVqPei+ENRxsnvhBo5Zkw3RfGHoowTv62t3yJg1ZYnvWUkUJQbUFHGyY0yoyOmPKwo/lCUceK3KR0wY/Oi+ENRxonfZnTElIcVxR+KMs4i+u3E6/5iv/ztRjf0Vgt1s9bLrmCtl13+P/9eallr2XnelF6Vf/Oi+ENRxllEv9WY4ZvPWoNrPlwbfZ0hYOU77/SekEBRbkBFGWej33jKuQV8Ey6YlM3gmhJYyubwTQksYXO4JgSVsRl8M4KLOQyu+XCd8Jc/2a/3DqvYeYt27f4raknYkqi1jLXusYRZi//smj0rrCj+UJRx8vu2Pl5cFH8oyjjx29r6LQJWbXnSW0YCRbkBFWWc3CgzOmLKw4riD0UZJ36b0gEzNi+KPxRlnPhtRkdMeVhR/KEo4yyS3/588bk26ZH7UnrM/5q3WnQxF6nVZpkVrNV/Ra2W83fN3F+aA4viD0UZZ5H8Nugn8E2zapK3hWtyVllaNipfBKwss8kxNSfQqAskfKFFGSdf8DV30cgOi+IPRRknfovf8oO/Pj6gs3BfyIc1XGvIdeZM++n8023y3x+rYaf/6apFh7ldlFabZVewVksu7SK1WvVYwlq0bVfTcxXFH4oyTn4n1NQ9y3ZWFH8oyjjx29r6LQJWbXnSW0YCRbkBFWWc3CgzOmLKw4riD0UZJ36b0gEzNi+KPxRlnPhtRkdMeVhR/KEo42x0v505aZL9fP5pNvmFZ5p4ypRFF7Mf++9lPVdeyaZ9/KFN/fgDm/bff3RMtSYRy4laS/xP1FK9raxWFH8oyjgb3W/L+Ql8s66gysfBNR+ujb7OELDynXd6T0igKDegooyz0W88fMEnXBg1aobf1ghkmW7gmw9fuObDle8HuAYJNOI6mzF+nBOvprz6zyaT1WaVXvbFVjvatHm7RO5COPOXiTb1o/dLgpYErunffFX1hLecp7OL1mq1+FKlSC1FbLWYu2Ns343IN2rQRRkn969Yl6tJg6L4Q1HGid/WxC1LnSBg1ZYnvWUkUJQbUFHGyY0yoyOmPKwo/lCUceK3KR0wY/Oi+ENRxonfZnTElIcVxR+KMs5G9dsZo7+1n8473aa+868mHtJ2zXWs04ln2r8++cz9vXfv3ok9aPqoz23qh/8TthS1ZdOmJT6+XEMViS+JWost8R9xq3uPJs2L4g9FGWej+m2cM8E3jlC2z+GajVvSoxqVLwJW0hmkXa4EGnWBhC+6KOPkCz5Xdy11XhR/KMo48Vv8NkgAv83XH+CbD1+4Zuc6/cuRTrxSSmDQ2m2wiXU64UzTLoO14uuitT5416Z9+F4pFXHG999lH/x/j2w53/zWanGJWUu6mlqfTZpqUxdc2HptuFHVfefZQa245jlGvh/qRbc4NRLx23x9olH5ImDlO+/0npCAXyAJm9MMAhCAAAQgAAEIQGA2IdD2qy/tN7f91Vr/MLrJFU1cfS37sf+edbvKNqO/tbajPrd2X35ubf89ytr++4uanPvr48+xaV3mr0lfdAIBCECgngTSRLzWY1wIWPWgzDliCSBgxSKiAQQgAAEIQAACEJjtCLQb+Zl1vfFKa/nLxCbXNmHtDW1Mvz/M8uttOXnSf0StUSOtrRO2vrBWP/+Ualy/rriqfb/HgamOoTEEIACBRiCAgNUIs8AYGo5Ao4YohkEVZZx+3Iw3X1cvCt+ijBO/zddfi8YXv83XH+CbD1+4puM65fWXbfwJh5nNnNnkwPY77WYdDzi8WWeNxNfV1vrgPZv2wbs29cN3bdqnH1e8+E7HnGJzbb5tOkB1at1IXJNcMuNNQil7m6LwLco4i/b7q9HHSwRW9rXNkTUkUJQbUFHG2eg3nnKuA98aLqpAV3DNhyvrDK5BAqwz/EEE8IPkfjD5pWftp9OObXZAhwH72Nx7HhDZUaPzDdbWmjT8cZv+xeel62jRoYN1ueV+066GjWaNzjXMi/Hm60FF4VuUcfJ7sbb+ioBVW570lpFAUW5ARRknN8qMjpjysKL4Q1HGid+mdMCMzYviD0UZJ36b0RFTHlYUfyjKOGe1305++gn7afApzbxg7n0PtQ677F7WO4rEd9rnn9nY/ZqmQM71uy1cQfpGsyJxRSjO33uK4g9FGeesvt9m9ZhG5YuAlXVGOa6mBBp1gfDGp6bTHNtZUfygaF9EcI11vaoawLcqfLPFgyoPVPn4QLDXoqyzooxzVn6PTXr0Afv5T+c0c5qOhx5j7bffuaIzFY3vZ4NPs3mefqzJNc1z2nnWbsO++S+aFGcoGlfGm2JyMzQtCt+ijHNW3m8zTH/pkEbli4BVzaxybM0INOoCQcCq2RQn6qgoflC0LyK4JnK/zI3gmxndbPWgih/k4wfcb2cvrr/ed4dNuPyiZheVtD5UEddZt/NPsdZjfyxdc8vfdLUuN91rLdq2zXdyU/ReRK66vEYrLl0OOXxTOGOKpnBNAStD00bli4CVYTI5pPYEGnWBIGDVfq4r9VgUP+CBKl+/wA/gKwL4AX4QJFAUfyjKOGfF99gvw26yidde3syx5zl5sLXbeNNEDl9Evu1GfW4L/uWCJtfXfpsdrOPhxye65no0KiJXBKz8PKMo/lCUcc6K+20tvKNR+SJg1WJ26aNqAo26QBCwqp7aVB0UxQ+K9kUE11RumLoxfFMjS3QAXBNhytwIvpnRVTwQrtF4Jt50rf1y07VNP2zR0jqfdaG1XWeDxJNRVL7L/fMZ+/XeYU2us/N5Q6ztmuskvvY8GxaVKxFY+XhFUfyhKOMs2nNDo48XASufdU+vKQkU5QZUlHE2+o2nnHvAN+XCSdgcrglBZWwG34zgYg6Daz5c+X6Aa5BAPdbZxGv+bL/ccXMT8C06drLOp59vbXqtmWpC6jHeVANKcR/7cYfNbMb4caUjWnXvYV2G3lnL02Xuq8hcM190HQ+Ebz6w4ZoP10b/nYCAle+8p+594sSJduutt9ozzzxj3377rc0111y2/PLLW//+/W2ttdYq298bb7xht912m7333ns2efJkW3DBBW2DDTawAQMG2DzzzBN53I8//mg33XSTvfjiizZ27Fjr2rWrbbLJJjZw4EBr37592XM9/fTTduedd9qIESOsZcuWbnw6plevXqmvt9EXSPiCuFFmnuJEB8I3EabUjeCaGlmqA+CbClfixnBNjCpTQ/hmwhZ7EFybIpow5Hz79cF7mvyx1YILWadTzrU2K6wUy3N2+h029V+v2bhjD25ySR36725z73doag61PgC/rTXRpv3BNx++cM2Ha6M/nyNg5TvvqXp/8803bbvttrNRo0a541q0aGEzZ84s9XHYYYfZkCFDmvSpz4888sgmfw8et+iii9ojjzxiK6+8cpPjXn75Zdt2221t9OjR7u+tW7e2adOmuf9ebrnl7Mknn7Tu3bs3O9c+++xjQ4cOdX+XeCWbMWOG++/BgwfbCSeckOqaG32BzE4/nDJNTJ0P4osoH+BwzYdr0e5fRRsvfovfBgkUxR+KMs563A9+Ovskm/zsU00cufUSS1unk84y/TuLFZ3vz38ajAgKZAAAIABJREFUbJMevb/Jpc875K/WpucqWXDU7Jiic60ZiJw6gm8+YOGaD9d6fD9UM3IErGro1fDYcePG2QorrOCirhQFddFFFznRacyYMXbdddfZKaec4oSim2++2UVVeTv//PPtxBNPtA4dOtiFF17oIrU6derkit8eeuihpsisZZdd1t5//31r1aqVO2z8+PHubxKvDjzwQDv11FOtW7duLqLqqKOOsvvvv9/WXHNNk8glMSx8rkUWWcSuvfZa23TTTd2Y7rrrLtfPzz//bA899JBttdVWqckU5QZUlHE2+o2nnIPAN/XSSXQAXBNhytwIvpnRVTwQrvlw5fsBrkECuayz6dNt/ImH25Q3XmkCu82KK1unE86yVt0WyTwJuYw382jiD4wa7w9bbWgzJ08qHdx6uRVtvr/cEN9Zji1mB6454qm6a/hWjTCyA7jmw7XRfycgYOU774l7v/jii+3oo4+2pZZayt5++20nSAVNAtHVV1/tRKMnnnjCfaSIKaUKSuTSZ/vvv3+TY7788ktbcsklXTulCa677rruc0VKSRDbbLPN7PHHH29yjNIPV1ppJfv000+dkKUoLZlSGyVcSfwK9uUPvv76603RWUojlGiW1opyAyrKOBv9xlPOP+CbduUkaw/XZJyytoJvVnKVj4NrPlz5foBrkECt19nMXybauKMPsmmffNgEdNvV+1inE860ll3mr2oCaj3eqgaT4OCo8U75x/M2/tSjmxw9914HWofd9k7QYz5NZgeu+ZCpTa/wrQ3HcC9wzYdro/9OQMDKd94T964oK6X6KfrqkEMOaXbcsGHDbJdddnECl8Ql2ffff2/HHHOMfffddy4KqmPHjs2OU1TXhx9+2CRya7XVVrO33nqriUAVPNBHde222252yy23uI/uu+8+69evX1mBasqUKa6G1k8//WSffPKJLb10utDwotyAijLORr/xlFsY8E18y0jVEK6pcKVuDN/UyBIdANdEmDI3gm9mdBUPnJO5zhg7xsYN2tumf/t1E0Zt193Q5jnhTGvRYe6qoc8ufH8afIpNfvo/L6S9zXfNbdZ6yXS/n6sG+t8OZheuteJR637gW2ui/+kPrvlwbfTnSASsfOe9Zr2r2Poee+zhUvteeaVpSHalkygC6/PPP7eHH37YttxySxdJpRRD1c5SEfcuXbo0O1wRVuuvv7716NHDRo4c6T4/7rjjXIrioEGD7LLLLos8paLDnnrqKVcja88990x17UW5ARVlnI1+4ynnHPBNtWwSN4ZrYlSZGsI3E7bYg+Aai6iqBvCtCl/Zg+dUrhKtxh4wwGZOnNCETbtNfu/EK/tv3dRqqc8ufJVCqFTCoLXptYbNe+EV1SLKdPzswjXTxdfhIPjmAxmu+XBt9OdIBKx8571mvauulCK0zj77bJf+l8ReffVV69Onj9uF8Ouvv7a5557bRV4pAqtz586multRprZKF1Rhdgle2glR0VeKwrrkkkvsiCOOiDxOKYyqjXXSSSe5NMU0VpQbUFHG2eg3HgSsNKuj+rb4bfUMK/UA33z4wjUfrnw/wDVIoBbrbNrIETZ2312agZ1ri+2s09En1xR4LcZb0wHFdFZpvJOfftJ+GtyUT8dDjrb2/frXc4juXLMT17rDS3BC+CaAlKEJXDNAS3FIo/JFwEoxibOqqY++kqj0wQcfuAiqOJswYYKtt956rp6W6mtpp0LZ8OHDrW/fvq421meffRbZjdIB27Vr5z6TmLXwwgvbhhtuaM8//7xpLAMHDow8TsLVeeed52pxqSZXGmvUBRK+hqKMkweUNN6XvW1R/KEo48Rvs/timiOL4g9FGSd+m8b7srctij8UZZy18ttpH71vYw9pHnUvEUZiTK1tduM7/rRjbMpLz/0PU4sW1uWme6zVwtkL3WdhPrtxzcIgz2Pgmw9duObDtVbfD3mNDgErL7I16lc1qPbee29r27atE58UURVnSg3cfvvt7YUXXrCddtrJVD/L7yaoXQK32WYbt+OhdiYsZ4q+Upqhr2e1xhpruLcz6mvnnXeOPOyss86y008/3YK1s+LGGl4gSdvTDgIQgAAEIAABCEBg1hFoN+ITW/Dqi5sN4KeNf2/jNt9+1g2sQGduOXGCLXrWsU1G/GvPVe373Q8s0FUwVAhAYHYm0Lt374a6PASshpqOpoM588wz7YwzzrB5553XHnzwQVeXKs4kOCndUP9W0XdFTLVp06Z02GOPPWZbbLGFLbPMMvbxxx9Hdjdjxgxr1aqV++yLL76wxRZbzNZee217+eWX7dZbb7Vdd9018rhTTz3VzjnnHNtrr71MuxKmMa+gpzmGthCAAAQgAAEIQAAC9Scw10fv2QLXX97sxON/v62N32SL+g+owGfs+OpL1uWum5tcwY87DbSJa/xn93AMAhCAwKwkgIA1K+kX5NyTJk1yItDtt99uSyyxhClqasUVV4wdvSK0dtxxRxs7dqwdf/zxLp3PR175g1966SWXWqi0QKUHRtn48eOdaCZTX/rvzTbbzJ588kmXGqgUwShTmuKll15qhx9+uPt3GitKCGhRxunZM940Xpi+bVH4FmWc+G16H8xyRFH8oSjjxG+zeGH6Y4riD0UZZzV+O/m54fbTWSc0m8SOBx1h7XeIfsmZfsajj5hd+Y4/7hCb8sarpYvWjo1dbrzbWs7XfLOlWrEM9jO7cs2DVZY+4ZuFWvwxcI1nVE2LRuVLBFY1s5rDsSqavvnmm7v0PwlN9957r3Xt2jX2THfffbeLuFLq3zXXXON2LIyyb775xrp16+baSSgLRmf59u+8846tssoqNt9889mYMWPcnw844ADXr6KslCoYZTvssIPdc889NmTIEDvssMNix1zEL85GXcjlYDPeVG6YunFR+BZlnNU8UKWevBoeAN8awgx0Bdd8uLLO4FrN769JD99rP19yXjOInY440ebaul++cGfjYuPTv/vGxuy2XRN+c/1uC+ukHRzrYNxv84UM33z4wjUfro3+OwEBK995T9X75MmTbeutt7annnrK1a66+eabS8XUK3X06KOPuppXKryuVMONNtqo4nkXXHBBGz16tGmXQtW2CtvQoUNd3a2NN97Y1d2SXXHFFXbIIYe49ERFhEVZjx49bNSoUfbss8+6ou9prCg3oKKMs9FvPOV8A75pVk3ytnBNzipLS/hmoRZ/DFzjGVXTAr7V0Ct/7OzM9Zfbb7SJf/1Ls4uXyCKxpR42O/P99b47bMLlFzXBOM9p51m7DfvmjnZ25po7vAQngG8CSBmawDUDtBSHNCpfBKwUk5h303322cfVjurXr5/deeedpTpUlc770Ucf2eqrr27Tp093YtO668bnyys98YYbbrATTjjBpRmGTTWyVCvrkksusSOOOMJ9PHLkSJfO2L59e/vqq69cdFbQVB9LdbK6dOli3333nbVu3ToVrkZdIOGLKMo4/bgZbyo3TN24KHyLMk78NrULZjqgKP5QlHHit5ncMPVBRfGHoowzrd9OvPbP9suwpnWa1Mc8Z/zR2q2/cer5zHrA7MrX8xh32D429f13Snha/mYB63LDndZirvZZkSU6bnbnmghCjo3gmw9cuObDNe33Q76jaN47Ala9iZc5n6KuNt10U+vevbvbHbBjx46JRrbBBhu4dMM0aXtvvvmmE70kRr344ou22mqrlc51xx13WP/+/Z1ANWLEiFItLDWQsHbffffZgAED7MYbb3RpiLIJEyZY37597ZVXXjEVnj/ttNMSjT3YqCg3oKKMs9FvPOUcBL6pl06iA+CaCFPmRvDNjK7igXDNhyvfD3BN+/vr5z8NtkmP3t8MXOfzL7O2a6ydL9BQ77P7fWHaFyNs7D67NLnq9tvuaB0POy5XzrM711zhJegcvgkgZWgC1wzQUhzSqHwRsFJMYp5NfZF01bvSrn+VTCLSoosuar4gu9quuuqqFaOettxyyya1q04++WQ799xznYilwu9K/3v33XftgQcesJkzZ9qwYcNcGmPQvvzyS+vTp499++237nyq1TVlyhRT/S2lDq655poufVB9prVGXSDh6yjKOHlASeuB2doXxR+KMk78Npsfpj2qKP5QlHHit2k9MFv7ovhDUcaZ1G9/OuN4m/zC080mbd5Lr7E2K/3vBWi2WU1/1OzGN4pAVKpm53OHWNs+66QHlvCIOYFrQhS5NINvLlgNrvlwTfr9kO/Zy/eOgDWryIfOq1pUfhHGDemTTz6xpZde2tWi2mabbeKau8932203u+WWW0ptJVJdeeWVNnjw4Ca7Efbs2dMuuugiJ05FmVIJBw0aZKq7pbRFWYcOHWzgwIF2wQUX2DzzzJNoPOFGRbkBFWWcjX7jKeck8M20fGIPgmssoqoawLcqfGUPhms+XPl+gGuQQKV1Nu7og2zqW683Aabd8eb901XWepnl8gVZpvc55b4wdv9dbdqIT0sUWi22uHW5/o7cmM8pXHMDGNMxfPMhD9d8uDb67wQErHznveF7nzFjhn322Wc2btw4W2ihhVwKYxLT7oQSs7SL4VJLLeVErGqsKDegooyz0W88CFjVrJb0x+K36ZmlOQK+aWglbwvX5KyytIRvFmrxx8wuXMMCiq68ZdcFbd4LLrdW3XvEg8ipxezCNw7PtA/ft7GH7tmkWYdddre59z007tBMn88pXDPBqcFB8K0BxIgu4JoP10Z/jkTAynfe6T0hgaLcgIoyzka/8SBgJVwYNWqG39YIZJlu4JsPX7jmw5XvB7gGCUStsx//sLXN+H50E1CtF1/SOp83xIlYs9LmpPvCxBuutl9uua4J7nkvucbarFz71M05ieus8F/45kMdrvlwbfTfCQhY+c47vSckUJQbUFHG2eg3HgSshAujRs3w2xqBRMDKF2Sod/w2X9zwzYdvkbnOnDrVfty+r82cPKkJnDYrrmydB19iLTplKxNRS9JF5puFw5jd/8+mf/3v0qGtl+9p810+NEtXFY+Z07jWHGBMh/DNhzhc8+Ha6M+RCFj5zju9JyRQlBtQUcbZ6DceBKyEC6NGzfDbGoFEwMoXJAIWfCsQKMp9rCjjDP9OWH25Ze2H7fs2m4G2a65j85x5obVo27au/snvhP8QmPrm6zbumIOa4Jh774Osw6571XQ+iuq3vXv3rimHvDqDbz5k4ZoP10Z/jkTAynfe6T0hgaLcgIoyzka/8fDDNOHCqFEz/LZGIBGw8gWJgAVfBKy6+oBOpu+H1j9+b90uOK3Zudv99nc2zynn1n1MlU44J36fTbjqUvv1rtuaYJnvyptrWkh/TuRaT8eGbz604ZoP10Z/jkTAynfe6T0hgaLcgIoyzka/8SBgJVwYNWqG39YIJAJWviARsOCLgFVXH9DJ3rn/Hlvoz+c3O+9cW25vnY46qe7jiTvhnPh9NnPKFBszYDubMebHEp62vda0zhf+JQ5X4s/nRK6J4dSgIXxrADGiC7jmw7XRnyMRsPKdd3pPSKAoN6CijLPRbzwIWAkXRo2a4bc1AomAlS9IBCz4ImDV1QemvP6yjT9+ULNztt9pN+t4wOF1HUvSk82p32dT/vmCjT/lqCaYOh58lLX/v12SoqvYbk7lWhN4CTqBbwJIGZrANQO0FIc0Kl8ErBSTSNP8CDTqAglfcVHGiYCVn68Gey6KPxRlnPgtflvE9YXf4rdF9NvJz/3dfjrrxGaT12Hgvjb3HvvXZ1IznGVO/j6bcOn59utD9/yPWosW1mXondZq0cX+n73zgJKi6Pb43ZwjIElABEEykgxgQIIoWUCUJDlKFJAsIElyEBBQoqAEERAFBMUECvgQBQMiSFCSwOac3qni23Vne2a7q7prti/cOuedx7dzb/W/f/WvmplrdY0ESceUu5mraXgGOiC+BiBJhBBXCWgCKXblSwUsgUGkUHUE7DpBqIClbsyd9YzFB9i+sBJXtT4mvmr4Elc1XLGtX9j0YvBt8p6dEDdvusZgQX0GQ2DHrmqNZ7J3DHxVFTQzY2PgVpc2kJWYkHMJv/pPQeiU2Sap3j4LjTU6FN00SqcdEF/iygiQD6zxARWwrOFIvZgkgGVCY9GJ7QM/6TU5gXTSybfEV9UXKpVkybcq6dIHaVV07e7bpK0bIX7FIs3tBw8eBQGtO6jCYlm/dueb90at1pvy5QGIneZ4NlnIq+PB/9nWphhbrdOUGAPJpNcAJBMhWPhi0Unfc0yY0UkqFbCs5Um9SRLAsgBh0UkLpaQRBdOw+AGLTvKtoAElw7H4AYtO8q2kEQXTsPjBzjoT1q6AxPfe1ZC/2aEbPNjvFcERKZhwO/N1RkSF3rhZr0PygT05l/MICobIdzeDZ+Ei0oOiQqe0GAOJpNcAJBMhWPhi0UmfE0yYkQpY1sKj3qwjkL0AWdcj9UQEiAARIAJEgAgQASLACETs2gIhhw5qYNzo3BsSq9cmSIgIeEVHQck3JwBkZuaoTqj1MNzs2B3RXZBUIkAEsBCw26PFtAMLi3PucJ1UwLrDB5hujwgQASJABIgAESgQAoW2rIOg//tec+1/uw+EpErVCkQTXdQcgaAfDkOhrRscOrnRqRck1qhjrmPKJgJEgAjkIUAFLLIEEXBCAMsWUCw6sxGTXrXTDQtfLDrJt2r9io0v+VatH4ivGr524xr7+ihIOfSV5mbD5y4Hn5q16VBhNTbI6VWlH2InvwYp3/63q86zyD0Q+c4HwB4pFG0qdYpqMRJPeo1Qko/BwheLTmyfv+yul3Zgyc9tyrSQAJYFCItOuy88rqxDfC2cVLm6Iq5quNI8I665CdA8Iz8wAnbyQfTIAZB24vavy+VuEW+tAe8Hq/A/2UmvEQeR3v8oZVw8D7d6vuCALaBVewgeMtoISocY4iqMTCiB+ArhMhxMXA2jkgq0K18qYEkNJyVZTcCuEyTvfWLRSV+srXao8/6w+AGLTvIt+ZYKQu7xABUu1HG2y3obNaArpJ85rS1evfM+eN9XLufvdtFrdERIryOppB1bIP6tuQ5/DJs2D3wfedwoUipkCpGSCybfynHTyyKueoTMvW5XvlTAMjeulG0RAbtOECpgWTTABrvB4gNshRbiatCAkmHEVxKcThpxVcMV2/qFTa8dfHurW1vIuPyPg4E8AgIgYtX74FWshMPf7aBXxOmkV0srZuwQSD323xlnXqXLQuSqTQBeXobRElfDqKQCia8UNt0k4qqLyFSAXflSAcvUsFKyVQTsOkGogGXVCBvrB4sP6AuVsfGUjSIfyJIzloeFLxad2NYD0mtsnshGFbRvbz7fFDJjox3kexYqAhFvbwDPiEjNbRW0XlHOpFdLLP2P3yBq4MsOLwR27ApBfQYbxktcDaOSCiS+Uth0k4irLiJTAXblSwUsU8NKyVYRsOsEoQKWVSNsrB8sPsD2BZC4GvOfbBTxlSWXfx5xVcMV2/qFTW+B+TYzE/59tgFARrqDcbxK3wcRS9eCR0CgU0MVmF5Je5Ne5+ASP1gPCe+85fBi9kH9RlATVyOU5GOIrzy7/DKJqxqudn/fpQKW2nGn3g0SwLIAYdFp94XHlS2Ir8EJIxhGXAWBCYYTX0FgBsOJq0FQkmHEVxKcTlpBcM2Ki4UbbRtrlPlUqgrhi98F8PBwqbog9JohT3pd04se3hfSTp7ICWAH9bMD+4004mqEknwM8ZVnRwUsNeyM9GpX31IBy8jouTEmISEBNm7cCF9++SVcvXoV/P394cEHH4SOHTvCww8/7FLJ6dOnYf369XDy5ElISkqC0qVLQ5s2baBly5Yuc27evMlzDh06BFFRUVCkSBF4+umnoWvXrhAQEOAy7+DBg7B161Y4d+4ceHp6cn0s56GHHpImZdcJkveGsOikApa0FYUSsfgBi07yrZD9pIOx+AGLTvKttBWFErH4wd06M65ehltd2mhY+tZ+GMLeXKLL2N16dQXpBJBe14DSfv4Rokf0cwgIerkvBHbtrYuduOoiMhVAfE3hc5lMXNVwtfvnGipgqR13od5PnDgBrVu3hosXL/I8Dw8PyMrKyuljyJAhsGjRIk2fK1asAPZaamoqf83b2xvS029vIWf9sWKTj4+PQ96RI0egVatWcP36dU1OxYoVYf/+/VCqVCmHHKalV69esGbN7f+aw4pXrGVmZvJ/T58+HcaMGSN0z3afIHlvhhZKqeE1nER8DaMSCiSuQriEg4mvMDJDCcTVECbpIOIrjS7fRHdyTf/zD4jq30Wjx++JRhA6aaahG3SnXkOCdIJIb/6AEtaugMT33nUIYo+QelesbBvfkg+sIKC2DyzzDItObN937a6XClhq57/h3qOjo6FSpUp81xXbBTV37lyoVq0a3Lp1C959912YMGECLxRt2LABunT578MK2z31xBNP8KLVvHnzoHv37hAYGAisQNWzZ0/4/fffYeTIkTBnzpwcLTExMVChQgVevOrfvz9MnDgRSpQowXdUjRgxAnbu3Al169blfbAiWnabNWsWjB07FkqWLAmrVq2CJk2acE3btm3j/cTFxcHu3buhefPmhu/b7hOECljCQ2kqgd6ITOFzmUxc1XDFtn5h00u+Jd/mJoDFD+7SmfbTcYh+tb/GJP7PtoKQVycYNo+79BoWRAUsc6jS0yFqcA9IP3M6px/fWvUgbLbj+Vj0+dYcZtFsmmeixIzFE1djnGSj7MqXCliyI2px3vz58+HVV1+FcuXKwc8//8yLULkbKxCxnVasaPTZZ5/lvMT+94EDB/jup3Hjxjnk/PHHH1C5cmW+++rChQtwzz338NdZLCuINW3aFPbt2+eQk5KSAlWrVoU///yTF7LYLi3W2KONrHDFil+saPbYY4855K1evZrvzmKPER4/flyYjl0nCL3BCw+lqQQsPqBCgKlh1k0mH+giMhWAhS8WndjWA9JravroJrvDt6mHv4aYSSM1WgLavQTBA4braswd4A69QoJ0gkmvPs3Uo4chZtwwh8Dg/kMhoH1nl8nEVZ+rmQjia4ae61ziqoar3T8nUAFL7bgb7p3tsvr000/57qtBgwZp8jZv3gwvvvgiL3Cx4hJr7AyrokWL8n//+++/EBERoclr1qwZL1KxHVO9e99+Br5mzZrw008/ORSocidm77Tq3LkzvPfee/ylHTt2QNu2bV0WqNjji+wMrdjYWDhz5gyUL1/e8L2zQCwLEBaddl94XJmD+ApNG8PBxNUwKqlA4iuFTTeJuOoiMhVAfE3hc5msmmvy/k8h7s3JmusHdusDQd36CN+Uar3CgnQSSK8xovFvL4SkbZv+C/b0hMhV74NXmbJOOyCuxrjKRhFfWXL55xFXNVzt/j2SClhqx92y3tlh6y+//DJ/tO/o0aO8X1bwYo/rsUcN2a4tZy17txXLXbt2Ld9JFRISws/WYgWwyMhITRrbYdWgQQMoU6YMnD9/nr8+evRo/hji4MGDYfHixU6vlb0bjJ2RxR5lFGlYFiAsOu2+8LjyBvEVmTXGY4mrcVYykcRXhpp+DnHVZ2Qmgviaoec6VyXXpB1bIP6tuZqLBw8YBgHtOkndkEq9UoJ0kkivMapZ8XEQNbgnZFy6kJPg99iTEDr1vyNFcvdEXI1xlY0ivrLk8s8jrmq42v17JBWw1I67Zb2zQhUrWL3xxhv88T/W2IHuw4YN4we1sx1SztqmTZuA7aRij/yxwhTbecV2YIWFhQE7d8tZu3z5Mn9ckB3Mzgpe7JcQ2e4rdo0FCxbwazprffv25Tu92KOMrHAm0rAsQFh02n3hceUN4isya4zHElfjrGQiia8MNf0c4qrPyEwE8TVDz3WuKq6JG1dDwpq3NRdm512xc69kmyq9snr08kivHqH/Xk/5+nOInTrWISFk2Bjwb/G8phPiapyrTCTxlaGmn0Nc9RmZibArXypgmRlVN+Vm775iRaXffvuN76BibdKkSbygxQ5rZ48gOmvsvKxnnnmGH9p++vRp+OKLL6BRo0Zw//33w9mzZ53msMcB/fz8+GusmFW8eHF+UPw333wDTEvXrl2d5rHC1cyZM4EVsth5XSLNrhMk7z1g0Zmtm/SKuFA8FgtfLDrJt+IelMnA4gcsOsm3Mi4Uz8HiBxU6E1YuhsQtt490yN3YLw2yXxw001ToNaNHL5f06hFyfD1u4UxI3v1Rzh89goMhYsUm8CpazCGQuIpxFY0mvqLEjMUTV2OcZKPsypcKWLIj6qY8dgYVK1D5+vry4lO9evVyrsx+XZD98uCAAQNg2bJlThV9/fXX8OSTT/IdVX///Tf/lcCWLVvyXzz89ddfXd4F233FHjPMPs+qTp06/JwqdhbXCy+84DRv6tSp8Prrr/MdX9lnZxnFZNcJklc/Fp30hcqo88zFYfEDFp3kW3N+NJqNxQ9YdJJvjTrPXBwWP1itM27BDEj+RLvLPmzWEvCt87A5qIjOIKV5JjfUmTeuQ9TgXpD577WcDvwaNYPQsVOpgCWHVCrL6nVBSoRAEha9WHTS+iVgPgOhVMAyAKmgQqZMmQKTJ0+G8PBw+Pjjj/m5VLnbmDFj4M0334Q+ffrAypUrncr8/PPPoXHjxlC2bFk4d+4c7N27F5599ll44IEHgP1KobOWmZkJXl5e/CX264WlS5eGRx55BI4cOQIbN26ETp2cn7MwceJEmDZtGvTo0QPYrxKKtOwFSCSHYokAESACRIAIEAEicKcSKLzxHQj8+f80t3dtwEhIua/cnXrbdF8WEwj6v++h0JZ1Dr3efLEHJDz0338Ut/iS1B0RIAJ3EIHatWvb6m6ogGWr4bgtJjk5mReBPvjgA154YrumKleurFE6Y8YMGD9+PLz00kvAzrpy1nbu3Alt2rSBGjVqwIkTJ+Dw4cNQv359/lggezzQWYuJieFFM9aioqL4v5s2bQr79+/njwayRwSdteHDh8PChQth6NCh/P+LNCpgidCiWCJABIhs/A1vAAAgAElEQVQAESACROBOJnDPu0vA/w/tTvmrQ8dBaolSd/Kt070pIFDogzUQ9OPtH4FiLSM8Aq4MHQ+ZgUEKrkZdEgEicCcRoALWnTSaCu6FHZrerFkz+Pbbb3mh6aOPPoIiRYo4vdL777/Pd0M9/vjjwB4VdNaWLFkCQ4YM4Yewb9++Ha5cuQIlSpTgB7SzQpmPj48m7eTJk1C9enWIiIiAW7du8df79evHd3mxXVbsUUFnrV27dvwa7HB5dk2RhmULKBad2exJr4gLxWOx8MWik3wr7kGZDCx+wKKTfCvjQvEcLH6wQmf04J6Q9tspDaTItdvA697S4vDyybBCr6WCdDojvXK0M/6+yH+VMCsuNqcD/+ZtIWT47UPeiascV6NZxNcoKbE44irGSzTarnxpB5boSCqMT0lJgRYtWsCBAwegQ4cOsGHDhpzD1J1dlp1hVaVKFQgNDeU7pVhRKm97+eWX+cHr7HFEdug7a0WLFoXr16/DsWPHgJ1tlbetWbOGn7vVsGFDfu4Wa+yMrUGDBgH7NUS2I8xZK1OmDFy8eBG++uorfui7SLPrBMl7D1h0ZusmvSIuFI/FwheLTvKtuAdlMrD4AYtO8q2MC8VzsPjBrM5bPV+AjIvnNYAKfbAbPAvfIw5OJ8OsXssFkV5lSJN2bYP4xbMd+g+dMhv86j9FBSxl1G93TPNMDWDiqoar3T/XUAFL7bgL9d6rVy9+dhTbLbV169acc6jy64T9muBff/3Fz7ZivzaYuyUlJfHD21lx68cff4SaNWvyl9njiWvXrgV2hhb71cC8jZ2RxfpbsGABDBs2jL98/vx5/jhjQEAA/PPPP3x3Vu7Gzsdi52RFRkbCtWvXwNvbW+jesSxAWHTafeFxZQ7iKzRtDAcTV8OopAKJrxQ23STiqovIVADxNYXPZbIZrjc7PgeZN2849O3h5w+FNn8CHsG3f4Ha6mZGr9VajPRHeo1Qch0TO3k0pHz7ZU6AV+myEPH2Bjh+8iT/m90eFaLPi+bGWzYbyzzDopO+l8k60XkeFbCs5SndG9t11aRJEyhVqhT/dcDg4GBDfbHH9ViRie3EYo8RsgJSdmM7ptjOqaeeegoOHjyY83d2FlatWrV4MerQoUM5hS0WsGXLFujYsSMvULFD37PPwmKvscLajh07oEuXLrBu3bqcHV/x8fHQqFEjOHr0qMNOL0M38L8gLAsQFp20UIq4Tz4Wix+w6CTfyntRJBOLH7DoJN+KuE8+FosfZHXeaPEEZCUnOwDyjCwEhTbtAvDWHvcgT9IxU1avVdcX7Yf0ihJzjE//8zRED+4FWWmpOS8EtO8Ep+s+zv83FbDM8XWVTb4lrowA+cAaH1AByxqOpnvJPiSdnXfFfvUvv8aKSPfeey8PSUtL44Uv9tgeO5idnUMVEhIC7NcHWUGJFbS+++47qFChgkOX7PB3dgg8K2K1b98e2ON/p06dgl27dkFWVhZs3ryZP8aYu126dAnq1asHV69e5YfCs7O6UlNT4cMPP+SPDtatW5frYH2KNiwTGotO+kIl6kC5eCx+wKKTfCvnQ9EsLH7AopN8K+pAuXgsfhDVmZWUCDdaPqWBws66YmdeqW6ielXr0euf9OoR0n89ccsGSFi5xCHweu8hkPxAJSpg6eOTiiDfSmHTTSKuuohMBdiVLxWwTA2rdcnsLKpsk+j1eubMGShfvnxOGDv4fdy4cfzxQ7YbijV2Hlbjxo2BHeKet3jFXmdFquXLl8P06dMdfo2Q7eSaO3cuL045a+xRwsGDB8OePXsgIyODhwQGBkLXrl1h9uzZ/DwumWbXCZL3XrDopC9UMi4Uz8HiByw6ybfiHpTJwOIHLDrJtzIuFM/B4gcRnZk3rsPNF1toYHhXrAwRS9eKQ5LIENEr0b3lKaTXGqQxYwZD6g9HcjpLvbcMXB08hgpY1uDV9EK+VQOWuKrhavfPNVTAUjvubu2dnXl19uxZviuK7agqVKiQ7vUzMzN5TnR0NBQrVow/wmiksV8nZMUs9iuG5cqV40UsMw3LAoRFp90XHldeIb5mZpHrXOKqhivNM+KamwDNM/IDI2DUBxkX/oJbvTpqoPnWqgths5eqhZmrd6N63SZI50Kk15qRSDt1AqKH9XXoLKbRc1B+7GRrLqC4F/KBWsBY+GLRSZ8XrfUrFbCs5Um9SRLAsgBh0UkLpaQRBdOw+AGLTvKtoAElw7H4AYtO8q2kEQXTsPjBiM60X09C9JBeGgJ+DRpC6OQ3BcmYCzei19wVrM0mvdbxTFi/ChLXr3LoMHzxu+BTuZp1F1HUE/lAEdj/dYuFLxad9DnBWr9SActantSbJAEsCxAWnbRQShpRMA2LH7DoJN8KGlAyHIsfsOgk30oaUTANix/0dKYe+w5ixg7V3L3/My0gZNQkQSrmw/X0mr+CtT2QXgt5ZmZA9Ij+kHbqp5xOfWrUhvB5yy28iJquyAdquGJ7PyMf3J0+oAKW2nGn3g0SwLIAYdGJ7Q2I9BqcKJJh5FtJcAbTiK9BUIJhxFUQmGA48RUEZjA8P64pB/dD7PTxmp4Cnn8RggeOMHgFa8PIB9byzNub3fmm/vA9xIwZ4iA7qEd/COzcUy0Yk73bnSs2H2DVSz4wOZF00u3KlwpYasedejdIwK4TBOuCTgUhg8YzGUa+NQnQRToWrjTP1Iw/cVXLlfiq5etq/Ure/RHELZypuXhgl14Q1L2fWlH59E7rrVr0GPgmrFwMiVvecwAROm4a+D3dVC0cE71j4Jr79kivicGm9UsNPAO92tW3VMAyMHgUop6AXScIFbDUjz29watnjGV+0Rdr9V5gV8DiByw6ybfkW733scTNGyBh1RINqKB+QyCwQxf3AHRxFZpnavFj4JuVmACX+3cD38uXcmB4BAbyHxPwebCKWkCSvWPgqrcuSN66W9Kw8MWikz4nWGtbKmBZy5N6kySAZQHCopMWSkkjCqZh8QMWneRbQQNKhmPxAxad5FtJIwqmYfFDXp0Jq5dD4qY1mrsNGT4O/Ju3EaRgfTgWrjTPrB/73D2e2voB3LPmLfBITc35s3e5ChA2+y3wDAtXe3GJ3sm3EtAEUrDwxaKT1i8B8xkIpQKWAUgUop4AlgUIi05aKNV7ll0Bix+w6CTfkm9zEyDfqvUD8VXDNzfX+CVzIGnnVs2FQidMB7+nmqgRINgr+UAQmGA4Fr5MZ9APh6HQ1g0Od1gQv4xpBDEWrvS5xshoyseQD+TZGcm0K18qYBkZPYpRTsCuEyTvjWPRSW+Yyi3LL4DFD1h0km/Jt1TAco8HMK1f2NaF7PW2wv5dkHxgj2ZAw2YuAt+6j7pvoHWuRO8PaocCC99snQ/+fBQSNzruGAx8oQsE9XU86F0tNf3esXDFtn5h00s+0J8rZiLsypcKWGZGlXItI2DXCUIFLMuG2FBHWHxAb/CGhlM6iHwgjc5QIha+WHRiWw9Ir6FpIh3EfFtk7XII+O1nTR/hi94BnyrVpftWkUjzTAXV//rEwje3ztjpEyDl4GcOYIKHvgYBLduphSXQOxautN4KDKpEKPlAAppAil35UgFLYBApVB2B7Ami7grUMxEgAkSACBABIkAE1BIo+vZ88PvrjOYiV0ZMhLSiJdRenHonAhYQ8ExMgHtWvwW+l8479Ha912BIrlDZgitQF0SACGAiULt2bVvJpQKWrYbj7hVDBay7d+zpzokAESACRIAI3AkEii2cDr5X/tbcyj9jZ0BGeMSdcIt0D3cJAVa8YkUsVszKbukRheB6n6GQXqjIXUKBbpMIEAFGgApY5AMi4ISAXbco5pWKRWe2btKrdrph4YtFJ/lWrV+x8SXfqvUD8bWW763OrSHj2hVNp4V3HgSPoCBrL2Zhb+QDC2HeYZ9vU774DGJnTHC4K5+H6kD4nGVqoRnonXxrAJKJECx8sejE9vnL7nppB5aJyU2p1hHAsgBh0Wn3hceVc4ivdXMqd0/EVQ1XmmfEleaZWg9g4XujTSPIio9zgOHh6weFP/3GfYAkr0TvD5LgDKZh4etKZ+LG1ZCw5m2Hu/V/rjWEjBhvkICaMCxc6XOCmvEnrmq52p0vFbDcM/50FR0CWN6IsOi0+8JDBSz3LgnkW7W8ia8avsRVDVd6f7CQa3oa/PtsA4CsLIdOM0LCoNhH+y28kLquaJ6pY8t6xsI3P51xc96A5H0fO4AK6jUQAl/qrhZePr1j4UrrrVqLkA/uTr5UwFI77tS7QQJYFiAsOukN06DxTIZh8QMWneRbk4Y0mI7FD1h0km8NGs9kmN38kBkdBTfbP6O5q7R7isOVVyfZ7swQ+g9HJg0omW4338r6IHpEP0j7+UeH9NAJM8DvqcaSZMylYeFK7w/mxlkvm3ygR8jc63blSwUsc+NK2RYRsOsEyXt7WHTSG6ZFxtTpBosfsOgk35JvcxMg36r1A/GV55vxzyW49XI7TQc+VarD2W4D+N/tduitbOFCnpKaTPJtwXBNP38OYsYMgcwb13MEeASHQPicpeD9wINqROXTK/lALXIsfLHopM+31vqVCljW8qTeJAlgWYCw6KSFUtKIgmlY/IBFJ/lW0ICS4Vj8gEUn+VbSiIJpdvFD+h+/QdTAlzXqfR+uD2HTF6B5ZIx8K2hAyXC7+FZPvhGdKYe+hNjXRzt0xYpX4YtWATvzzZ3NiF536tG7FunVIyT3OnGV42Y0y658qYBldAQpTikBu06QvDeNRSd9MFVq15zOsfgBi07yLfk2NwHyrVo/EF9xvmk/HoPoUYM0if6Nn4WQMVP434mrOFeRDOIrQst4rFGuSVs3QvyKRQ4d+z3RCEInzTR+MQsijeq14FKWdEF6LcGo6YS4quFq98/jVMBSO+7Uu0ECWBYgLDrtvvC4sgXxNThhBMOIqyAwwXDiKwjMYDhxNQhKMoz4ioFL+fYgxE5+TZMU0OYFCH5lZM7fiasYV9Fo4itKzFi8CNf4xW9C0q4PHToO7NgNgvq8YuxiFkSJ6LXgcqa7IL2mETrtgLiq4Wr375FUwFI77tK9X716FVasWAFpaWkwbNgwKFy4cL59HThwAHbs2AF//vknzylevDg89dRT8NJLL0FQUJDT3Js3b8L69evh0KFDEBUVBUWKFIGnn34aunbtCgEBAS6vd/DgQdi6dSucO3cOPD094cEHH+Q5Dz30kPT9YlmAsOi0+8JDBSzpqSKVSL6VwmY4ifgaRiUUSFyFcAkHE1/jyJL37Ya4OVM1CYFdekFQ934OfyeuxrnKRBJfGWr6OaJc2XlYqT9879BxyPCx4N+8rf7FLIgQ1WvBJU11QXpN4XOZTFzVcLX790gqYKkdd6neWXFowIABwApMrP3222+8SOSspaSkQKdOnWD79u3g4eEBxYoVg8DAQLh48SIvZJUpUwY++eQTqFKlikP6kSNHoFWrVnD9+u3DGL29vSE9PZ3/u2LFirB//34oVaqUQ05WVhb06tUL1qxZw//OilesZWZm8n9Pnz4dxowZI3XPWBYgLDrtvvC4MgnxlZo+uknEVReRqQDiawoffTBVg0+3V/KtLiIekLT9A4hfNl8THNx/GAS076T5O3E1xlU2ivjKkss/T5RrVlwsRL3SA9gPGuRu4fOWg0+N2mpE5upVVK9yQToXIL1qRoC4quFq9++RVMBSO+5CvUdHR8OgQYNg06ZNvGB15swZyMjIyLeANWrUKJg7dy5UqFABtm3bBtWqVePXZDuqBg4cCB988AGUK1eO9+Hj48Nfi4mJ4fGseNW/f3+YOHEilChRgu+oGjFiBOzcuRPq1q0LrMjFimLZbdasWTB27FgoWbIkrFq1Cpo0acKLV+y6rJ+4uDjYvXs3NG/eXOi+WTCWBQiLTrsvPK4MQnyFp46hBOJqCJN0EPGVRpdvInFVw5XeH4xzTdzwDiSsW6lJCBk1Efyfaem0I/Ktcb4ykcRXhpp+jgzX1ONHIea1wQBZWTkX8CpeEsIXvwueEZH6FzURIaPXxOVMp5Je0whpvVWDEOXnMCpgFYAZXF3yhRde4I/m9evXD+bPnw+RkZHAdljltwOLxbBiFSs6sR1VuVtCQgJ/LDApKQk+//xz/ngga2yn1IQJE6Bp06awb98+hxx2vapVq/JHEXP3yfpihStW/GKPHD722GMOeatXr+a7s9hjhMePHxemimVhx6KTvqAIW1AqAYsfsOgk30rZUDgJix+w6CTfCltQKsHdfohfvhCSPtyk0Ro6ZTb41X/K5T24W6cUzFxJpNcswfzzsfCV1Zm0cxvEL5ntAMG3dj0Ie/MtpWBl9SoVlU/npFcNeeKqhqvdP9dQAUvtuAv13qdPH2jRogW0bt2a5/n7++dbwEpOTs45q+rs2bNw//33a65XuXJlXgDbsGEDdOnShb9es2ZN+Omnn5wWvdjr2TutOnfuDO+99x7PYedrtW3b1mWBKjU1lRfLYmNj+c6x8uXLC907lgUIi067LzyuzEF8haaN4WDiahiVVCDxlcKmm0RcdRGZCiC+rvHFzZ0GyXt3aQLC570NPjVq5cuduJqypW4y8dVFJBVghmv82wshaZtjsde/RVsIGTZWSouRJDN6jfRvdQzptZro7f6Iqxqudv8eSQUsteMu1Ds7g4qdRZXd9ApYLI6deXXt2jX45ptvoEGDBprrFSpUCG7dupXzOttJFRISAuw8K3bGFtvBlbexHVasL3Z+1vnz5/nLo0ePhjlz5sDgwYNh8eLFTu+LPVLIDpNnZ2R1795d6N6xLEBYdNp94XFlDuIrNG0MBxNXw6ikAomvFDbdJOKqi8hUAPF1ji92yhhI+eYLzYsRKzaCd7kHdJkTV11EpgKIryl8LpPNco2dNApSDn/l0H9Qn8EQ2LGrEsFm9SoRlU+npFcNceKqhqvdv0dSAUvtuJvq3UgBa/z48TBjxgx49tln+Y6q7HOu2IVZIalnz55QqVIlOHXqFD9one28YjuwwsLCgJ255axdvnyZPy7I4lnBi+lgu6/YLqwFCxbwX0V01vr27cvPxho3bhx/TFGkYVmAsOi0+8LjyhvEV2TWGI8lrsZZyUQSXxlq+jnEVZ+RmQjiq6UXM/oVYOf65G2FNu0Cz3uKGcJNXA1hkg4ivtLo8k20gmtUn5cg/a+zDtcJmzoXfB97wnLRVui1XFQ+HZJeNbSJqxqudv8eSQUsteNuqncjBSx2ZlW3bt1gy5Yt8MADD8AzzzwDQUFBvFC1d+9e/igfO1id/bIga1988QU0atSIP27IHjt01tjjgH5+fvwlVswqXrw4PPHEE3wX1/r166FrV+f/NYUVrmbOnAmskLVixQqhe8eyAGHRafeFx5U5iK/QtDEcTFwNo5IKJL5S2HSTiKsuIlMBxNcRX9Sg7pB++lcN08K7DoJHYJBh1sTVMCqpQOIrhU03yQquGRf+gqiBL0NWSnLO9TxDw/ih7l73ltbVIBJghV6R65mNJb1mCTrPJ65quNr9eyQVsNSOu6nejRSw2AXYmVMjR46EXbscz2u47777YN68eXz3VPavCbJiVsuWLfmurF9/1X5QyxbMdl+xxwyzz7OqU6cOf8548+bNwA6bd9amTp0Kr7/+OuQ+O8soACwLEBaddl94XPmC+BqdMWJxxFWMl2g08RUlZiyeuBrjJBtFfP8jd6t7e8j4+6IDSg//ACi82/GRKCOsiasRSvIxxFeeXX6ZVnFN3v8pxL052eFS3hUrQ8TStZYKt0qvpaLy6Yz0qiFNXNVwtfv3SCpgqR13U70bKWB9/PHH0LFjR75jatKkSdCwYUO+A4sVp9huqCNHjvDX33//fV7EYruy2OOGbLfWH3/84VRfZmYmeHl58dcuXLgApUuXhkceeYT3tXHjRujUqZPTvIkTJ8K0adOgR48ewH6VUKRhWYCw6LT7wkMFLJHZYT6WfGueoTs++KtV+V/vWPyARSett+5xrio/3OzQDDKjbjnchGeRe6DQ+7ulbkyVTikxBpJIrwFIJkKw8LVSZ8Lq5ZC4aY0DNb+nmkDoBLHjReh914TxTKZa6QeTUvJNx6KTPidY6wIqYFnL09Le9ApYMTEx/BFBdhj7wYMH4cknn3S4flJSEtSuXZv/CmH2o3+HDx+G+vXr88cC2eOBzhrrNzw8nL8UFRXF/920aVPYv38/fzSQPSLorA0fPhwWLlwIQ4cO5f9fpGUvQCI5FEsEiAARIAJEgAgQAVkCpcYPBo/0dIf0tGIl4MrwibJdUh4RIAIAUHjTuxD40w8OLGIbNoPoZrd/aZ0aESACeAiweoKdGhWw7DQaebToFbDYoers8UB2vtXvv//u9E6yd0U9//zz8OGHH8KVK1egRIkS/ID25ORkh0Pfszs4efIkVK9eHSIiIvgvGLLWr18/WLlyJbD+2KOCzlq7du1g+/btsGjRIhgyZIgQWSpgCeGiYCJABIgAESACRECSgGdyEtz7+ghNdkrZ8nCt/6uSvVIaESACuQkUWzILfP++4ADlZsfukFDrYQJFBIgAIgJUwEI0WAUtVa+AtWTJEl4oatCgAT9g3VljO6HYzqiHH34Yvv/+ex5StGhRuH79Ohw7dgzY2VZ5W/avF7LHEdmh76wtW7YMBg0aBM2bN+eHwjtrZcqUgYsXL8JXX33FD30XaVi2gGLRmc2e9Iq4UDwWC18sOsm34h6UycDiByw6ybcyLhTPscoPmdevws1OrTQCfB99AsLemCsuLE+GVTpNCzHYAek1CEoyDAtfFTqz4uPgVrfnITM25j96np4Q8dYa8K5QSZLo7TQVek0J0kkmvWroElc1XO3+uYZ2YKkdd1O96xWw2C8PsvOtWEGK7azKPqg990VZ0YkVn9q0aQMfffQRf4mdUbV27VoYM2YMPycrb2NnZLGzshYsWADDhg3jL58/fx7Kli0LAQEB8M8///DdWbkbOx+LnZMVGRkJ165dA29vb6F7x7IAYdFp94XHlTmIr9C0MRxMXA2jkgokvlLYdJOIqy4iUwF3I9/0v/6EqD7aczz9mzaHkNGvm+JJ77uW4NPt5G70rS4UCwJUcU398RjEjBrkoNCrZCmIWPEesB9KkG2q9Mrq0csjvXqE5F4nrnLcjGbZlS8VsIyOYAHE6RWw2NlX7ID1xMREYLuxXnnlFQeVf//9N1SuXBni4uL4oeqscMXaiRMnoFatWrwYdejQIahZs2ZOXnZRjBWozp07l3MWFgtgjyuyxxa7dOkC69at448hshYfHw+NGjWCo0ePwpQpU/hh8qLNrhMk731g0UkfpEUdKBePxQ9YdJJv5XwomoXFD1h0km9FHSgXb9YPaadOQPQw7RmeAc+/CMEDtY8TyqmknSGy3IzmmfWB0etYFYdFr0qdiZs3QMKqJQ5Ifes8AmGzFktjVqlXWlQ+iaRXBVVab9VQ/a9Xu/qWCliqR95g/2fPnuW7qXK348ePQ1ZWFlSpUgVYMSu7bd68GcqVK8f/59tvvw0DBgzg/2YFJvboXkhICJw+fRpWrVoF0dHR8PTTT8Nnn32W88uCLHb8+PEwY8YMXsRq3749sMf/Tp06Bbt27eLXZNfo0KGDg55Lly5BvXr14OrVq1CjRg1o1qwZpKam8rO12KODdevW5Y8Psj5Fm10nSN77wKKTvlCJOlAuHosfsOgk38r5UDQLix+w6CTfijpQLt6MH1K//xZiJmiLVEHd+kBgtz5yglxkmdFpqRCDnZFeg6Akw7DwVa0zbs5USN7neARJQKv2EDxktBRZ1XqlROWTRHqtJnq7P+KqhqvdP9dQAUvtuBvunRWPqlWrZiieHbJetWrVnNhPPvmE73xiZ1rlbvfccw8/fJ0Vq/z8/BxeY0Wq5cuXw/Tp0x1+jZAVy+bOncuLU84ae5Rw8ODBsGfPHsjIyOAhgYGB0LVrV5g9ezaEhoYauoe8QVgWICw67b7wuDIJ8ZWaPrpJxFUXkakA4msKn8tk4qqG6932/pDy+V6InandGR48aAQEtH3RcsjkW8uROnRIfNXwdQfX6OH9IO3kjw43EDx4FAS0dvwP5kbu0B16jegwGkN6jZISiyOuYrxEo+3KlwpYoiNp4/ioqCj466+/ID09HQoXLszPrHJ2LlbuW8jMzAS2+4vt1CpWrBiUKlXK0B2yXydkxSwfHx++G4wVscw0u04QrIW2u+0Lihnvmckl35qh5zoXC1eaZ2rGn7iq5Xo38U3atQ3iF8/WAA15bTL4N3lOCWhav5RgzemU+Krh6y6uN19sDpk3/nW4ifA5S8HnobpCN+YuvUKi8gkmvVaRdOyHuKrhavfPCVTAUjvu1LtBAlgWICw67b7wuLIF8TU4YQTDiKsgMMFw4isIzGA4cTUISjLsTueb+P5aSHh3mYZO2BvzwPfRxyWp6afd6Vz1CaiNIL5q+LqLa8bF83Cr5wsON+EZHgERKzaCZ6HChm/OXXoNC9IJJL1WkaQClhqSznu1q2+pgOVOF9C1XBKw6wTJKxiLTipguWeyYfEDFp3kW/JtbgLkW7V+uJP5JrzzFiR+sF4DMHzBSvCp9t8P16ggfCdzVcFLtE/iK0rMWLw7uSYf2ANxsxx/9dOnUlUIX7LamFg6+8gwJ9lAd/pBViPLw6KTPt+aGWVtLhWwrOVJvUkSwLIAYdFJC6WkEQXTsPgBi07yraABJcOx+AGLTvKtpBEF04z6IX7RLEj6eLum94h33gfv+27/AI7KZlSnSg0ifZNeEVrisVj4ultn/PIFkPTh+w5A/Rs/CyFjphiC7G69hkTlE0R6zRJ0nk9c1XC1++caKmCpHXfq3SABLAsQFp12X3hc2YL4GpwwgmHEVRCYYDjxFQRmMJy4GgQlGXYn8o2dMRFSvtinIVLog93gWfgeSVJiaXciVzECaqOJrxq+BcE1ZsxgSP3hiMMNBfUcAIGdeujeZEHo1RVFBSwziKRyyQdS2CD2uv8AACAASURBVAwn2ZUvygJWbGws/PLLL/zg8exfwnM1Ei1atDA8SBRYcATsOkHyEsGikwpY7vEyFj9g0Um+Jd/mJkC+VeuHO41vzPjhkHrkkAZa4d1fg4e/v1qYuXq/07i6DZzBCxFfg6AEwwqK661uz0PG5b8d1IZOng1+DZ7K9w4KSq8g1pxw0itLLv884qqGq90/j6MqYLFi1ZAhQ+Cdd96B1NRUQyOWlZVlKI6CCpYAlgUIi067Lzyu3EZ81cxD4qqGK80z4koFN7UeMMo3emgfSPvlJwcxHkFBUHjnQfcJ/N+VaL1Vi5z4quFbUFyzEuLhRutGAJDr+5q3N0Sueh+8SpVxebMFpVeWPumVJUcFLDXkjPVqV9+iKmDNmTMHRo8ezYkHBQVBiRIlwNfXN98ROHXqlLERoqgCJWDXCZIXChad9MXaPXbG4gcsOsm35FujBQv3kBK7Cs0zMV6i0a74RvV+CdLPn3XozqtocYjcuFP0EpbEkw8swUiFC7UYNb0XpG/TTvwA0SMHOs7hUmUgcs1W8oGbfYDtc1hB+lZmaEivDDVtDqoCVt26deGHH36ApUuXQr9+/cDLy8saCtRLgRPAMqGx6MT2BkR61U5B8i3xxVgYIt+Sb/V8e/OllpD57zUHUN7lKkDEivfUwsund/KtWvTEVw3fguaauOU9SFi52OHmfB99HMLemOf0hgtar+gokF5RYsbiiasxTrJRduWLqoDFdlxFRkYC7aqStaF98+w6QfISw6KTCkLu8ToWP2DRSb4l3+oVLNxDSO4qNM/kuBnNysv3RquGkJWY4JDuU6M2hM9bbrRLJXHkAyVYczolvmr42oFr7PTxkHJwv8MNBnbsBkF9XtHctB30iowE6RWhZTyWuBpnJRNpV76oCliVKlXijw1+/vnnMmNAOTYmYNcJQgUs95oGiw+wFVqIq1ofE181fImrGq7Y1q+8emtVrQo3mj+ugcMOfWaHPxd0I9+qHQHiq4avXbg6eyQ4ZPQk8G/q+KNcdtFrdDRIr1FSYnHEVYyXaLRd+aIqYPXp0wf27dsHFy5cAA8PD9ExoHgbE8ieIDaWSNKIABEgAkSACBCBAiTgFRcLJae9plGQUOcxuNmhawEqo0sTASJgFYFSE4aAR1qaQ3dXX3kNUkvdZ9UlqB8iQAQECNSuXVsgWn0oqgLWX3/9BewcrNdeew1GjRqlng5dwW0EqIDlNtR0ISJABIgAESAC6Aj4/HsNis+drNEd93hjiGrRDt39kGAiQAScE3A21zNCQuHKqCmQ6edP2IgAEXAzASpgmQB+8+ZN+P7774HtxCpfvjy0a9cO7rvvPvDz83PZa7NmzUxckVLdRcCuWxTz3j8Wndm6Sa9aB2Phi0Un+VatX7HxJd+q9QMmvum//wJRr/TQAAnq0R8CO/dUC0qwd0xc2a2RXsEBFgzHwtduOlM+3wuxMyc50PapXgvC57/N/2Y3vXq2IL16hOReJ65y3Ixm2ZUvqh1Ybdq0gZ07xX4WOSsry+gYUVwBErDrBKEClntNgcUHVAhQ6wvyAfGlLyhqPYCJb+oPRyBmzGANkODBoyCgdQf1oASvQOuXIDDBcOIrCMxguB25xr+9EJK2bXK4g4CWz0Pw0DFUwDI4rrJhdvSDs3vBohPb9wa760VVwOrbty98/fXX4OXlZfgMLPrFQtmly715WBYgLDrtvvC4chfxVTPviKsarjTPiGtuAjTPrPdDypf7IXbaeE3HoWOngl8je+6wJx9Y7wOaZ2qZ2rmgHT2iP6T9fNwBQPCgV+HX0uX53+z2aBN9vlXvVVoP3MfYru9nqApY7hsuupK7Cdh1guTlgEUnfbF2j4Ox+AGLTvIt+ZY+mLrHA3b+wppNIGn3dohfOEsDJGz6AvB9uL77QAleidZbQWCC4cRXEJjBcDtzvdG2MWTFxTrcyfXeQyD5gUpUwDI4vqJhdvYDfU4QHU35eLv6gApY8mNKmRYSsOsEoQKWhYNsoCssPsBWaCGuBsxnIoT4moCXTypxVcMVw/qV+ME6SHhnqQbAtYGjoOrz9ntskL5QqfUq8VXP187rbVZiAtxo1dABQpa3D1wePRVqPt1IPRwLrmBnvs5uD4teLDoxvO9i8gHaAtbvv/8O33zzDZw7dw7i4uIgMDAQSpYsCY8++ijUq1fPgqWGunAnASwLEBadtFC6x71Y/IBFJ/mWfEtfVN3jAXYVu64LCavegsTN6zUgroyYBGlFi9t+x4VdubpyFulVO+ew8LW7zrSf/g+iXx3gMFipJUpByfUfqh1Ai3q3O9+8t4lFLxad9PnWoon0v27QFbDOnz8PvXr1gi+++MIlierVq8Pq1att/yHH2qHE3RuWBQiLTloo3TMfsPgBi07yLfmWClju8YBdC1hxC2ZC8icfaSAUen83/HjxEv+73c+8ofVWrYeJrxq+GLgmbd0I8SsWOQDwe/oZCB33hhooFvaKgS/G91/iaqFJnXRlV76oClgxMTFQs2ZNYEUsT09PqFatGtx///0QHBwMKSkp8Pfff8Px48chOTmZ/+27776DqlWrqh1Z6t0SAnadIFj/iwQVAiyxpW4n5FtdRFIBWLjSPJMaXsNJ5APDqKQC7cY39o2xkPLV55p7Kfzxl+AREGjbHWP0OUHKftJJdvOt3o1g0YtFZ+yMiZDyxT4H7P7PtoaQV7U/9qA3Nu58HQtfbJ9riKtaF9uVL6oC1owZM2D8+PHQqlUrWLZsGX9kMG9LSEgAFsf+75lnnoG9e/eqHVlFvV+9ehVWrFgBaWlpMGzYMChcuHC+V8rMzISPPvoIdu3aBf/88w+Pr1u3LvTu3RvCwsKc5t68eRPWr18Phw4dgqioKChSpAg8/fTT0LVrVwgICHB5vYMHD8LWrVv545uskPjggw/ynIceekiahl0nCH0wlR5SqUQsPqA3eKnhNZxEPjCMSioQC18sOrGtB3bUGzP6FUg9ftTBzx5+/lD4k69z/obFD1h02tEHRhY04muEkngMJq63ureHjL8vOhaxnmkBIaMmid+4mzIw8WVIsOjFopPWW2snGqoC1uOPPw6nT5+GCxcu5FtgYYjatm0LH3/8Mdy6dQtCQ0Otpaa4N1YcGjBgALACE2u//fYbLxK5auwMsNatWwMrLLHm7e0N6enp/N/33HMPfPXVV5r8I0eO8ELg9evXNTkVK1aE/fv3Q6lSpRwumZWVxR/fXLNmDf87K16xxopn7N/Tp0+HMWPGSNHBsgBh0UkLpZQNhZOw+AGLTvKtsAWlErD4AYtO8q2UDXOSoga+DOl//ObQiWdkYSi05VOHv2HxAxad5FtzvjWajcUPWHRmc/+3ycMAWVkOw+Df+FkIGTPF6NC4NQ4bXyx6seik9dba6YaqgFW6dGmoVasW7NixQ5fCqlWroG/fvvDTTz8BOxMLQ4uOjoZBgwbBpk2beMHpzJkzkJGRoVvAatOmDezcuRMaNGgAy5cv549Nsl1YI0eOhA8++AAqV64Mp06dAg8PD46BPYpZoUIFXrzq378/TJw4EUqUKMF3VI0YMYL3xXZvsSJXdg7LmzVrFowdO5bvfGN8mzRpwotX27Zt4/2wQtru3buhefPmwrixLEBYdNJCKWxBqQQsfsCik3wrZUPhJCx+wKKTfCtswZyEW92eh4zLfzt04FXqPohcs0XTKRY/YNFJvpX3rUgmFj9g0Znbt6XGDwaP//0H++y/+z3dFELHTRMZIrfEYuTLwNCZg9bag3xgDU9UBSy2I4gVVrZv36579xs2bIBu3brBDz/8YPvJl30zL7zwAn80r1+/fjB//nyIjIzkZ3vltwOL7bpij/2VLVsWfv75Z372V3Zju7Dq1KkDISEhsG7dOn5eGGtsp9SECROgadOmsG+f43Pk7HqsAPbnn3/yQhbbpcUaezSTFa5Y8Ys9cvjYY485jAE7NJ/tzmKPEbJzyEQblgmNRSd9MBV1oFw8Fj9g0Um+lfOhaBYWP2DRSb4VdeDt+JvPN4HM2BiHZJ9KVSF8yWqnHWLxAxad5Fs534pmYfEDFp15fVtmykjISkxwGBa/JxtD6MQZokOlNB4rXypgWWsL8oE1PFEVsB599FH++CA7xN3X1zdfAn369IF33nkH2FlSRYsWtYaW4l6Y5hYtWvDHAVnz9/fXLWB16dIFNm7cCEuXLoWBAwcaUsgOwmc703IXqHInZu+06ty5M7z33nv8JbbrjT2W6apAlZqays/Qio2N5TvHypcvb0gLtg9QtPAIDatwMPEVRmYogbgawiQdRHyl0eWbSFzVcC3o992stDS48dzjAFmZDjfoW+cRCJu12OVNY/EDFp0F7QNZdxNfWXL552Hm6qwY7tegIYROflMNLIleMfOVuF23pRBXtajtyhdVAWvKlCkwefJk6N69Oy/YBAYGakaNndPEdgOxxwdZsYXtwMLS2I4pdn5VdjNSwGJFoxs3bsDFixc1Z1Y5u2+2k4rtyGKc2BlbbJdX3sZ2WLHHEcuUKcOLhayNHj0a5syZA4MHD4bFi51/wGSPFB44cICfkcXGSKTZdYLkvQcsOumDqYj75GOx+AGLTvKtvBdFMrH4AYtO8q1x92VG3YKbHZppEozsmMDiByw6ybfGfWsmEosfsOh05dubHZ+DzJs3HIbK97EnIGzqXDPDZ1kudr6WgbC4I+JqMdA83dmVL6oCFjuQvVq1anD58mWIiIiARo0awQMPPMAfm2OPvrEiDjuw/K+//gIvLy/+eByLwdr0CljXrl2DYsWK8UPq2aN97L7Z+Vl//PEHL4SxbZ9sh1buQ+zZziu2A4v9MiE7c8tZY3zZ44LsYHZW8GI62O4rtgtrwYIF/FcRnTVWNGRnY40bN44/pijS7DpBqIAlMormY7H4ANsHf+Jq3pv59UB81fAlrmq4FtT6lXHpAtzq0UFzU/7PtYaQEeN1bxaLH7DoLCgf6A60TgDxNUvQef6dwPVW59aQce2KYxHr4foQNn2BGmgCvd4JfAVu122hxFUtarvyRVXAYkPEzoN68cUX+XlPrlrhwoVh5cqVvOiCuekVsNjuMnYmGCvijR8/np+dxQp5rHjHDn9njf0KIfs1xnr16vH//cUXX/CiHjsP6+zZs07xsMcB/fz8+GusmFW8eHF44okn4JtvvoH169dD165dneaxwtXMmTP57rcVK1YIobfrBMl7E1h00gdTIftJB2PxAxad5FtpKwolYvEDFp3kW337pf16EqKH9NIEBnboDEH9hup3QD/rboiRTBDNMxlqxnOw8MWiU2+9vfVyO8j455LDAOk9nmx8NOUj7xS+8gTUZBJXNVz15pnaq+r3jq6AxW6J/fLd559/zosx7LBx9ut3rNjDDnlnh4uzM6ScPV6oj8NeEXoFrOwD3MPDw4E9fsiKWD179oRChQrBr7/+CsOHD+ec2BlgrPDHdq2xXwls2bIlVKpUice4amz3FXvMMPs8K3YYPFskNm/eDOyweWdt6tSp8Prrr0Pus7OMEs1egIzGUxwRIAJEgAgQASJgfwIBp3+BIqvf0giNadoSYho9Z/8bIIVEgAigIlB8/lTwybMTK7n8g3C9j7FiOaqbJbFEwA0E7HaYP8oClhvGyRaX0CtgseJU48aNudY33niD/7Jg7pacnAwPPvggP/ienV81cuRI2Lt3Lzz77LN81xZ71NBZYwVCtouLNZZbunRpeOSRR+DIkSP8wPhOnTo5zZs4cSJMmzYNevTowc8hE2lUwBKhRbFEgAgQASJABOxPIOjEMSj0vvbzQFSrFyCufkP73wApJAJEACWBYotmgO9lx51YyfdXgOt9hwF4eKC8JxJNBAqKABWwCoo8wuvqFbBYQYkVllhjxShWlMrbsotKbNfVrl274PDhw1C/fn3+WCB7PNBZY+dpsV1drEVFRfF/N23aFPbv388fDWSPCDprbMfXwoULYejQofz/izQsW0Cx6MxmT3pFXCgei4UvFp3kW3EPymRg8QMWneRb5y5M2rUN4hfP1rwYMvp18G/aXNi6WPyARSf5VtiCUglY/IBFp4hvo1/pAWm//+Iwbj7VakL4nKUA3j5S4ymbdCfylWVhZR5xtZKmti+78rXtDix2ADs7MJz9st2rr77KibJH1FgBRqSxHUdYm14B659//oF7772X396///4L7OyvvI3thOrVqxc8+uijnN2VK1egRIkS/IB2tkPLx0e7gJ88eRKqV6/OHzlkB+ezxs7XYueKsYIYGwdnrV27drB9+3ZYtGgRDBkyRAi7XSdI3pvAolPkDV5ooBQHE181gImrGq40z4hrbgI0z/6jkbhxDSSsWa4xSOjUOeD32JNSxsHCF4tOWr+kbCichMUPWHSK+jZ6eF9IO3nCYdx8KleDsDlLwcPPX3g8ZRPuVL6yPKzKI65WkXTej1352raA9c4770CfPn3g5ZdfhrVr13Kqbdq0gZ07dwqNFDvHCWvTK2Cx+ypSpAjcuHEDjh49yg90z9vmzp0Lo0aN4oXAzz77jL/MzsS6fv06HDt2DNjZVnnbmjVr+FlaDRs25OeMsbZs2TIYNGgQNG/enJ+j5ayVKVMm55cg2aHvIs2uEyTvPWDRKfoGLzJWKmOJrxq6xFUNV5pnxDU3AZpnt2kkrFgEiVs3aswRPm85+NSoLW0aLHyx6KT1S9qKQolY/IBFp4xvo0cNgrQfjzmMm3fFynwnlkdgkNB4ygbfyXxlmViRR1ytoOi6D7vytW0B6/Tp0/xX7ypUqMB/AY+1AwcOwPnz54VGqnfv3kLxdgo2UsBi502xAh97fG/+/Pka+exAe/boIDv/ip2DxVp2zpgxY/ivBuZt7IwstnON7YAbNmwYf5lxL1u2LAQEBADb+cV2Z+Vu2Y8zRkZGwrVr18Db21sIpV0nSN6bwKJT5g1eaMAUBRNfNWCJqxquNM+Ia24CNM8A4uZNg+Q9uzTGiHh7A3iXr2jKMFj4YtFJ65cpOxpOxuIHLDplfRszbhikHnV8isf7gYoQPnspeISEGh5P2cA7na8sF7N5xNUswfzz7crXtgUstcOBo3cjBawTJ04AO1jNz88PvvrqK4ddWGzH1TPPPAMeHh7A4thjgayxf9eqVYsXow4dOgQ1a9bMAbJlyxbo2LEjL1CdO3cu5ywsFtC2bVvYsWMHdOnSBdatW8cfQ2QtPj4eGjVqxHeBTZkyBSZNmiQM2K4ThApYwkNpKgGLD2Q/QJmCYyKZuJqAZyCV+BqAJBFCXCWgCaRYzTd2ymuQ8s1BjYLIDR+BV/GSAsqch1qt17QgFx1g0YntfYz0qnLs7X7vBt/GTBoJqYe/dgDpff8DEDb7LfAMd/wP81bTvhv4Ws3MSH/E1Qgl+Ri78qUClvyYWpp59uxZXjjK3Y4fPw7sEcgqVaoAK2Zlt82bN0O5cuVy/jcrGk2ePJkXsV566SW4//774ddff4Vt27ZBeno6jBs3DqZPn+7Q9/jx42HGjBm8iNW+fXtgj/+dOnWK79Zi12TX6NChg0POpUuXoF69enD16lWoUaMGNGvWDFJTU+HDDz/kjw6yRxhZEY31KdrsOkHy3gcWnfRBT9SBcvFY/IBFJ/lWzoeiWVj8gEUn+RYgeuRASDvxg8aKhbbvB8/QMFGLOo3H4gcsOsm3lthStxMsfsCi06xvY6eOhZSvP3csYpW5/3YRq5D2LGHdATYYcLfwNYjDsjDiahlKVO+7ti1gscfQzpw5Y3pUGjRoYLoPd3TAikfVqlUzdCl2yHrVqlUdYt99911+uDorJGW3kiVLwoQJE6B///6aflmRavny5bywlfvXCFmxjJ2bxYpTzhp7lHDw4MGwZ88eyMjI4CGBgYHQtWtXmD17NoSGym3DxbIAYdFp9g3ekBEVBBFfBVDvkv+yqoacsV7Jt8Y4iUYRV1FiYvFW8Y3q3xXS/zzteHEvLyjy6bcAXl5iovKJtkqvZYJcdIRFJ31OUO2E2/1j8QMWnVb4NnbmJEj53PFHvrxKlYHwN98Cz3uKKjHG3cRXCUBab92JNedadvWtbQtY2Ye4mx0tzIe4i947u1f22N/NmzeBnUVVvnx53S4yMzOB7f6Kjo6GYsWKQalSpXRzWAD7dUJWzGK/Ysh2g7Eilplm1wmS956w6LTiDd7MeMrmEl9ZcvnnEVc1XGmeEdfcBO7GeXarS2vIuHrFwQhsxxXbeWV1w8IXi05av6x2qPP+sPgBi06rfBs3Zyok73P8USqvEvdC2JtvgVfxEpab427jazlAKmC5C6nDdezqW9sWsNgjbK+99prpwRI99N30BakDKQJ2nSBUwJIaTukkLD6w6gOUNCjBROIqCEwwnPgKAjMYTlwNgpIMM8v3RuunISsh3uHq7KwrduaVimZWrwpNzvrEohPb+xjpVevgu9G3cQtmQvInjuuVV7HiEDZrCXjdW9pS4HcjX0sBUgHLHTg117Crb21bwCqQUaKLFhgBu04QKmC51xJYfIDtgzRxVetj4quGL3FVw9Xs+pWVkgI3mj+uEcd+ZZD92qCqhsUPWHSa9YGqcdbrl/jqEZJ7/W7lGv/WXEjascUBmmeRohD+5mLwKl1WDqaTrLuVr2UAqYClGqXT/u3qWypgFYgd6KJYC0N2nciuHEV61c41LHyx6KQvVGr9io0v+VatH2T4Zt78F252bK4R5lOjNoTPW65UsIxepYLoC1VB4EVzphStt2rtYeV6EP/2QkjatsmxiBVZGMLeXAzeZfWPYzFyp1bqNXI9szFY9GLRiW09sLteKmCZneGUbwkBLAsQFp12X3io4GbJtDHcCfnWMCqpQOIrhU03ibjqIjIVIMo3/fw5iOr9ouaafo89CaFT55jSYiRZVK+RPlXEYNFJnxNUjL62Tyx+wKJTlW8T3l0Kie+vcyxihUdA2KzFwHaXmm13O1+z/Oh7gyqC+fdrV9/atoC1evVq6Nu3r+nRSk9PN90HdaCegF0nSN47x6JT1Ru8aicQXzWEiasarjTPiGtuAnfyPEs79RNED+ujGXD/ps0hZPTrao3wv96x8MWik9Yvt9gWzY4x8i1AwrqVkLjhHQdjeISEQjgrYlWsbMowxNcUPpfJxFUNV7u/P9i2gEW/QqjWkHbrHcsChEWn3Rce+i8p7p2B5Fu1vImvGr7EVQ1X0feH1O+/hZgJIzRiAtp2hOBBr6oVmat3LH7AolPUB24baJ0LEV81I0Fcb3NlBSxWyMrdPAKD+E4sn8rVpOETX2l0+SYSVzVc7f7+YNsCVnx8PNy4ccP0qNx3332m+6AO1BPAsgBh0Wn3hYcKWOrnVO4rkG/V8ia+avgSVzVcRd4fkg/sgbhZ2h1WgV16QVD3fmoF5ukdix+w6BTxgVsHmgpYBYKbfPsf9sSNqyFhzduORSx/fwibuRh8qtWUGh/iK4VNN4m46iIyFWBXvrYtYJmiTcnoCNh1guQFiUUnfTB1zxTA4gcsOsm35FsqvLrHA+wqeutC0kebIX7pPI2goH5DIbBDZ/cJ/d+V9PS6XZCLC2LRSeutexyDxQ9YdLrLt4mb1kDCascfpvDw8YWwmQvBp2YdYfMQX2FkhhKIqyFM0kF25UsFLOkhpUQrCWRPECv7pL6IABEgAkSACBABcQJhBz6BsP27NYm32nWB+Hr1xTukDCJABIgAMgKhB/dB+N4djqo9PeF6z1cg+YFKyO6G5BIBeQK1a9eWT1aQadsC1r59+2DBggXQpEkTePXV22csTJ06FQ4fPiyEYe/evULxFFwwBKiAVTDc6apEgAgQASJABHITiPh4G4R8+7kGyo3OfSCxei2CRQSIABG4awiEfvUZhH/6keZ+/+35CiRVrHLXcKAbvbsJUAHL4PhnH+L+8ssvw9q1a3lWmzZtYOfOnQZ7uB2WlZUlFE/BBUPArlsU89LAojNbN+lV62csfLHoJN+q9Ss2vuRbtX5wxjduzlRI3qfdecUOMPat84haQTq9Y/EDFp3Y1gPSq3b6kW9d803c8h4krFysCQh7Yx74Pvq4oYEhvoYwCQcRV2FkQgl25WvbHVinT5+Gb775BipUqABPPPEEh33gwAE4f/68EPjevXsLxVNwwRCw6wShApZ7/YDFB9g+SBNXtT4mvmr4Elc1XF2tX7GTRkHK4a80Fw1fshp8KlVVK8ZA71j8gEUntvcx0mtgkpgIId/mDy9p20aIf3uRJih08mzwa/CULnniq4tIKoC4SmEznGRXvrYtYBkmS4F3BAG7ThAqYLnXXlh8gO2DNHFV62Piq4YvcVXD1dn6FT2iH6T9/KPmgpFrtoBXKXv8mjMWP2DRie19jPS6bz1QeyVrei+IeZb04fsQv3yBtog1cSb4Pdko3xsrCL1mSGPRi0UnrV9m3KjNpQKWtTypN0kCWBYgLDppoZQ0omAaFj9g0Um+FTSgZDgWP2DRid2396+YB+nn/tS4qdCWT8EzsrCky6xPw+IHLDqx+9ZuZ7K4cjwWP2DRWdC+dfXrrKHjpoHf001dLnzE1/r3BNYjcVXDtaDnmd5doSxg/fbbb/Dzzz9DTEwMZGZm5nuP/fv312NAr9uAAJYFCItOuy882D/oYeNLvlW7yBFfNXyJqxquudevkjPHgVd0lOZChT/5Gjz8/NUKEOwdix+w6MT2PkZ6BSeMYDj51jiwpB1bIP6tuZqEkDGTwb/xc047Ir7G+YpEElcRWuKxduWLqoB169YtaNu2LXz99deGR4AOcTeMqkAD7TpB8kLBopM+6LnHzlj8gEUn+ZZ8m5sA+VatH643fxw8UlIcLuIREAiFP/5S7YUle8fiByw6ab2VNKJgGhY/YNFpF98m7doG8Ytna4tYoyaC/zMtNX8nvoITx2A4cTUISjLMrnxRFbAGDBgAb7/9Nnh6ekLNmjXh3nvvBR8fn3yHZNu2bZJDRmnuJGDXCUIFLHe6gLYCq6KNZX7ZbNeaQwAAIABJREFU5YOp6DgQX1FixuKJqzFOolFZyUlwo8WTmjTPIvdAofe1v0Ao2r+qeCx+wKKT1ltVTnXsF4sfsOi0k2+TPv4Q4he9qS1ijRgH/s+1cfg78VUz34irGq52mmfO7hBVAeuBBx6ACxcuwMGDB6F+/fpqR4x6dysBLAsQFp12X3hcmYv4qpl2xFUNV5pnxDU3AQzzLPPmv3CzY3PNwHnfdz9EvPOB2gE12TsGvuwWseik9cukIQ2mY/EDFp12823y7o8gbuFMjRuCh74GAS3b5fyd+BqcMIJhxFUQmGC4XfmiKmCVKlUKihYtCj/88IMgfgq3OwG7TpC83LDotNsbvFH/EV+jpMTiiKsYL9Fo4itKzFg8cTXGyWhUxoW/4FavjppwnyrVIXzRO0a7KbA4LH7AopM+J7jHylj8gEWnHX2b/OkOiJs/Q1vEemUkBLR5gf+d+KqZb8RVDVc7zrPcd4qqgNWoUSNITEyE7777Tu1o2aD3q1evwooVKyAtLQ2GDRsGhQuL/RLQp59+CocPH+YFv8GDBzu9o5s3b8L69evh0KFDEBUVBUWKFIGnn34aunbtCgEBAS4psB1wW7duhXPnzvHHOR988EGe89BDD0mTw7IAYdFp94XHlVGIr/QUyjeRuKrhSvOMuOYmYOd5lvbrSYge0kszYEkVq0DppWvUDqRFvduZLxYfOBsKLFxpvbVoIrnohnxgjm/ynl0QN2+atog1YDgEtHuJCljm8LrMJt8qAvu/bu3KF1UBa8eOHdChQwe+A6tGjRpqR6wAe2fFIXbeFyswscZ+dZEViYy2v/76C6pXrw7x8fFQpUoVOHXqlCb1yJEj0KpVK7h+/Tp/zdvbG9LT0/m/K1asCPv37we24y13Ywfi9+rVC9asuf1hlxWvWGO/BMn+PX36dBgzZoxRmQ5xdp0geW8Gi076oCdlQ+EkLH7AopN8K2xBqQQsfsCi0+6+TT32HcSMHarxSmKNOnCjUy+oXbu2lI/cnYTFD1h02t23rvxFfNXMPOJqnmvyvo8hbs4bmo6C+g6B38pV4n+n9dY859w9kG+t5Ynley+qAhaDumzZMl4o6d27NzRr1gxKliwJvr6+LkevWLFiakfWwt6jo6Nh0KBBsGnTJl6wOnPmDGRkZAgVsFiRqWHDhvyXGtm/nRWwYmJioEKFCrx41b9/f5g4cSKUKFGC76gaMWIE7Ny5E+rWrQusyOXh4ZFzh7NmzYKxY8dy5qtWrYImTZrw4hU7KJ/1ExcXB7t374bmzbXna+hhwrIAYdFJH0z1HGfN61j8gEUn+dYaX+r1gsUPWHTa2bcpX+6H2GnjNZYIaPE8nH68CX2h0pssEq+TbyWgCaQQXwFYAqHEVQBWPqHJn30CcbOnaCKim7WB2IbPUAHLGsw5vZBvLQaapzu78kVXwFq5ciW88cYb8PfffxsaMVbEwdJeeOEF/mhev379YP78+RAZGQkpKSlCBayFCxfC8OHDgfW1ZcsWpwUsVgCcMGECNG3aFPbt2+eAh12vatWq8Oeff/JCFtulxVpCQgIvXLHiF3vk8LHHHnPIW716Nd+dxR4jPH78uDByu06QvDeCRaedv1DlZw7iKzx1DCUQV0OYpIOIrzS6fBOJqzmuyZ98BHELtIcLB3bsBkF9XqFHWszhdZlNvlUE9n/dEl81fImrdVyTD+yBuFmvazqMadoSyo+eaN2FFPaExQ9YdNL3MmvNiqqAxXb99O3bV4gApgJWnz59oEWLFtC6dWt+j/7+/kIFrNOnT/MCEnv077333oN69eo5LWDVrFkTfvrpJ4cCVW6o2TutOnfuzPthjT2+2bZtW5cFqtTUVH6GVmxsLN85Vr58eaFxwrIAYdFJC6WQ/aSDsfgBi07yrbQVhRKx+AGLTjv6NnHLBkhYuUTji6CeAyGwU3f+d+IrNG0MBxNXw6ikAomvFDbdJOKqi0goIOXzvRA7c5ImJ7BjVwjq4/xsYqELKA7G4gcsOu34OcGIhezKF1UB6+GHH4ajR4/Ca6+9xs+IYjuC2NlNd0pjZ1Dlvh+RAhZ71LB+/fr8fLBvv/0WgoODoVq1apoCFttJFRISwh8vZGdssV1eeRvbYdWgQQMoU6YMnD9/nr88evRomDNnDj8QfvHixU6Rs0cKDxw4wM/I6t799gdko82uEySvfiw6aaE06jxzcVj8gEUn+dacH41mY/EDFp12823CmuWQuFF7MHvwkNEQ0Kp9jk2Ir9EZIxZHXMV4iUYTX1FixuKJqzFOIlEpBz+D2OkTNCm+jz0BwQNHgFexEiLduTUWix+w6LTb5wSjZrIrX1QFrHvvvZf/Oh7b4XM3NJEC1owZM2D8+PH8EPWZM2fyg9udFbDYziu2AyssLAzYmVvO2uXLl3lxkB3MzgpeTAfbfcV2YS1YsID/KqKzxnbHsV1y48aN4+eUiTS7ThAqYImMovlYLD7A9kZEXM17M78eiK8avsRVnGv8W3MgacdWTWLI2Kng36iZw9+JrzhfIxnE1Qgl+RjiK8+O3sfUsMuvV1fnEHqVKsOLWL51H3W/KANXxDLPsOjE9r3B7npRFbDY43Hh4eFw8OBBA1MPf4jRAtbJkyehTp06/NcD2Q4sdqi9qwLWF198AY0aNYL7778fzp496xQSexzQz8+Pv8aKWcWLF4cnnngCvvnmG1i/fj107drVaR4rXLHiGStkrVixQmgAsCxAWHTafeFxZQ7iKzRtDAcTV8OopAKJrxQ23STiqovIISBu1mRIPvCpJils2nzwfaSB5u/EV4yv0WjiapSUXBzxleOml0Vc9QjJv57y7UGIWjgLvKKjNJ2wIlbA8y/Kd64oE4sfsOik72XWGhVVAYudzcT+78KFC3wH0Z3ejBSw0tLS+FlXv/zyC//VQFbkY81VAYv9SmDLli2hUqVK8Ouvv7pEyHZfsccMs8+zYgUytkhs3ryZHxDvrE2dOhVef/11yH12ltExwrIAYdFJC6VR55mLw+IHLDrJt+b8aDQbix+w6LSDb2MmjoTU777WWCB8wUrwqVbTqTWIr9EZIxZHXMV4iUYTX1FixuKJqzFOslE/f/oxROzaCv5//q7pIqBlOwge+pps10rysPgBi047fE6QMYpd+aIqYLFznnr27Annzp3j5zBlF2tkBgRDjpEC1sSJE2HatGnAikfs39nNVQFr79698Oyzz8IDDzwAf/zxh1MMmZmZ4OXlxV9jxcLSpUvDI488wgtkGzduhE6dOjnNy9bSo0cPYL9KKNKyJ4hIDsUSASJABIgAEbjbCRRdMR/8zmmPVrgybAKkFS95t+Oh+ycCRIAI2IKAR2YGhO/aCiHffaXRk1yuIkS16gBpxWjNtsVgkQgHArVr17YVEVQFrKVLlwI7YJw9Bnft2jX+aBs7F4s9MueqsQPNsTa9AhZ7XPDRRx+FWrVqcS65D4B3VcA6fPgwP+ydsWOPBzprMTEx/FFN1qKiovi/mzZtCvv37+ePBrr6Jcjhw4fDwoULYejQofz/izQqYInQolgiQASIABEgAgDFFk0H38t/a1BcHjMd0iO0P9JCzIgAESACRKBgCYQcOggRu7ZoRGSEhvMiVmK1WgUrkK5OBPIQoAKWCUu0adMGdu7cKdQDewwOa9MrYFWvXh3Y+VejRo3iZ1rlbqw49cYbb0CJEiVydmaxnVPsUHb2N/aIYHJyMvj4+GjwsD5Z3xEREXDr1i3+er9+/WDlypW8L7bby1lr164dbN++HRYtWgRDhgwRwm7XLYp5bwKLzmzdpFfIhsLBWPhi0Um+FbagVAIWP2DRWVC+vdWlDWRc1f6HqMI7PgeP4BBdbxBfXURSAcRVCpvhJOJrGJVQIHEVwiUcnJdv6rHvIH7ZfMi4dEHTV1CP/hDYuafwNaxMwOIHLDoL6nOCWU/YlS+qHVhs59X169f5420eHh6GxqR9+/9+MtpQgo2C9ApYwcHBvCBltGWfZ1W0aFHO8dixY/zw97xtzZo1/FHNhg0b8t1urC1btgwGDRoEzZs3B3aOlrNWpkwZuHjxInz11Vf80HeRZtcJkvcesOikhVLEffKxWPyARSf5Vt6LIplY/IBFZ0H49kbbxpAVF+sw7B4+PlD4028BDH4+Ir4is8Z4LHE1zkomkvjKUNPPIa76jMxEOOPL/gMEK2KlHtaeX+jf+FkIHjEOPHxv/6iWuxsWP2DRWRCfE6zwjF35oipgWTEQmPrQK2B9+eWXkJ6e7vSWzp8/D3369IH77rsPVq1axWPYo4MBAQHAzqhau3YtjBkzhv9qYN7GzshiZ2UtWLAAhg0bxl9m/ZUtW5bn//PPP3x3Vu7Gzsdi52RFRkbyxztzP85ohLldJ0he7Vh00kJpxHXmY7D4AYtO8q15TxrpAYsfsOh0q2/T0+Hf5xoAZGY6DLVneAQU2rbPyPDnxBBfIVyGg4mrYVRSgcRXCptuEnHVRWQqID++CSuXQOKWDZr+vStWhuBXRoJPpaqmri2TjMUPWHS69XOCzIC7yLErXypgWTjIVnelV8DK73quzsBiOSdOnODnZrFiFDs7q2bN/36haMuWLdCxY0deoGKH5WefhcXy2rZtCzt27IAuXbrAunXr+GOIrMXHx0OjRo3g6NGjMGXKFJg0aZIwCrtOkLw3gkUnLZTCFpRKwOIHLDrJt1I2FE7C4gcsOt3l28yYaLjZrqlmvL1KloLIdR/esT5wF19hgMg+8Lu6P5pnVo28836w8MWiE9t6YFRv8p6dEL90PmQlJzkYySMwCIIHjgD/Zi3VGjVP71j8gEWnUR+4dZANXMyufKmAZWDw3BFy9uxZXjjK3Y4fPw7sDK8qVaoAK2Zlt82bN0O5cuXylZVfAYsljh8/HmbMmMGLWOwxS/b4H8vZtWsXvya7RocOHRyucenSJahXrx5cvXoVatSoAc2aNYPU1FT48MMP+aODdevW5Y8Psj5Fm10nSN77wKKTFkpRB8rFY/EDFp3kWzkfimZh8QMWne7wbcblv+FWt+c1Q+1doRJELFsnagEeT3ylsOkmEVddRKYCiK8pfC6TiasariLvD2knT/BHCtPP/K4RE/hiNwjq/Ypakbl6x+IHLDpFfOC2QTZwIbvypQKWgcFzR0h2wcnItdgh61Wr5r+dVK+AxYpUy5cvh+nTpzv8GiErls2dO5cXp5w19ijh4MGDYc+ePZCRkcFDAgMDoWvXrjB79mwIDQ01cguaGLtOkLxCseikhVLKhsJJWPyARSf5VtiCUglY/IBFp2rfsi8zUQO6acbat1ZdCJu9VMoDLIn4SqPLN5G4quGqep6pUo3FD1h03uk+yIy+xXdipRz8TGNJv/pPQsjIieARIvddS8TjWPyAReed7lsRb1kRSwUsKygi7iMzMxPY7q/o6GgoVqwYlCpVytDdsF8nZMUs9iuGbDcYK2KZaVgWICw6aaE040bjuVj8gEUn+da498xEYvEDFp0qfZt24geIHjlQ+0Xm8YYQ+vqbZmxABSxT9Fwnk28Vgf1ft8RXDV/iqoar7PtDwvpVkLj+9hnGuZtX6fsgZOhr4FOjtlLBWPyARaesD5QOsoHO7cqXClgGBo9C1BOw6wTJe+dYdNJCqd6z7ApY/IBFJ/mWfJubwN3u25Rvv4TYyaM1pmBnobD/Cm+23e18zfJzlU9cVZG93S/xVcOXuKrhauZzTcoX+/gjhZnRUY7iPDz4uVgBbR2PnrHyDrD4AYtOMz6wclxF+7IrXypgiY4kxSshYNcJQgUsJcPtslMsPsD2RkRc1fqY+KrhezdzTd63G+LmTNWADWj3EgQPGG4J8LuZryUAXXRCXFXSpQKWKrrkW1VkzRVe2SPkrIjFzsfK2wJatYfgIdr/yGHFnWDxAxad2L432F0vFbCsmOXUh2kCWBYgLDrtvvC4MgzxNT2VnHZAXNVwpXlGXHMTsGqeJW3/gH9hydsCu/WBoG59LINulV7LBOl0hEUvFp20frnHuVj8gEXn3ejbrKQkiF82D5L37NKY1vehuhDy2mTwLFzEUkNj8QMWnXejby01ZJ7OUBWwnnnmGbhw4QIcOXIEwsLCVHKhvt1MAMsChEUnLZTuMTAWP2DRSb4l36ooCLmHqjU7QxI3vAMJ61ZqJLNdV2z3lZWN1gUraf7XF3FVw5XeH4jrXf/+sGUDJKxcojGCZ+F7IGTEOPCt95hlJsGyjmHRSeuXZdbkHaEqYFWoUAHOnDkDcXFxEBwcbC0J6q1ACWBZgLDopIXSPXbG4gcsOsm35Nu7+QtK/NsLIWnbJo0J2HlX7NwrqxutC1YTvd0fcVXDld4fiOvd/P6Qfe+ph7/mu7Eyrl7RGCKo9yAIfPFlS4yCZR3DopPWL0tsmdMJqgLWuHHjYObMmbB69Wro0aOHtSSotwIlgGUBwqKTFkr32BmLH7DoJN+Sb+/WLyhx86Y5fTyE/dKg3+MNlRiD1gUlWKmApQZrTq/kWzWAiasario+12RcOg/xS+dD6g/fa0T7N3mOP1JotmHxAxadKnxgdoyN5NuVL6oCVkZGBixZsgSWLVsGjRs3hpdeegnKli0LhQoVAg8PD6fj4O/vb2R8KKaACdh1guTFgkUnLZTuMTQWP2DRSb4l396NBazYqWMg5esvNIMfNnsp+Naqq8wUtC6oQUtc1XCl9wfieje+P7gc9awsflZi0kebNSHeD1aB0HFvgFeJe6VNg2Udw6KT1i9pKzpNRFXAGjhwIOzatQsSExMhKirPT4q64JKVlWUtMepNCQEsCxAWnbRQKrGpplMsfsCik3xLvr3bvqDEvPYKpP7fUc3ARyxbB94VKik1BK0LavASVzVc6f2BuN5t7w9GRjxp59bbP/qRkeEQ7hEUDCGjJoJfA7kdvFjWMSw6af0y4mbjMagKWG3atIGdO3cavzsAoAKWEK4CC8ayAGHRSQule6yMxQ9YdJJvybd30xeUqEHdIf30r5pBj1z3IXiVLKXcDLQuqEFMXNVwpfcH4no3vT+IjHbq8aOQsHQ+pF84p0kL7Nobgl7uK9Idj8WyjmHRSeuXsAXzTUBVwLpy5Qqwxwh9fHzAy8vLEInChQsbiqOggiWQvQAVrAq6OhEgAkSACBAB9QSKz50MPv9e01zon4mzISM4RL0AugIRIAJEgAjcMQS8oqMg4uMtEHjqhOaekqrUhH+79btj7pVuxP0Eateu7f6L5nNFVAUsW5EjMZYSoAKWpTipMyJABIgAEbApgZLTXgOvuFiNukvTl0CWt7dNVZMsIkAEiAARsDuB8D07IPTLfRqZafcUhxude0NasRJ2vwXSZ0MCVMCycFDi4uLgjz/+gJiYGKhfvz74+flZ2Dt15U4CWLaAYtGZPXakV62LsfDFopN8q9av2Pjeib698dzjkJWa4jDQHsEhUHjH5+4Z/FxXuRP5uh2ikwsSV7WjQHzV8CWuargWxPtu8r7dEL9sHmQlJDjelKcn/4VC/0bNdG8Wix+w6CwIH+gOsoEAu/JFuQNr8+bNMH/+fDh27FjOGVeXLl2Ce++9/WsL7du3hzFjxkCdOnUMDA2F2IGAXSdIXjZYdNJC6R5XY/EDFp3kW/JtbgJ3km/ZF4kbrbWH6XoVLQ6RG8XO9rTKJXcSX6uYWNEPcbWCous+iK8avsRVDdeC+lyT9svP/HB3Z+csBnbsCkF9Bud7w1j8gEVnQfnArKvtyhddAYv9EuHy5cv5eHh4ePBdV8nJyZBdwDp16hRUq1YNgoOD4dChQ1C9enWzY0f5biBg1wlCBSw3DH6uS2DxAbY3IuKq1sfEVw3fO4Vr5vVrcLNTSw0k7/vLQ8TKTWrgGej1TuFr4FbdGkJc1eImvmr4Elc1XAvy82JmbAwkLJsPyQf2aG7Ot+6jEDp1Dnj4+Dq9cSx+wKKzIH1gxtl25YuqgLV7925o2bIllChRAmbNmgWtWrX6f/bOAzqqoovjN70HEkCadKT3JiI2mggiIE0QRIqA0hUVKWKhKCgoKqh80lQUpAsioiBVEEQ6gnTpLQnp/Tt3wobd7Gb3zds3m3fDnXM8YHZm3p3f/N97mz8zd2DatGkwadKkbAMLTx385JNPYPjw4dCmTRtYu3atO/PGbT1EwKw3CBtYHhLA7ctQ0QG1FxFzVatj5quGb37gmnb6JES90N0OkF/NOlBwxpdqwGnsNT/w1ThUj1ZjrmpxM181fJmrGq5m+L6Y8M1XED//C7sBehcpCgUmvAe+VarbfUZFD1TiNIMO9CjcrHxJGVidOnWC1atXw59//gl169YV8zBu3DgbA8syOWh0rVu3DqKjo8VqLC7mJmDWG4QNLM/qhooOqL2ImKtaHTNfNXypc009tB+iR7xgB8e/cVMoMHG6GmgSvVLnKzFUj1ZlrmpxM181fJmrGq5m+b6YvPlXiPtsOmTcvG430LCXx0Jgm/Y2P6eiBypxmkUHsio3K19SBtZ9990HhQsXhj/++CObf24GFq7CGjZsGBw5cgSqVq0qO19c38MEzHqDsIHlWSFQ0QG1FxFzVatj5quGL2WuKbu2Q8zYkXZgMHlu2BvvqAEm2StlvpJD9Wh15qoWN/NVw5e5quFqpu+LaSf/FcndU/fvtRtsUIeuEDpkVPbPqeiBSpxm0oGM0s3Kl5SBhVsH8bTBH374waWBNX/+fOjTp49YrdWwYUOZueK6eUDArDcIG1ieFQMVHVB7ETFXtTpmvmr4UuVaI+Y63Jo83v4XhKc6Q+iw19TA0tErVb5mO86bvyfoEJ8bTVi3bsBz0pS5quFqtu+LeAoursRKWrvCbsB+tepCgXc+ADwZl4oeqMRpNh1oVbtZ+ZIysOrUqQMpKSliVZWl5LYCC1df4Sos69MJtU4W1/M8AbPeIPzF1LNaoKIDai8i5qpWx8xXDV+KXEN3boHIFd/ZAQnu8TyE9H1JDSidvVLki0NlA0vnhOfSjHVgLE+q3xtZB3eXDhKXLoK4zz+yGzSaVwXemQYHUjPFZ/y8NVYXfJ8Zw5OUgTVy5Ej46KOPxH+YpB2LIwMLTx9s0aIFlCpVCo4fP24MKQ/3cvnyZfjiiy8gNTUVRowYIbZOOit79+6FRYsWweHDhyE5ORmKFi0KDz30EPTs2RPCw8MdNr1x4wYsXLhQnNYYFRUFRYoUgWbNmkGvXr0gKCgo18tt2rRJrII7deoUeHt7Q5UqVUQbS14yPaio3NBU4qRmsHC8eu4a7W1Yt9pZ6anJfPVQc92GGtd/P5wMBdettBtYyAtDILjbc64H7OEa1PhSiZdKnPze9cwNR0UPVOJk3Rqn25Sd2yBu1nRIv3jertOop7pC7IOPsYFlHG7RE99nxgAlZWCdO3cOqlWrBvHx8fDoo4/C008/Ddu2bYMlS5YIIyYpKUkkbl+5ciXgaYQLFiyA554z35dGV1OH5tCLL74IaDBhOXr0qDCJHBUcJxp7H3/8cfbHXl5eYvxY7r33Xvjpp5+gZs2aNs137dolTnG8evWq+Lmvry+kpaWJv1euXBk2bNggDEDrgn3269cP5s2bJ36M5hWWjIwM8Xc8DXL06NGuhufwcyo3NJU4+QWvS4bSjajogUqcrFtpCepqQEUPVOLESYj/32eQ8P0Cu/kIHTEagp58Wtc8qW5EiS+yoBIvlTj5eav6Dsvqn4oeqMTJujVWt+kX/hMmFuZtzFniGzSBMu9OAy8/P2MvamBvrFsDYTroyqx8SRlYyBWNlW7duokVQ7kVNFNwZdbbb7+tdlYN7h1PTBw8eLBYSYWG1b///gvp6elODaz33nsP3njjDQgODoZp06YJNmFhWXuXhwwZArgyq1KlSmLbpY+Pj4g4JiZG/AzNq0GDBsH48eMB84vhiqqXX34ZVq1aJfKGocmFZpilWK5VsmRJmDNnDrRs2VKYV0uXLhX9xMbGwpo1a6Bt27bSZMx6g+QcCJU4+QUvLUFdDajogUqcrFtdMpRuREUPVOKM+/h9SPxxmd08hI+dCAGPtZKeH081oMKX2nOBuapVMPNVw5e5quFK5fkVN3sGJC6z3/7uFRAAocNHQ2Ar+d/t1BLN6p11q5ayWfmSM7Bwmq5cuQJffvklrF+/Ho4dOyaMEzRwcMVQ06ZN4YUXXgDMl0WtdO3aVWzNGzhwIEyfPh0iIyPFdsDcVmDhiincKnjz5k2x3XDAgAE2Q8b8X+XLlxcrq3CbYJMmTcTnuFIKDb5WrVoJhtYFr1ejRg04ceKEMLJwlRYWXPWGxhWaX9Z9WdrOnTtXrM7CbYRomskWs94gOcdBJU4qL0zmK3un6KvPutXHTWsr5quVlFw9ClwxWXvyRtv3KI6ywOSPwL9R1jvXrIUCX2t2VOKlEid/T/DMnUlFD1TiZN2q023imuUQ/9l0yExNsbuIf8PGwsjyKVZCXQA6embd6oAm0cSsfEkaWBLcSVVF4+3JJ5+E9u3bi7gDAwOdGljXrl2DUaNGCUMPV0GFhobajbdq1arwzz//wNdffy3yYWFBc2///v02BpV1Q8tKq2effRa++eYb8RFuy+zYsWOuBhUm18ccWrdu3RIrxypWrCjF3qw3SM5BUImTX/BS8tNdmYoeqMTJutUtRamGVPRg9jhjxo50uO2i4Mz/gV+1WlJzkheVzc6X6vuXuapVM/NVw5e5quFK7XtN6r49Irl72gnHOaTxMBI8lMQshXWrdibMypcNLLXzLtU7rpTCXFSW4srA0tI5rsA6ffo0rF27Ftq0aSNWUuEWQ8xnhTm2cJVXzoIrrHAlW5kyZeDMmTPi49dee01sURw6dCjMnDnT4aVxS+Gvv/4qcmQ9/7zcw82sNwjVL9DUXpgcr5a7WX8dKvcX60D/HMu0pKIHM8cZPeIFSD203w77pVcmQK0nzLnVgt9nMneJ/rpm1q2jUXG8+udaS0sqfKnEyd8TtKjOvTqZiQlwavoUCN9kv7oYe/YtVxGNF91YAAAgAElEQVRCh78OfjVqu3chA1qzbg2A6KQLs/IlaWDh9rbFixfDnj174MKFC5CQkCBWK+F2ulq1aomVQo0aNVI7ox7o3V0Da/fu3YIDnkJ48eJFCAkJESuvcAVWgQIFAHNuOSpYF7cLYi4xNLwwDmSKq7BmzJghTkV0VHALI+bGGjNmjNimKFPMeoPwF36ZWXS/LhUdUPsCxVzd16azHpivGr5m5Rr1QndIO33SbtAXxr0P6WHhpj+1idrzi1q8ZtVtbncpx6vm+cW6Za7WBCjeZwGn/4VSe3ZAyp6dDiczqH0XCB36qtqJdtE7Ra44pPr16+cpN60XNytfcgYWJmZ/9913RXJzZwUNF9w2h6YN1eKOgRUXFwcPPvggHDhwQOTTwpMKsWzcuBGaN28ucmOdPGn/BRzr4HbAgIAAUR/NrOLFi8PDDz8MW7duFac99urVyyFSNK6mTJkicnFhTi6ZYtYbJOcYqMRJ7YsTxytzt8jXZd3KM5NpwXxlaGmva0auN3q0g4yrV2wH4eUFhdduhb0HD4qf8xdT7XMsU9OMenAUP5U4+b0roz79danogUqcrFv9WpRpaa0HTO6esGgeZMTYL3zwDi8gVmMFPNJCpnvD6rJuDUPpsCOz8iVlYC1ZskScsoeldu3a0KJFC7HNDU0qNF0wFxSC/vnnnyE1NVVsY8PtbFSLXgMLtwZ26NABtm3bBl26dBGr1SynCeIpge3atQPMjYUnE+ZWcPUVbjO05LNq0KCBYIt9YbJ5R+Wdd96BCRMmgHXuLK3sLTeI1vpcjwkwASbABJiAJwncO2EkeCcl2VwyIygYzr/1oSfD4GsxASbABJgAE/AoAb+rlyF8088QsneXw+sm1KgDUR27Q3pouEfj4ot5hoDZ/mGOlIFlybH08ccfw7Bhw3KdsePHj8MjjzwC169fB0x0XrBgQc/MrsFX0WNgoeHUtm1bYTw988wzYsWUn59fdmRo7j3xxBNw3333AXJyVDIyMsDHx0d8dPbsWShdujQ0btwYdu3aBd9++y306NHDYbvx48fDxIkToU+fPoCnEsoUNrBkaHFdJsAEmAAT8BQBr7RUKDXW/jtHWmRhuPj6u54Kg6/DBJgAE2ACTCBPCYTs2w3hG9eB35VLDuOIatcFYps2y9MY+eLGE2ADyw2mZcuWFVvbjh075rIXy0l6aIzUq1fPZX0zVpA1sHB7YOfOnSEqKgpef/11sZ3PsvLKMr4dO3aIrYW4LRC3BzoqMTEx2aYf9oUGYKtWrWDDhg1iayBuEXRUcJviRx99BMOHDxd/yhSzLlHMOQYqcVri5nhlVChflwpfKnGybuU1qKcFFT2YIc6MqBtwo8sTdph976sCEbMX2vzcDPHK6IHjlaGlvS5z1c5KT03mq4ea6zbM1TUjd2rkJ76ZsbcgftE8SPzhW4dI/KpUh9ARo8G3YmV3kGlqm5+4ahqwhyuZlS+pFVi47a1YsWKwadMml9O3aNEisZUNt8lhO4pFxsBatmyZWHGFW/++/PJL6N27t8MhX7p0CUqUKCHqJSUl2azOsjQ4ePCgSIYfEREBN2/eFD8eOHCg6BdXWeFWQUelU6dOsHz5cnC1Qs5RW7PeIDljpRInGwGeueOp6IFKnKxb1q01gbzWbfr5c3Dz+c52k+JfryEUmPqZ3c/zOl5Z9XC8ssS01Weu2jjprcV89ZJz3o65quGan7/XpOz9ExIWzYfUfXscwgvu2gtCBgxVCpZ1qxSvSB+EhVdgucEZDanNmzfDuXPnhAHjrGCydzwxD/NiWRKSu3HpPGmq1cBat26dyHmF4/zxxx/F9klnBU9rvHr1KuAphZjbKmfBvGF9+/aFxx57TCR9xzJr1iwYPHiw2J6IebQcFcxHhnODc4RJ32WKWW+QnGOgEmd+fmHK6Ep1XSp6oBIn61a1YrP6p6KHvIwz7Z8jEDXkebsJCXi4OYS/OcXhROVlvHqUw/Hqoea6DXN1zcidGszXHXq5t2WuarjeDd9rEhZ/LZK8Z8bH2UH0LnIPhA0fDf6NmyoBzLpVgjW7U7PyJbUCa//+/dCkSROxCmj06NG5ztipU6dEzibMkzVu3Di1M6uwdy0GFm6nxC2SeCojmk3Ix1XBHFXz588XDHGbYc6CObIwVxYagCNGjBAfnzlzBsqVKwdBQUFw4cIFsTrLumB+LGQeGRkpTENfX19XYdh8btYbJOcgqMR5N7wwpQSmqDIVPVCJk3WrSKg5uqWih7yKM+WvPyHm9SF2kxHYpgOEvTwm10nKq3j1qobj1UvOeTvmqoYrvx+YqzUBvs/MpYe0UyeEiZX8+waHgQU0bw1hw18Hr+AQQwNnHRiK064zs/IlZWDh6Xq4+gdzLOG2QFx1hH+Gh4cDJh7H7XF48t4333wjcjZhTibMAYWn6VkK/j/mgKJQtBhYDz30kBizzLa9ffv2CdMLzajt27dDnTp1snFYTnpEgwqNQOsE+B07doSVK1dCz549YcGCBdmr4OLi4qB58+bw559/Aq58e/PNN6XxmvUGYQNLeirdakBFB9S+SDNXt2TpsjHzdYlIV4W84Jq8ZSPcesf+H8i0bIXIi3h1gb3diON1h17ubZmrGq7U3rvU4mXdsm6NMAiT1q+BhO/mA27Btyve3sLECmzb0TDYrFvDUDrsyKx8SRlYaFitWrXKrZnC0/XS0tLc6kNF45MnT0K3bt1sut67d68w36pXrw5oZlnK4sWLoUKFCmBJyI4/r127ttNVT23atLHJXTV27FiYPHmyMLEw8Ttu/zt06BCsXr1aXBOv0aVLF5t4/vvvP2jUqBFcvnxZXK9169aQkpICmH8Ltw42bNhQbB/EPmWLWW8QNrBkZ9K9+lR0wF9M3ZtnV61ZB64Iufc5Fb6ejjNp3WqI/XCiHdyQfi9BcHf77YT8fnBPh7KtPa0H2fiovRc4Xr0zLNeOdSvHS2ttKlzvxvsMDz/B3FiJKxY7nE6/2vUhbMTr4FOqrNbpzrUe68BthE47MCtfUgZWr169RAJ32e1p1jODbU+cOKF2tnX0juZRzZo1NbXEJOs1atQQq9HatWunqQ3mD8OVaZaCJtXs2bNh0qRJNqcRoln2wQcfCHPKUcGthEOHDgXMu4XbFrEEBwcDzs3UqVPFajg9xaw3CP+Comc29behogNqX0iYq35NamnJfLVQkq/jSa6JSxdB3Of2p+eGDn8dgtp10hS8J+PVFJCLShyvERTt+2CuarhSe+9Si5d1y7q1JmCEHlL+3CG2FaYe2u8QbnCv/hDS2/HJ9lpnw4g4tV7LiHocrxEUAUgZWMYMmXuxJoBbL3H1V3R0tDjhsVSpUpoA4emEaGb5+fmJ1WBoYrlTqNzQVOKk9sWJ43Xn7nHdlnXrmpE7NZivO/Ryb+sprvELvoSEr/9nF0j42IkQ8FgrzYPzVLyaA2IDyyhUUv2wDqRwSVdmvtLINDVgrpow6a501/LNzBQmFq7IykxOsuPnc29pkeTdr679oWJaYN+1XLXAMaCOWfmygWXA5HIX7hMw6w2Sc2RU4mRDyH1NaumBih6oxMm61aI69+tQ0YMn4oybNR0Sl39vB7XAezPBv0FjKdieiFcqIDawjMSluS/WgWZUuioyX13YXDZiri4RuVXhbuebdvyoMLGSt21yyDGwTXthZIGPjxTnu52rFCwdlc3Klw0sHZPJTYwnYNYbhA0s4+faWY9UdEDNaGGuanXMfNXwVc01dto7gAlnc5aIT+eBb5Xq0oNSHa90QGxgGY1MU3+sA02YdFdivrrROW3IXNVwpfZ9UXW8SWtXihVZ6Vcu2QH3CgqC0OGjIbDFE5ong3WrGZWuimblywaWrunkRkYTMOsNwgaW0TPtvD8qOlD9gjeaOnM1mqhtf8xXDV+VXG+99Rokb/vdLvDI+UsBtzToKSrj1ROPqzYcrytC+j5nrvq4aW3FfLWSkqvHXOV4ydZmvneIZVy7IkysxB+XO8Tof/+D4rRC73uKucTMXF0icquCWfmygeXWtHJjowiY9QZhA8uoGdbWDxUdsIGlbT711mId6CWnrR0VvqrijB71EqTu22MHq9DS9eBdMEIbRAe1VMWrOyAXDTleNWSZqxqu1N671OJl3bJurQl4Qg/JOzaLbYVp/xx2CD/khSEQ3O05pxPjiTiNVAbHawxNNrCM4ci9uEmAyg1NJU5qX5w4XjdvIP5FVS1A5psnfFU8b6NefA7S/v3Hdjw+PlDkp60APr5ujVNFvG4FxLpViS/XvlkHarEzXzV8masarvz91jnXzNTU20ne5wHcPt3euoVvhUqApwH7VavpsCPW7d2pWzaw1M47966RAJUHEJU4+YWpUXhuVqOiBypxsm7dFKTG5lT0YHScN597GtIvnreh5F2gIBRa9otGcs6rGR2vIUE56YTjVUOYuarhyu8H5mpNgO+z/KWH1CMHhZGVsnObw4EFdewGoYNfsfuMdZC/dKB1NGxgaSXF9ZQSoPIAohInf9FTKtfszqnogUqcrFvWrapfUG50agUZMdE2gH1KloLIBcsMg873mWEoHXZEhS+VOPl5q1av1PiybtXqgflq45u46gexrTDjxjW7BrjFH1djBTzUjNz3cGrPA7PHm68MrMzMTLh06RIUKlQIAgICtN0pXMsUBKg82KnEafYHT26iY75qbkfmqoYr32cEuGZkwLU2TQHS0myCxVMG8bRBIwvfZ0bStO+LCl8qcfLzS61eqfFl3arVA/PVzjf94gVI+G4eJK1b7bBRwMPNxGmFuIKauWrnqqemWfmSM7BOnz4N7777LvTt2xeaNm2aPRczZ86EcePGQWxsLISEhMCrr74KEyZM0DNX3CYPCJj1BsmJgkqc1L44cbxqbzrWLfO1JkBFD+7GmRl7C653bGE3+f4NGkOB92YaLgp34zU8IBcdcrxqiDNXNVz5ewJzpfgeY93q123ylt/EtsK0E8cddhI6ZBQcKVVBfFa/fn39F/JgS34/GAOblIF1/fp1aNCgAZw9exbmzJkD/fv3FxSWLFkC3bp1E3/HlVfJycni759//jkMHDjQGFLci1ICVG5oKnHyC1OpXLM7p6IHKnGyblm3Rv2Ckn75Itzs2cEOaMCjLSF83CQloPk+U4KVn7dqsfIKBuYrCPDzS60QmK8+vpmJCWJLYcJ38x12kFymPER17A41n2yv7wIebsU6MAY4KQNr6tSp8Prrr8PQoUPh/fffh6CgIEGhTp06sH//fpgyZYr4HP/erFkziIyMhBMnThhDintRSsByQyu9CHfOBJgAE2AC+Z6A/8XzUOxje5MqrvFDcLNjj3w/fh4gE2ACTIAJMIH8RCDg9L9QYOPPEHj8iMNh3Xr0cYh+wv4frfITg7wci9lWuJEysFq1aiX+hQDzXPn7+4t5PHnyJFSsWBHKli0Lp06dAi8vL/HzYcOGwSeffAIXLlyAEiVK5OWc87U1EGADSwMkrsIEmAATYAJOCQSc+heKfjHdrs6txx6H6Nb85ZblwwSYABNgAkyAKoGwbRuhwMZ14B0fZz8ELy+IafkkxDRvQ3V4po2bDSw3pqZGjRoQEREBW7duze5l1qxZMHjwYBgxYgTMmDEj++effvqpWKm1e/duse2Qi7kJUFlSSSVOy2xzvGp1T4UvlThZt2r1So2vrG5T/tgCMeNH2UEMeWEIBHd7Tjlc2XiVB+TiAhyvmhlgrmq4Unt+UYuXdcu6tSZgZj2knzsjthUm/fqT40nz8YGQ3gMguEcftZOqo3czc3U0HLPGS2oFVqVKlaBYsWKwZcuWbMZPP/00rFixAtasWQNt27bN/vlnn30GQ4YMgV27dkGjRo10SIybeJKAWW+QnAyoxEntixPHq/ZuY90yXypfTPXGiV9kY997y26iw0aOgcC2nll5xfcZ32dIgHXAOtD7HFNLznnvrFu19Jmv8XyTN66HG1/NAr8rlxx27uXnD8FoZD2j/h+wtI6OdaCVlPN6pAysRx99FI4ePQoXL14EHx8fuHXrltgemJ6eDpjgHU8ftJThw4cDnkyIpxbi9kIu5iZA5YamEicbQp7ROxU9UImTdcu61fOLX+LKHyDu02l28MLfnAIBDzf3DFQ2LpRzpvIcoxInP2+VS1ZcgIoeqMTJumXdWhP4e+sWCNu+CSL27oSMmzccG1mBgRD83AAI7trTM/CcXIXvM2OmgJSB9dZbb8Hbb78tThbs0qUL4CorXH3VtWtXWLx4cTYRzJFVu3Zt8f9XrlzJzotlDDLuRQUBKjc0lTj5Ba9CpfZ9UtEDlThZt6xbWQMr4dt5ED9vth24AlM/Bf96nl19zfeZWv1S4UslTn7eqtUrNb6sW7V6YL5q+Fq41i1TChLXrICkNcshIzrKsZEVHCy2FgZ1yrvDXFgHxuiAlIF17do1wDxYV69ezR49rrpCMVSuXFn87MCBA9C6dWuR6B0NrwkTJhhDintRSoDKDU0lTmpfnDhepbcXmX8BZh2o1QE1vq6et/FffgIJS762gxYxawH4VqrqGZhWV3EVr8cDcnFBjlfNjDBXNVypPb+oxcu6Zd3K/gOSWmLaes+p24yrl+8YWbdiHBtZoWFZRlbHbtouYmAtvs+MgUnKwMIh46mD77zzDhw6dAhKlSoF48ePB+vM+P/++y9UqVIF+vfvD7NnzwZvb29jSHEvSglQuaGpxEntixPHq/T2YgNLLV7mq4ivs+dt7IwpkLR2hd2VIxcuB58S9yqKyHm3/H5Qi50KXypx8ntXrV6p8WXdqtUD81XDNzeu6ZcvidVYiWuXQ2ZsrMOLe4cXEDmygtp3UROcg15ZB8agJmdguRp2ZmYmnDlzBsqVK+eqKn9uIgJUbmgqcVL74sTxqr0ZWbfM15oAFT3kFuetiWMh+fcNdpNaaMWv4B0WrnaynfROhSs/b9VKhHXAfPPT81btbOrvne8z/ey0tKTC11Wc6ZcuZBlZa1ZAZnycYyOrYESWkdWukxY0btVxFa9bnStobNZ4SRlYX3/9tchpNWqU/THZOefso48+gp9++gnWr19PMgfW5cuX4YsvvoDU1FQYMWIEFC5c2Kksjx07BgsXLoSDBw9CYmIilC5dGjp06ADt2rXLtd2NGzdEm+3bt0NUVBQUKVIEmjVrBr169YKgoKBc223atAl++OEHOHXqlFjhhivesE3dunV13zpmvUFyDohKnPwLim4pSjWkogcqcbJupeSnuzIVPTiKM+aN4ZCy+w+bsXv5+UHhn7YBeHnpZmJEQypc+T4zYrZz74N1wHzZwFKrAeyd7zO1jKnw1Rpn+oX/IHHNckhCIysxwbGRFVkYQnq/AIFtOyqDqzVeZQFIdmzWeEkZWGjI4NbBEydOuMQ/btw4mDRpkliNVaZMGZf1zVQBzaEXX3wR0GDCgicvokmUW0Gja9iwYZCSkiKq+Pr6Qlpamvh7+/bthdnk5+dn03zXrl3w1FNPZecTs26D+cQ2bNggtmhaF1zd1q9fP5g3b574sWV7ZkZGhvg78h49erQulGa9QXIOhkqc/AuKLhlKN6KiBypxsm6lJairARU95Iwzelg/SD1y0GbM3hGFoNAP63RxMLoRFa58nxk987b9sQ6YrzUBKnqgEic/v9TeX9T4yuo2/b+zd4ys5CSHML0L3wMhvfopMbJk4/XMbOd+FbPGa3oDC1ci4X9YRo4cKXJgrV692ul8YrJ3XLV05MgRwJVJlSpVyuv513T96OhoGDx4MCxatEgYVpjPKz093amBhaunHn74YWFaffjhh/D8889DcHAwoEHVt29f+Oeff8SKtWnT7hwxHhMTI5hgMvxBgwaJPGIlSpQQK6pefvllWLVqFTRs2FD04WX1L9rvvfcevPHGG1CyZEmYM2cOtGzZEtC8Wrp0qegnNjYW1qxZA23bttU0Xn7BS2OSbmDWB09uA+F4padYUwPmqgmT7krMVzc6pw2tud7s1w3Sz562qe9TuixEzl2i5uI6emUd6IAm0YQKXypxUvtFleOVuFl0VGXd6oAm0YT5SsCSqKqXK36fEKcWYo6s2wtAcl7Wp2gxCO7Rx1AjS2+8EkgMrWrWeE1vYFlWUumZDdx2d+HCBfD399fT3ONtunbtKlZLDRw4EKZPnw6RkZGQnJzs1MBCE+nXX38Vq5/GjBljE/Px48ehWrVqYvXV2bNn4Z577hGfY13k2qpVK7HF0rrg9fCkR1zlhkYWrtLCEh8fL4wrNL/QNGvSpIlNu7lz54rVWbiNcO/evdLszHqD5BwIlTj5i560BHU1oKIHKnGybnXJULoRFT1Y4iw79U3IuHHNZpx+1WpCwZlfSY9dZQMqXPk+U6kC3tqkli7zVcWXn1+qyGb1y3zV8HWXa9qZk2JbIW4vhNu7l3JG6lO8JAQ/85whRpa78aqhmHuvZo3X9AYWGim44mrnzp3wyy+/iFU+ERERTucvMDBQrGCaOHEiNG7c2NNzrft6L7zwAjz55JNi2x8WHIczAwu3GBYtWlTUxVVnjri0bt1amFS4YgpPZsRSp04d2L9/v41BZR20ZaXVs88+C9988434aOXKldCxY8dcDSrcvog5tG7duiVWjlWsWFGKg1lvkJyDoBIn/4IiJT/dlanogUqcrFvdUpRqSEUPGGep8SPAKyXZZnz+jZpAgckfSY3ZE5WpcOX7TK0aWAfM15oAFT1QiZOfX2rvL2p8jdJt2ql/7xhZGRkOIfuULAXBXXu6ZWQZFa9nVGBe49X0Bpb1BMnkwPLUxBp5HcxbhVsBLcWVgYVJ6nG7Xs2aNeHAgQMOQ7GsturduzfMnz9frKQKCwsDzGeFBhiu8spZcIVV06ZNRe4wzCGG5bXXXhPbEIcOHQozZ850eC3LajDMkYVbGWUKlRuaSpzUXkAcr8zdIl+XdSvPTKYF85Whpa0uJlm93u5Ru8oBzR6H8DHvauvEw7VYB2qBU+FLJU5+76rVKzW+rFu1emC+avgazTXtxPHbpxYuzzVgn1JlILhzD11GltHxqqF6p1ezxkvKwMKtcnhaXpcuXVTPlyn6d2VgffzxxyLXF67YwhVSjgrm08KVVLjlD40pXHmFK7AKFCgAmHPLUbl48aLYLoiJ2dHwwjhw9RVeY8aMGeKajsqAAQPESi/cyojGmUwx6w2ScwxU4qT2xYnjlblb5OuybuWZybRgvjK0XNfNuHYFbnS3P0E3qH0XCB36qusO8qgG60AteCp8qcTJ7121eqXGl3WrVg/MVw1fVVzTjv8DiWuXQ9Jax79f42h8ypSH4Ke7SRlZquJVQ5dXYBnC9fHHHxe5nDC5OBow+b24MrDefPNNePfdd0Wy9q++cpwLBLddIjdM2o4J7Tdu3AjNmzeH8uXLi4T4jgpuBwwICBAfoZlVvHhxkSh+69atsHDhQujVq5fDdmhcTZkyBdDIwpMRZQqVG5pKnNS+OHG8MneLfF3WrTwzmRbMV4aW87ppp05A1IAedpWCn+0LIX0GGXchBT2xDhRAteqSCl8qcfJ7V61eqfFl3arVA/NVw1c117RjR7JOLVyX+wFyvuUqQlCHLpqMLNXxGk3ZrPGSWoGFJgzmV8I8WKGhoUbPken6c2Vg4emCePLgiy++CLNmzXIY/5YtW+CRRx4RK6rOnz8vTgls164dVK1aVZzSmFvB1Ve4zdCSz6pBgwYiAeHixYsBk807Ku+88w5MmDBBrPiy5M7SCtWsN0jO+KnESe2LE8er9U7RV491q4+b1lbMVysp5/VSD/wN0S8PtKsUMmCYyDth9sI6UDtDVPhSiZPfu2r1So0v61atHpivGr6e4pp69JDYWpi0fk2uA/GtWAmC2nVyamR5Kl6jaJs1XlIGlmWFD55416dPH6PmxrT9uDKwRo8eDe+//z5g8vcvv/zS4Th+++03aNGiBZQrVw5OnToFP//8MzzxxBNw3333AZ5S6KhkZGSAj4+P+AhXvJUuXVokw8eVb99++y306GH/r+NYd/z48SJxPs4NzpFMsdwgMm24LhNgAkyACeQPAkFH9kORBZ/bDeZmp2chrlHT/DFIHgUTYAJMgAkwASZAlkDA2VMQumsrhPy1M9cxpJQsDXH3PwRx9+ef7y7169c31ZyRMrDS09Phk08+EauN0JTp3r27MGYKFSoEXl5eDsGiCUS1uDKwJk+eDGPHjhUcMNeVo7Jq1SrA5Pe1a9eGffv2wY4dO+DBBx8U2wJxe6CjEhMTAwULFhQfYc4x/HurVq1gw4YNYmsgbhF0VEaOHAkfffQRDB8+XPwpU9jAkqHFdZkAE2AC+YdAyF9/QKElC+0GdP3Z/pBQy1xfmvIPdR4JE2ACTIAJMAEmoIdAwJkTELpzK4T8/eddYWSxgaVHJbfbvPTSS7B69WpISEgQxoqWgtvgqBZXBtZ3330nVkM99NBDgFsFHRU0/IYNGyaSsC9fvhwuXboEJUqUEAnak5KSwM/Pz67ZwYMHoVatWhAREQE3b94Unw8cOFCs8sJVVrhV0FHp1KmTuAYml8dryhSzLlHMOQYqcVri5nhlVChflwpfKnGybuU1qKeFmfSQuOw7iJs9w24YBd6bCQe9st5PZvvilBtzM3HVoguOVwsl+TrMVZ6ZTAvmK0NLe13mqp2VnprMVw81123ymmvqgb2QuGYFJG9cn2uwvpWqQFDbjmJrYV7H65qobQ2zxktqBRauJMIVRTIlPxtYmMOqevXqEB4eLgw9NKVylt69e4vE62+//TZg0ncsRYsWhatXr8Lu3bsBc1vlLPPmzROJ4R977DGR9B0LrnobPHgwtG3bVuTRclTKlCkD586dg82bN4uk7zLFrDdIzjFQidMSN8cro0L5ulT4UomTdSuvQT0tzKKH+AVfQsLX/7MbQsFP5oJf1Rr8RU/P5Eq0MYsOtIZMJV4qcfLzVqvy3KtHRQ9U4mTduqdHra2p6MEscabu+xRXveYAACAASURBVEske0/+fUOuiNHIulqjvthayP8wp1WJjuuRMrBw9RBuI8RVQ5YcTa6GX7hwYVdVTPu5qxVYGDieJnj69GmR2wpPG7QuiYmJInk7mlt///031KlTR3yMOarmz58PmEMLTw3MWTBHFvY3Y8YMGDFihPj4zJkzYrtmUFAQXLhwQazOsi6YHwvzZEVGRsKVK1fA19dXiqtZHkCugqYSJ7/gXc2kMZ9T0QOVOFm3xujSVS9m0EPcZx9C4orFdqFGzl0CPqXLip+bIU5XLK0/53hlaMnXpcKXSpz8vJXXoJ4WVPRAJU7WrR4VyrehogezxZmydzckrV0OyZt/yxU65siK7PQMBDzSHLwL2P4+LT9TaluYja9ltKQMLJkpQsNl79698PTTT8s0M1VdLQYWbtdDkwlXYuE2QjSQLAVXTOHKqUcffRQ2bdqU/XPMhVWvXj1hRm3fvj3b2MIKS5YsgW7dugmDCpO+W3Jh4We4DXHlypXQs2dPWLBgQfaKr7i4OGjevDn8+eefNiu9ZGCa9QbJOQYqcfILXkZ9+utS0QOVOFm3+rUo0zKv9RD73gRI+nWdXciFFv8E3oXu/KNTXscpwxTrcryyxOTqU+FLJU5+3srpT29tKnqgEifrVq8S5dpR0YNZ40z5a5c4tTB5653fv3POgHfBCAh4pIUwsvxq1ZObIA/VNivffGtgYVJzNFpwFVJAQICHpln/ZU6ePCmMI+uCBhxugURzyjoZ/eLFi6FChQqiampqKrRs2VJs28PE7JiHKiwsDPD0QTSU0ND6448/oFKlSjZ9Y/J3TAKPJlbnzp0Bt/8dOnRI5BjDa+I1unTpYtPmv//+g0aNGsHly5dFUvjWrVtDSkoKLFu2TGwdbNiwoYgD+5QtZr1B2MCSnUn36lPRAbUvUMzVPV26as18XRG683nMuJchZec2uwaF12wBrxyHrjBX7Vz11GS+eqi5bsNcXTNypwbzdYde7m2Zqxqu1L4vUovX7LpN2f1HlpG1fbNTgfnVqX/bzGoB3uEF1IpRonez8iVpYKHZ8/vvv8ONGzcgIyPDbhpwy9y3334rtrpdu3YNKGwjRPOoZs2amiSFSdZr1KiRXTc+Ph7GjBkDc+fOBVwNhQXzYeFJjZjEPad5hZ+jSTV79myYNGmSzWmEaJZ98MEHwpxyVHBl29ChQ2HdunViOyeW4OBg6NWrF0ydOlXk49JTzHqD5BwLlTipvYA4Xj13jfY2rFvtrPTUZL7aqEWPeAFSD+23qewVFAyFf/zdYQfMVRtXvbWYr15yztsxVzVc+XsCc7UmwPcZ6wEJUNFByq7tItl7yh+OD12zzKZ3RGSWkfUwrsqqq3aSNfRuVr7kDKw33nhDGCWOjKuc81C3bl2xjfBuKbjaDM09XBWFK6oKFSrkcujIEdtER0dDsWLFoFSpUi7bYAU8nRDNLMxHhqvB0MRyp5j1BmEDy51ZlW9LRQfUvkgzV3ktyrRgvq5pRfV/BtLOnLKp6F34Hij0veNDQSh9MaX2POB4XevVnRr8PHCHnuu2zNc1Iz01mKseatrbMF/trGRqUuN65NsFEHxwL4Qe2geZSYlOh+pXt4EwswIfexy8QkJksBhW16x8SRlYy5cvF1vksGAOp7Jly4ocTlgwz9P58+fFdjk0YtDowlVBBQqYZxmeYWrKhx2Z9QZhA8uzYqOiA2q/ADJXtTpmvs753ujWFjJuXLOp5FOmHER+ZZ/E3boSc2XdUtQD65Z1y7pVqwHsne8ztYyp8KUSZ87fG+rcW0Ikek/e8huk/XPY6WR6RxbK3l7oV6O22onP0btZ+ZIysNq1awdr1qwRicTbt28vEOPJe7jiyJKk/MSJE9C9e3coXbo0fP/992KFEBfzEzDrDcIGlme1Q0UHbGCp1QXrIP/wvd72IchMTrYZkF+1mlBw5lcuB8k6cInIrQrM1y18uTZmrmq4UnvvUouXdcu6ZeNVrQZyM15T/twhjCw0tDITE5wG4V+vIQQ83AICWjxhlzdURfRmfS6QMrDKlSsnVlThKXqW0rZtW7H9zbISC39+/fp1kSMKV2BNmzZNxXxynwYTMOsNwgaWwRPtojsqOuAvpmp1wTqgzzczPg6ut29mNxD/hg9AgSkfaxog60ATJt2VmK9udE4bMlc1XKm9d6nFy7pl3bKBpVYDuRlYlqumX7kEKVs2CjMr9eghp8Hgic3CyGrWCvyq3smLbfQIzPpcIGVglSxZEmrVqiUSiFvK008/LXI47d9vmxh29OjRMGvWLLh69arNCX5GTyz3ZwwBs94gbGAZM79ae6GiA/5iqnVG9dVjHejjprWVar7ply/BzZ5Zq6StS8BjLSF87CStYfIWEc2k9FVUrQN9UeXeikq8VOKk9h7jeI2+o2z7Y90yX2sCVPRAJU7Z5xeeXmjZYpiZEO9UnP71G0HAoy0hoEUb8DJ455lZ+ZIysOrXrw+pqalw4MCB7Ins27cvrFq1Sqy68vLyyv75vHnzAD87fPgwVKtWTe1TiXt3m4BZbxA2sNyeWqkOqOhA9kUkBUFBZeaqAKpVl8z3Doy0E8cgalAvO+CBT3aEsBFvSE0Ec5XCJV2Z+Uoj09SAuWrCpLsS89WNzmlD5qqGK7Xvi9Tize+6xX8QTNm2KWtV1pGDTkXqXbiIWJUV2KI1+FaqaoigzcqXlIHVu3dvWLhwISxdujQ7mfuUKVNgzJgxIgcWJnK3lDfffBPeffdd2L17NzRo0MCQSeRO1BEw6w3CBpa6OXfUMxUd8AterS5YBzT5pu7bA9GjXrILPrhbLwh5Yaj0oFgH0sikGjBfKVyaKzNXzah0VWS+urC5bMRcXSJyqwLzdQtfro3vJq5iVdbtLYaYpsFZ8a9/PwQ0exwCW7YB8PbWDd+sfEkZWHjCYJMmTcQkDBo0CGbPni22GKBBVaJECUAzq1KlSrB37154/fXXITExUazMKliwoO6J44aeIWDWG4QNLM/MPzVDiFq8VO4valw53jvPh+Stm+DW26/bPTBC+r4IwT366HqQsG51YdPciPlqRiVVkblK4ZKuzHylkWlqwFw1YdJdifnqRue04d3INf3SRUjZsTlrVdbhO7vSHIHyLnwPYPqGwBZtwLfCfdKTYFa+pAwspP7pp5/CiBEjYODAgfDZZ5+JiejcuTMsW7bMblL69esH//vf/6Qnixt4noBZbxA2sDyrBSo6oGZcMFe1Or7b+SatWw2xH060gxw69FUIat9FN/y7natucBobMl+NoCSrMVdJYJLVma8kMI3VmatGUDqrMV+d4Fw0u9u5ihMMt/0uzKzMuFintPwbNBanFwa2eELzZJiVLzkDC4ljYnb8D08axJKUlARvv/02fPfdd2LFVdmyZeG5556DkSNHgp/Bycw0zzhXlCJg1huEDSypaXS7MhUdsIHl9lQ77YB1QIdvwg/fQvwX9qcKho1+W+pLkqMRsw7o6EBtpFm9U9EDlTipvcc4XrV3GeuW+VoToKIHKnGqfn6lX7pwe1XWJkg9bHuwXU5lexcpCoHNHoeAlm3At2x5kt/HSRpYah8x3HteELA8gPLi2nxNJsAEmAATkCdQcP1qCN9451RgSw/Xnn8REqvWku+QWzABJsAEmAATYAJMgAnoJhD0zyEIOrIfgg/sBe/EBKf9JFapAfH17oeE2s7zheNBemYqbGCZaTbu4ljYwLqLJ5+HzgSYADkCESu/h7A/NtvFfWXQy5BcTj7PAjkAHDATYAJMgAkwASbABExKwPfGtSwj69B+CDhzwmmUaQUjIaHe/cLMSi1S1K4uG1gGTPKJEydg8eLFsGfPHrhw4QIkJCRAYGAgFC1aFGrVqgUdO3aERo0aGXAl7sJTBKgsAaUSp2XeOF61CqbCl0qcrFu1ejWK763J4yF543q7YCO+/BZ8yxtnXrFu1eqB+arhy1zVcDXq+aU2OvveqeiBSpysA88omIoeqMSZ17pN2bkNkndsgZRtmyDjVoxTEfk3eVgkfQ94uJlpt+6TW4GFua7effddSE9PdwofTayvv/4aQkJCPHOn81XcIiAeQJmZUL+B8yWMbl3EgMb8oDQAopMumK8avsxVDde8/kKid1Tu6CFmzAjApKE5S+S3q8CnaHG9ITls506chgaisTOOVyMondWo8KUS5934/NIpPbeaUdEDlThZt27JUXNjKnqgEqdZdJt+4T9I2bEFkndshtSD+5zqwad4CbhR7wG49XAL4BVYmm8d+4pLliyBbt26iQ9q164NLVq0gDJlygiTKiUlBa5cuSKcwp9//hlSU1Ph+eefh3nz5rlxRW7qKQJ7/9gB98z7DCIeeAj8atYBv1r1wMvf31OX13wdflBqRqWrIvPVhc1lI+bqEpFbFe4WvtHD+kHqkYN2rAqv/A28QsPcYuio8d3C1XBwGjtkvhpBSVZjrpLAJKszX0lgGqszV42gdFZjvjrBuWjGXPVzTdm5NWtV1vbNkBET7bCj9PACcGHse2xg6ccM0LJlS/j111/h448/hmHDhuXa1fHjx+GRRx4RJxJeu3YNChYs6M5lua0HCBxcvRKKzZycfSW/qjXAr0adLDOrTn3wCjbHSjp+UKoVA/NVw5e5quFq6fVu4HuzTxdI/++sLUhfPyiybhuAl5cSwHcDVyXgNHbKfDWCkqzGXCWBSVZnvpLANFZnrhpB6azGfHWCYwNLDTirXtPPn8sysnBV1iHbEwzZwDIAf9myZSEgIACOHTvmsrf33nsP3njjDbEiq169ei7rc4W8JXD0q8+h8HdzHQbhW+E+8KtZ97aZ1QC8C+SdIckvILU6Yb5q+DJXNVzvFgPrRpfWkBF10waid8EIKLTUPg+WkaRZt0bStO+L+arhy1zVcL1bnrdq6eXeO+tWLXnmq4YvczWWa8ofuCprs9hmiKuy4us3hhtde/MKLHcwV61aFYoVKwabNm1y2c2iRYvg2WefhSNHjgC242JuAiemvAUFfvvJZZA+pcpkm1n+dRuCd+EiLtsYWYEflEbS5F+o1NK80zvrVi3pfMs3MwOut3kIMlNTbQD6lCwFkQuWqYUKYNrkobkNPN/qQPlMa7sAFb5U4mRDSJvu3K1FRQ9U4mTduqtIbe2p6IFKnNR0iyvucVXWmeRUSKxemw0sbbeN41poSG3evBnOnTsH3t7eTrvCZO8zZswQebFw1RYXcxPAB5DflUtQ/twJSFq3CjLj410GjAmDxRZDXJ1VvxH4FCvhso27FfhB6S5B5+2Zrxq+zFUNV2pfSGTixVNqbjzd0g6cb6WqEDFrgVqgt3tn3arFzHzV8GWuarjKPL/URiDXOxU9UImTdSCnP721qeiBSpysW71KdNyO1CmE+/fvhyZNmsD48eNh9OjRuZI4deoUNG7cWOTJGjdunLHEuDclBHI+gDKuXRVGVuK61ZBx7YrLa3pHFsoys2rUAf8GjQFXaqko/KBUQfVOn8xXDV/mqoZrfv1Ckn7xPNx87mk7aH51G0LBaZ+phWnVO+tWLWrmq4Yvc1XDNb8+b9XS0t4761Y7Kz01ma8eaq7bMFfXjNypYVa+pAysGzduwJo1a2D48OFiW2CHDh3En+Hh4ZCRkQGXLl2Cbdu2wTfffAOtWrWCkSNHgpeXF2RmZmbPHf7/gw8+6M5cmrItJrdfuXIlnDhxQpzAWLx4cXj00Uehe/fu4pRGRwV5Lly4ELZv3w5RUVFQpEgRaNasGfTq1QuCgoJyHSdu4fzhhx8AjUJcCVelShXRpm7durrZOLtBMPdK8sb1wtBKO3PK5TXwNCzLyiz/ho3Bt1xFl220VjDrjZxb/Byv1pnVV48KXypx8i8o+nQo28qZHtKOH4Wol3rbdRnQ9DEIf+t92Uu5VZ916xY+l42Zr0tEuiowV13YNDdivppRSVVkrlK4pCszX2lkmhowV02YdFcyK19SBhYaVqtWrdI9CdjQx8cH0tLS3OrDTI2Tk5OhR48esHz5cmHWYY6w4OBgsc0SjawyZcrA2rVroXr16jZh79q1C5566im4evWq+Lmvr282l8qVK8OGDRugVKlSNm3QCOzXrx/MmzdP/NyyjRPNQ/z7pEmTnK6Mc8ZN6w2SGXsLkrf/DknrVkPq4QMup8LLPyDLzKpdT6zMwu0v7hStcbpzDSPbcrxG0rTviwpfKnFaCHO8eaPblL1/QsxrQ+wuHvj4kxD26ptqg3LQO+tALXLmq4Yvc1XDld8PzNWaAN9nrAckwDq4O3VAysDCVT64+gfNFr0F2+IqpfxSXn31Vfjggw+gUqVKsHTpUqhZs6YYGq6oeumll+D777+HChUqwNGjR8HPz098FhMTI+qjeTVo0CCxJbNEiRJiRdXLL78sTMKGDRsCmlxoilmK5WTHkiVLwpw5c6Bly5Zi5RteF/uJjY0VK+Tatm0rjVfPAygzIQFS9vwhzKyU3X+4vqaXl9hi6FenvjCz/KrXct0mRw09cUpfxMAGHK+BMAn/gs06YB24+uKfvPk3uPXuG3aggp5+BkJfelktwFx6Z92qxc581fBlrmq4soHFXF29x9QScq93fi64xy+31sxVDVezP29JGVhqp4hm75GRkcKsQtMJV1RZl/j4eLEtMDExEX777TexPRALrpTC3GC4zXL9ettj0HFFV40aNYTJZ90n9oXGFZpfuOUQc5FZl7lz54rVWbiNcO/evdIw3X0AZaakCBMredMvkPz7Bk3X961SHfzrNADcZuhXu76mNu7GqekiBlbieA2EyQaWWphWvbNu1aLOyTdp7QqInTHF7qLBvfpDSO8BaoNx0jvrQC165quGL3NVw9Xsv1BR/wWbdcu6tSZARQ9U4uTnl7H3FxtYxvL0aG9JSUnZuapOnjwJ5cuXt7t+tWrVxOqrr7/+Gnr27Ck+r1OnDmBCfEemF35uWWmFpz5iPjEsmF+rY8eOuRpUKSkpwiy7desW/Pvvv1CxolzeKUMfQBkZWWbW9s0ibxZY5UDLbYJ8y98HfvUaipVZ+B/1LyL8oPTMrWiobhWGTCVO1q1CEeRiECYsXgjxcz61u3DoiyMgqFMPzwSUy1VYt2rxM181fJmrGq78fmCuFA0W1i3rlnVrvAbYwDKeqUd7xJxXV65cga1bt0LTpk3trl2oUCG4efNm9ue4kiosLEwktsck7riCK2fBFVbYF+bPOnPmjPj4tddeg2nTpsHQoUNh5syZDseIWwoxmTzmyHr++eelOKj8wpfy1y5haCX9/CNkxsW6jMvn3tLgX/9+8G/4QJaZZbVlVWWcLgPTUYHj1QFNogkVvlTi5C96EuJzo6pFD1X+3gkJ3y+w6yls1DgIbG27oteNy+luyrrVjU5TQ+arCZN0JeYqjUyqAfOVwqW5MnPVjEpXRearC5vLRszVJSK3KpiVLxtYbk1r3jceO3YsTJ48GZ544gmxosqS5wojQyOpb9++4qTGQ4cOiUTruPIKV2AVKFAAoqOjHQ7g4sWLYrsg1kfDKzAwUKy+wlVYM2bMgBEjRjhsN2DAAJEba8yYMWKbokzx1A2Suu8vkTcLtxqmX7nsMkSfosXAT6zKyjKz9h45ItrUr69ty6HLCyiu4CmuRg2D4zWKpG0/zFUNV0uvFPlGrlgEoTu32oEJn/AeBDyUtd08rwtFrvx+UKcaKnqgEifl5xffZ8bfZ6xb45la98h81fBlrmq4mv39wAaW2nlX3jvmrHruuedgyZIlcN9998Hjjz8OISEhwqj6+eefxVY+TKyOJwti2bhxIzRv3lxsN8Rth44KbgcMCAgQH6GZVbx4cXj44YfFKq6FCxcCJtN3VNC4mjJlCqCR9cUXX0iNPS8eQKmH9ouVWSk7tkDaadeJ/b0jC0FsufsgsVI1qNK1B3iFhUuNMS8q5wVXd8bJ8bpDL/e2zFUNV7O/4HMb9dlXXoTg/X/ZfVxg6qfgX6+RWlgSvbNuJWDpqMp8dUDT0IS5aoDkRhXm6wY8J02ZqxquVL8nUNEDlThZB8beX2xgGcszT3rDnFOjRo2C1atX21y/bNmy8OGHH4rVU5bTBNHMateunViVdeT2aiJHQePqK9xmaMln1aBBA3FU6eLFi6Fr164Ox/nOO+/AhAkTwDp3llYgef0ASvvncJaZtXsnpB454DJsr5AQ8KtaE/yq1QLfajXFiYZeQUEu23m6Ql5zlR0vxytLTFt95qqNk95alPjGjB4KKXt22Q014rP54Fu5ml4EStpR4ooAOF4lMsjulApfKnHyL1Rq9UqNL+tWrR6Yrxq+zFUNV7M/v9jAUjvvynv/8ccfoVu3bmLF1JtvvgmPPfaYWIGF5hSuhtq1a5f4/LvvvhMmFq7Kwu2GuFrr+PHjDuPLyMgAHx8f8dnZs2ehdOnS0LhxY9HXt99+Cz16OE7sO378eJg4cSL06dMH8FRCmWKmB1DaiWN3zKwD2k5U9AoJBT80siyGVq064OXnL4NASV0zcdUyQI5XCyX5OsxVnplMCyp8o4b0ATTrc5bI+UsBc/+ZrVDhavYvernNK/NVo3jmqoYr32fM1ZoA32esByTAOrg7dcAGltp5V9p7TEyM2CKIydg3bdoEjzzyiM31EhMTRa4mPIXQsvVvx44d8OCDD4ptgbg90FHBfgsWLCg+ioqKEn9v1aoVbNiwQWwNxC2CjsrIkSPho48+guHDh4s/ZYrlASTTxhN1/S5fhKDjhyHw2BEIPPGP5ktmBAVDcpnykFK6nPgzqXwlAG9vze25IhNgAkzASALFP3gL/K5dsevywvipkB4aZuSluC8mwASYABNgAkyACTCBfELAbLmf2cAiLCxMqo7bAzG/1T//ODZXLKuinn76aVi2bBlcunQJSpQoIRK0JyUl2SR9t6A4ePAg1KpVCyIiIsQJhlgGDhwIX375JWB/uFXQUenUqRMsX74cPv74Yxg2bJgUWbMaWNaDwF/+Ao8dhsDjRyDwzAnwSk7WPMaM4BBIvm1mJZetAMloaHFhAkyACXiAQMmJr4NP7C27K/036RPItDpl1QOh8CWYABNgAkyACTABJsAECBFgA0vHZKWnp8POnTvh9OnTEBkZKVYa4TY5ZwW30506dQq++eYbHVek0eSTTz4RRlHTpk1FgnVHBVdC4cqo+++/XzDEUrRoUbh69Srs3r0bMLdVzmI5vRC3I2LSdyyzZs2CwYMHQ9u2bUVSeEelTJkycO7cOdi8ebNI+i5TqCwBtcRZr3IlwCTwqYcPQOrh/ZB66ABARrrmIXuHFwDfarWyth3Wrgt+1WtrbitTkQpXy5g4XpnZ1V6XuWpnpaemmflef/IRyExKtBlWRkAgnH9nhulPUzUzV0c64Xj13D3a21DhSyVOfu9q1547NanogUqcrFt31Ki9LRU9UImTdatde1pqmn4FFp6m16VLF5FM3FLCw8PhrbfeghEjRmQnJ885WEvScUxEnl8LnjyI+a3QkMKVVZZE7dbjRdMJzacOHTrAihUrxEeYo2r+/PkwevRokScrZ8EcWZgra8aMGYIxljNnzkC5cuUgKCgILly4IFZnWRfMj4V5stBgvHLlCvhK/qs+lQdQbnFm3Lh+29DKMrXSjh2Rkp13gYJZhlb1muBfpwH4Vqku1T63ylS48oPdkOnOtRPWwd3HNzM+Dq63b2Y3cO/CReDMq1mraM32L2o5g2Xd3n26dTZiKnqgEie/d9XeX9T4sm7V6oH5quHLXNVwNfvzy9QGFuZiwtPy0Jzx8/ODChUqQHJysliJheWZZ56Br7/+2qFZcjcYWJj7ChOsJyQkAK7GGjJkiI2Kz58/D9WqVYPY2FiRVB2NKyz79u2DevXqCTNq+/btUKdOnex2FlMMDSpcwWbJhYUVcLsiblvs2bMnLFiwQGxDxBIXFwfNmzeHP//8E95++22RTF62UHkAaY0z/fJFSD24T5haaWhonTkphcS7YIRICO9Xsw741akPvvdVkWpv9gcPG266plN3I6261X0BgxtyvO4BTb96GW72eMquE5/SZSFy7hIySU9ZB+7pwFVr5uuKkL7Pmas+blpbMV+tpOTqMVc5XrK1ma8sMW31mas2TnprmZWvqQ2szz77TJgyaLagcVKqVCnBH7e+9evXDzBXE56Ih9sEc64+uhsMLGTx+eefw4svvii4oMGEW/fCwsLg2LFjMGfOHIiOjoZmzZrBL7/8kn2yINYdO3YsTJ48WZhYnTt3Btz+d+jQIVi9ejXgqrXFixeLlW/W5b///oNGjRrB5cuXoXbt2tC6dWtISUkRubVw62DDhg3F9kHsU7aY9QbJOQ69caafOwOpB/ZmbTk8tB/SL12QQuQdEZllaNWuB364Qqt8RU3t9carqXMFlTheBVD5lBY1UK16NZNu006dgKgB9ifF+lauBhGfzRdRmyleZ5NDJU7LGDhetbcaFb5U4mTdqtUrNb6sW7V6YL5q+DJXNVzN/vwytYGFK6zQSMGT8x544AGbGcJVRY8//jj88ccfDrfC3S0GFkJZu3atWPmExp51ueeee0TydTSrAgICbD5Dk2r27NkwadIkm9MIq1evDh988IEwpxwV3Eo4dOhQWLduHWBuMizBwcHQq1cvmDp1KuD2Tj2FygPIqDjTTh6H1H1/ZefQwi2IMsU7shD41chaneVfpz74lC7nsLlR8crE5k5djtcderm3Za5quJrtBY+rPqNH2p8S61+3IRSY9lk2BCp6oBKn2XSgVe3MVyspuXrMVY6XbG3mK0tMW33mqo2T3lrMVy855+2YqxquZv9eY2oDC1cO/f777+K0PH9/f7sZun79usi7dPLkSZHTqXfv3tl17iYDyzLoqKgosb0yLS0NChcuLHJWOcqLZQ0yIyND8MOVWsWKFcte5ebqdsDTCdHMsmztRBPLnULlAaQqztR/DkPq33sg9dA+YWplxsVK4fQuVAT8atUVZhau0PIpmbVa7UVbjwAAIABJREFUUVW8UsFJVOZ4JWBJVGWuErB0VDUD35SdWyFm3Ct20Qc8+CiEvz3V5udmiFcLZipxmv2LXm6sma8WFcrXYa7yzGRaMF8ZWtrrMlftrPTUZL56qLluw1xdM3Knhln5mtrAwlVA69evB8z1hMnBHRXcKocmFuaBwm1yeEIhlrvRwHJHoHnd1qw3SE4unooz9cDfkLJvD6Qe/BvSDh2AzNQUqSnyLnIP+NduABciCkFyhcpQu0UrqfZ5VdlTfI0aH5V4qcTJRoA+ZSb9ug5i35tg1ziwZRsIe/0tu59T0QOVOFm3+nQr24qKHqjEybqVVaC++lT0QCVO1q0+Hcq2oqIHKnGybmUV6Ly+qQ2sV155BaZPnw6YC+ull17KdSQbNmwAPDkvJCREbG1r0qQJG1jG6kR5b1QeQHkSZ3p6lpmF/+3fC6lHDkrPh1ihVbka+FauCpgLB//uFaZvu6f0xSUa5AlfifjyytB0I0TRlLm6S9B5+7zkm7jqB4j7ZJpdgEHtu0Do0FcdBp6X8crMBJU4+YupzKzqr0tFD1TiZN3q16JMSyp6oBIn61ZGffrrUtEDlThZt/q16KilqQ2sPXv2iMTguD1txowZImF7aGioQwJ4eh6ejufj4wPvv/++OHVv//79IiE5F/MToPIAMkOcmUmJwsxKwS2H+/4CzKelp/iUuPe2mZVlauF/Xv62udL09OtOGzPwlYmfSrxU4uQXvIz6ABIWzYP4ubPtGgV37w0h/Qbn2hkVPVCJk3Urp1u9tanogUqcrFu9SpRrR0UPVOJk3crpT29tKnqgEifrVq8SHbcztYGFIQ8fPhxmzpwposek7T///HOuBH766Sdxch5uJ7QUNrCMFYyq3qg8gMwYZ0bsraz8WWhq7dsDeOKh3uJbtsJtM6vq7RVb1fR2paudGfk6GwiVeKnEyS947bdN/JefQMKSr+0ahPR7CYK7P++0Iyp6oBIn61a7bt2pSUUPVOJk3bqjRu1tqeiBSpysW+3ac6cmFT1QiZN1644a7dua3sBCAwpXVE2bNg3atWsnkrU7K5gTq3///rBt2zZRjQ0sYwWjqjcqDyAKceKJhpYth3G7toPvzRtuTZtly6Fl+yGaXKoKBb7WY6cSL5U4+QWv7c6KnTEFktausKuMWwZx66CrQkUPVOJk3bpSnDGfU9EDlThZt8bo0lUvVPRAJU7WrSvFGfM5FT1QiZN1a4wuLb2Y3sCyBIon6+Epe0WKFNFEYMeOHYAn5T355JOa6nOlvCVA5QFEJU7rB6XPrWioGuALaceOQtqxI5B67Ahkxt7SPeG4zdCy5dDvdk4t3I5oRKHIF8ddv359I4avrA/mqgyt6NiTfG9NGgfJm36xG1DYaxMgsFVbTQP1ZLyaAsqlEpU4+YupO7OsvS0VPVCJk3WrXXvu1KSiBypxsm7dUaP2tlT0QCVO1q127WmpScbA0jIYrkOXAJUHEJU4XT0o0y+ev21mZZla+F9mSrJuAWFC+Kwk8VmJ4vHvmDhetuQXvrLjVl2fuaol7Cm+MeNfgZQ/ttoNJvytqRDQ9FHNg/RUvJoDYgPLXVS62lPRgav3ma7BK2zEXBXC9fA/GBgxEip6oBIntecBx2vEXZR7H6zbu5MvOQMrLi4Otm7dCufPn4crV65AeHg4lChRQpw6WLZsWbWzyL0rI0DlAUQlTj0vzLQzJ2+bWUfFKi00tdwpek4+zM983WHpblvm6i5B5+09wTf61ZdErrucpcDUT8G/XiOpAXoiXqmA2MAyApd0H1R0oOd9Jg3DwAbM1UCYDrpivmr4Mlc1XKk9v6jFy7q9O3VLxsA6e/YsjBkzBlauXGmTpN0ybV5eXvDAAw/A66+/Dk899ZTa2eTeDSdA5QFEJU6jXkCWLYeW7YdocrlTXJ18eLfxdYelTFvmKkNLvq5qvtFD+0Lq0UN2gUV8Og98q1SXDlh1vNIBsYFlFDKpfqjowKj3mRQcNyozVzfgaWjKfDVA0lGFueqAJtGE+UrAkqjKXCVg6ahqVr4kDKzly5dDnz594NatrLw9vr6+UL58eShYsCAkJibChQsXRL4rS+nbty988cUXoh4XGgTMeoPkpEclTlVf+HGboWXLYertnFq4HdGdYn3y4YlMb0i5t4zpc0qp4usOR2dt73bdquLqCR1EvdAd0k7bGsdegUEQMWsB+JTWt+qYih6oxOkJHajQMPNVQdWzOfGMGAHrwAiKufdBhS+VOPl5q1av1PiybtXqwax8TW9g/f3332JlVXJyMtSuXRvGjRsHbdq0geDgYJsZO3LkiDCtZs2aBZjwfeTIkTB9+nS1s8q9G0bAcoMY1iF35DEC3okJ4P/fGfA/fxYCzp8F///OAiaOd6ekFi0OqUVLQNaft/9+TzF3uuS2TIAcgRLvjwffm9dt4k4PDYPLw8ZAeoGC5MbDATMBJsAEmAATYAJMgAnQImC2w6pMb2DVqlULDh48CD169IB58+aBv7+/0xnfvn07PP744xAfHw+//vorNG/enJZC7tJo2cDKXxOPBhYaWcLQEqbWGUCjy63i5XXHzMo2topDahE2ttziyo1NR8A7OQmKT50APnG2p4WmRRSCyyPGQUZgoOli5oCYABNgAkyACTABJsAE8h8BNrAk5nTXrl3QuHFjqFy5sjCx/Pz8NLWeO3cu9OvXD9q2bQtr1qzR1IYr5S0Bsy5RzEmFSpyWuM0Ur9EnH2bPjbc3+JYtDz5lytv+eW9p5aI2E19ng6USpxl1q0VERvLNuHYFbvbtBpk5DF/UeMSc7wC8vLSE5LSOkfG6HYyTDqjEybpVqYI7fVPRA5U4WbesW2sCrFu1emC+avgyVzVczf5+MPUKLEzaPmXKFJg9ezYMGjRI8wxlZGRA0aJFITY2Vvyn1fjSfAGuaDgBKg8gKnGa/cFjic/okw9thOnjC75ly9kbWyVLGaZfKnqgEicV3aoytjHXVdSAHgCZmTaXwETtmLDdqEJFD1TivNt1a5QuXfVDRQ9U4mTdulKcMZ9T0QOVOFm3xujSVS9U9EAlTtatK8XJfW5qA+vZZ5+FRYsWweHDh6FatWpSI+vQoQOsWrUK/vnnH7GCi4u5CVB5AFGJk/KD0u/KJagcGgTpZ09D2plTWX+ePWX3S71uRfv6iZVavmXKgY/4s7z4E09IlC1U9EAlTsq6xdjdWWKdemg/RI94wU6CfnUaQMEPZslK02l9KnqgEufdrFtDhemiMyp6oBIn69Yz6qWiBypxsm5Zt9YEWLdq9WBWvqY2sDB/1caNG+Hq1atQpEgRqRkaMGAAzJkzB3bu3An333+/VFuu7HkCZr1BcpKgEmd+fMGnnzsjjCw7YysjwxDBevn5Wxla5e4YW8VL5to/FT1QiTM/6laLOFN2bYeYsSPtqvo3bgoFJhp/GAkVPVCJ827VrRZtG1mHih6oxMm6NVKdufdFRQ9U4mTdsm7ZwPKMBvAqZn0umNrAevLJJ2Ht2rVw+vRpKFtW7rjw7t27w/fffw94imGdOnU8N9N8JV0EzHqDsIGlazp1N9Kjg/T/zt4xttDgOnN7xVZ6uu44rBt6BQTk2IaYtS3Rp1gJ0z7YWbeGTL3mTvTo1tJ58m/r4daU8XbXCni0JYSPm6Q5BpmK7sQrcx1361KJk3+hcnemtbWnogcqcbJutenO3VpU9EAlTtatu4rU1p6KHqjEybrVpjuttUxtYFlWUeFWwKeeekrrmES9KlWqwLFjx+DmzZsQEREh1ZYre54AlQcQlTj5QQmQfv4cpJ09DelnT2X9eSbrT0hLNUTgXoGBkFykKKQVugcKV6sBPsVLiv+8i5cAn6LFDbmGUZ2wbo0i6bgfvXyT1q6E2BmT7ToNbN0OwkbZm1pGjUJvvEZdX2s/VOLk563WGXWvHhU9UImTdeueHrW2pqIHKnGybrUqz716VPRAJU7WrXt6zNna1AbWwoULoXfv3tC5c2f44YcfNI9827Zt8NBDD0HVqlXhyJEjmttxxbwjQOUBRCVOflDmruX0C/9l59Wy5NfCVVuZqSnG3QDe3rcNrRLgUwxNrSxzywfNreIlwSs0zLhraeiJdasBkhtV9PBNXPYdxM2eYXfVoA5dIXTIKDeicd1UT7yuezW+BpU4+Xlr/Nw76pGKHqjEybpl3VoTYN2q1QPzVcOXuarhavb3g6kNrKioKLF1EE8SXLZsGXTs2NHlLN24cQOaNm0qkrfjCYajR4922YYr5D0BKg8gKnGa/cGTm+Lykm/6xfOOja2UZMNvEK+w8Cwzq9gdY+uOyVUSwMvL0GvmJVc9A8nv8SZ8Ow/i5822QxP8TG8I6T9YDzKpNlT4UomTn7dS8tNdmYoeqMTJutUtRamGVPRAJU7WrZT8dFemogcqcbJudUvRYUNTG1gY8eTJk2Hs2LHg7+8PEydOhKFDh0JgYKDDwfz2228waNAgOHHiBFSvXh127doFISEhxhIzaW8ZGRmwYsUKWL16NVy4cAEKFy4MDRs2hP79+0OBAgUcRo1mH65y2759O6BZiInymzVrBr169YKgoKBcR7pp0yaxIu7UqVPg7e0ttmtim7p16+qmQ+UBRCVOflDqlqJdw/RLF3IYW1nbEjOTkoy7SI6ecAtizlVblu2J3gXkt0SzbpVNlehYhm/8V7Mg4bv5dgGFPD8Qgnv2Uxvo7d5l4vVIQLlchEqc/Lz1jEqo6IFKnKxb1q01AdatWj0wXzV8masarmZ/P5jewMrMzISuXbvC0qVLBctChQpBy5YtoUaNGsKYSUxMhDNnzgCaKkePHhV10IjBbYSVKlVSO6sm6R1XqLVv314wwOLr6wtpaWni7/fccw9s3rxZmEzWBc09zCuGJzzmbFO5cmXYsGEDlCpVyqYNzkW/fv1g3rx54udoXmFB8wz/PmnSJN0r3qg8gKjEafYHT263DiW+6ZcvwbGNG8Dn5nW4188H0i9dBGF2Xb4AmfHxyp4OXkHBtvm2rLYnehcrCV5+fnbXpsQVg8+v8cbNmg6Jy7+3m5/QQSMgqHMPZZrJ2TEVvlTi5OetZ6RLRQ9U4mTdsm6tCbBu1eqB+arhy1zVcDX7+8H0BpbFIMGVWO+99x7Eu/jFEI2cL774AooWLap2Rk3Ue4cOHQAT3ePWydmzZwtzD1dhjRo1SpzEWK1aNTh06BB43d6WFBMTI8w9NK9wxdr48eOhRIkSYkXVyy+/LPrC1Vtoclna4HCR/xtvvAElS5aEOXPmCCMRzSs0F7EfNNLWrFkDbdu2laZD5QFEJU6zP3jyg4HlzGjJuBUDGWhmif+yjC3x/5ez/l9l8S58T3auraxVWyXhREwspEUWhjqPNVN5acP6zo/3Wez0SZD00yo7RmEjRkPgk08bxk5LR1T4UomTn7daVOd+HSp6oBIn69Z9TWrpgYoeqMTJutWiOvfrUNEDlThZt+5r0roHEgaWJWA8UXDJkiWwZcsWOH36NKARg6uwihcvDvXr14dnnnkGKlSoYCwhk/eGq65w21+5cuXgwIEDEBoamh0xrsJq0KABhIWFwYIFC6B8+fLiM1wpNW7cOGjVqhWsX7/eZoTJycnCAMNtmNanP6JxiMYVMscth02aNLFpN3fuXLE6C7cR7t27V5oalQcQlTj5QSktQV0N9Oohy9hCU+v2qi1hbl0UJheaX6oKrs7yLlQEvAsXsfnTx/L/hQqLz7wCc99CrCo26371cvVEbI6u4SreW5PHQ/JG22ct9hM2+m0IbPGEx8N2Fa/HA8rlglTi5OetZxRDRQ9U4mTdsm7z83vXM7Or/Sr8XNDOSqYmc5WhJV/XrHxJGVjy2PN/i549e8K3334Ln332Gbz00kuaBlynTh3Yv3+/jUFl3dCy0urZZ5+Fb775Rny0cuVKkUQ/N4MqJSVFbN28desW/Pvvv1CxYkVNsVD7AmXWGzk32ByvlAylK6vgmxkfZ7ty6/aqLYvpBenp0nHKNvAKCRVGlo8Ds8u7UGGwGF5wexuxbP+u6qvg6uqa7nzuLN6YN0dByo4tNt2jQYjmVUDTR925rO62VPhSiZPae4zj1X3raGrIutWESXcl5qsbndOGzFUNV37eMldrAnyfGaMHNrCM4ZhnvaBpdP36dTh37pxdzipHQeFKKlyRhfmsMIl7ZGSkXTVcYYXbEcuUKSPyi2F57bXXYNq0aSKJ/syZMx2OF7cU/vrrryJH1vPPPy/FhMoNTSVOfmFKyU935bzQQ8bVyzb5tnBLomW7YkbUTd1j0dPQO7JQ9koue7OrcNZnBQpKd50XXKWDtGqQW7wxrw2GlL27bbr2LhghzCv/Bo3duaRbbanwpRInP2/dkqPmxlT0QCVO1q1m6blVkYoeqMTJunVLjpobU9EDlThZt5qlp6kiGQMLk4qj+YL5nnIry5Ytg61bt4otcnfD6YNXrlyBYsWKQXh4uNjah9sqFy1aBMePHxeJ3HFbJa7Qws8tBVde4Qos3HoZHR3tEOXFixfFdkFMzI7M8dRHXH2Fq7BmzJgBI0aMcNhuwIABIjfWmDFjxBzIFCoPICpx8oNSRn3665pND3gyYs58W/j/8adPgu/N6+CVmqp/sDpb6tm2aDaurobuKN7oYf0g9chBm6Y+xUoI88qvRm1XXSr9nApfKnHy81apXLM7p6IHKnGyblm31gRYt2r1wHzV8GWuaria/f1AwsAaMmSI2CL32GOPwcaNG3OdKczddPjwYZHD6bfffhMn8OXnsmfPHpFs/b777oOxY8fCwIEDAXNY+fj4QPrtbUbI4Mcff4RGjRoJFMivefPmIh/WyZMnHeLB7YABAQHiMzSzMMfYww8/LMzBhQsXQq9evRy2Q+NqypQpgEYWJtKXKVQeQFTiNPuDJzdtMF+Zu0Z7XQvXuhUrQMaNa5Bx4zpkXMc/r4k/02//Kf7/5g3tHRtY03rbYpSXN6SHF4QSVauBd0Sk+M+rYNafelZ0GRimw66sdZuZmAjRw/tB2qkTNnV9y5aHsNHvgG/FvD8dl8p9RiVOft6qvsOy+qeiBypxsm5Zt2xgeUYDlJ5f1J4L/LxVq2Gz8jW9gTV9+nR45ZVXxOx069ZNnKqXW8Hta/3794ezZ8+KJOOY7B3NnPxaLAncCxYsCJiwHU2svn37QqFCheDIkSMwcuRIYeThiYxHjx6FiIgIcUpgu3btoGrVqqJObgVXX+E2Q0s+K0wGjyJevHgxdO3a1WGzd955ByZMmADWubO0srfcIFrrcz0mwAQUEcjMBJ9b0eATEw2+t2Ky/p79J/4862feSYmKAnDRrZcXpIeGQXpoOGSIP8MgIzQc0sOs/p79/+GgKk+Xoyh9YmOg6OwPwffGNZuPU0qVhevd+0JaoSJ5w4yvygSYABNgAkyACTABJsAEdBDAXV1mKqY2sK5duybyMCUmJoq8S5h/yVU5f/68MK/+++8/+N///idOxsuvBc2pFi1aiOG9++674mRB65KUlARVqlQRhh7mrxo1ahT8/PPP8MQTT4hVW7jV0FHJyMjINv6wbenSpaFx48awa9cukTC+R48eDtuNHz8eJk6cCH369AE8lVCmsIElQ4vrMoG8J+CVkiyMLV+LwRWDRpe12ZVldHmlpeVpsBlBwXdMLovhFRaeZYKFoQmGf88ywDL9/HXHiqZV0dkfgE/sLdvncIXKcKNHP3E9LkyACTABJsAEmAATYAJMgBIBNrAkZuvzzz+HF198URguP/30k+aWFpMGYeM2u/xa0FBCYwkLmlFoSuUsFlMJV12tXr0aduzYAQ8++KDYFojbAx0VzKeFq7qwREVFib+3atUKMA8Zbg3ELYKOCq74+uijj2D48OHiT5li1iWKOcdAJU5L3ByvjArl61Lhm5dxZsREm3bbYs4Z9woIAO+CkeB1e9ti1vbFQtnbGK3/7mVlSB1Ys1qYV97JSTZd+jduCuFvvgde/vqNMXlVum6Rl3pwHd2dGlTi5OetzKzqr0tFD1TiZN3q16JMSyp6oBIn61ZGffrrUtEDlThZt/q16KilqVdg4Uqe+fPnw4oVK5wmb3c0sIoVK4ocT5ioHBOW58dy4cIFuPfee8XQcLVa4cKF7YaJK6FwFdoDDzwgzKtLly5BiRIlRIJ2XKHl5+dn1+bgwYNQq1YtseXw5s2sU80wv9aXX34JaIjhVkFHpVOnTrB8+XL4+OOPYdiwYVLIqTyAqMTJD0op+emuTEUPpo8zI0OYXOkiL9d1OPv3X4Db8e4JDISM6JuQGR0FGbf/y0yI1z1fhjb08so2t0S+q8wMm+4DHm0J4ePkDrMwND4nnZleD7djpxInP289o1wqeqASJ+uWdWtNgHWrVg/MVw1f5qqGq9nfD6Y2sFq2bAmY1yq31UXOpuypp54Sycv//vtvcepefi1FihSB69evw59//ikSuucsH3zwAbz66quALH/55RfxMebEunr1KuzevRswt1XOMm/ePJFLyzpp/qxZs2Dw4MHQtm1bkUfLUcHtnufOnYPNmzeLpO8yhcoDiEqcZn/w5KYN5itz12ivm5+4ZqamQmb0zWxDK8vYsjW58GcW0yszx6oo7dT01wxs3Q7CRo3X34HillT0QCVOft4qFuzt7qnogUqcrFvWLRtYntEAXoWfC2pYM1c1XM3+fjC1gdWsWTPAROVXrlyRPlEQE4kvWrQIdu7cCffff7/a2c3D3i2r1HD7Hia8z1nat28vtg5i/ivMg4XF0mb06NHi1MCcBbds4jbMGTNmwIgRI8THZ86cgXLlykFQUBDgyi9cnWVdLNsZIyMjxXz5+vpKUaHyAKISp9kfPGxgSd0eble+m3WbmZKSZXhF3Ta9xJ9Zf7de2WX5GbiZsyuoQ1cIHTLK7TlT2QEVPVCJk5+3KtV6p28qeqASJ+uWdcsGlmc0wAaWOs78vFXH1sy6NbWB1blzZ1i2bBns3bsX6tatKzVDmOcJt8zpWb0ldaE8rrxv3z7AXF8BAQFi5ZP1KixccfX444+Dl5cXYD3cFogF/16vXj1hRm3fvt1mhdqSJUvEaY9oUJ06dSo7Fxa269ixI6xcuRJ69uwJCxYsENsQscTFxUHz5s3FKrC3334b3nzzTWkqVB5AVOLkL6bSEtTVgIoeqMRpBt1mJidnrejKaXhFWVZ6oRmW9Xc0wSAzM1s7wc/0hpD+g3VpyZONqOiBSpxm0K0e/TBfPdRct2Gurhm5U4P5ukMv97bMVQ1Xfj8wV2sCfJ8ZowdTG1hvvfWWMEQmT54Mb7zxhuYRX758WeSGCgwMBExI7uPjo7ktxYrICFmhidW9e3coX748HDlyBJYuXQppaWkwZswYmDTJNhfL2LFjBVc0sdAoxO1/hw4dEqu1MjMzYfHixdClSxcbHHiyY6NGjQD51q5dG1q3bg0pKSnCZMStg2ieoYmGfcoWKjc0lTj5hSmrQH31qeiBSpwUdZuZlAgHtm4Bn7hYqNGxsz4hebgVFT1QiZOibjFm5qvmxmOuarjyfcZc2QhQqwGKfPl5q1YTZuVragPLsi0N8zyhIeMoSbmjabNsH8SVRN9//73amTVJ71999ZVIro5GkqWULFkSxo0bB4MGDbKLEk2q2bNnC2PL+jTC6tWrA+bNQnPKUcGthEOHDoV169ZBenq6qBIcHAy9evWCqVOnQnh4uC4iZr1Bcg6GSpz8RU+XDKUbUdEDlThZt9IS1NWAih6oxMm61SVD6UZU9EAlTtattAR1NaCiBypxsm51yVC6ERU9UImTdSstQacNTG1gYeSPPPIIbNmyRWyTw+1rllP3HI0qOTkZXn75ZcCE45iDCQ0w3Cp3txQ0pXDb340bNwBzUeFJjK5KRkZG9mmNxYoVg1KlSrlqIj7H0wnRzMJTDCtUqCBMLHcKlQcQlTj5QemOGrW3paIHKnGybrVrz52aVPRAJU7WrTtq1N6Wih6oxMm61a49d2pS0QOVOFm37qhRe1sqeqASJ+tWu/a01DS9gYU5rBo3bgxRUVFidU///v2hXbt2UKNGDZGfKSEhAU6fPi1OK8QVRSdPnhTjxoTmmNicCw0CVB5AVOLkB6VndE9FD1TiZN2ybq0JsG7V6oH5quHLXNVw5fcDc+X3g1oNUOTLz1u1mjAr3/+3dyZgW1Tl/79FTEFFpcyFkNwxdxF+LmkpSSppmWsiuZBLGW6l4oKmiZqaa5pLiZJWuIVmLmEabuUSaW65IUqupYKiKSn8r+/5X8P18PK87zPnPDPPM7d8znX9rvzxnjNzz2e+z5mZ79znnsobWDotgqc6Tcr4adRUB0rL4n7wgx806srfK0Sgqj+Qjoi8xMmNXmvE7UUPXuJEt+jW4w00ukW36LY1GsieCfS/WpnhoXm5/nqJk/m2Nar3ogcvcaLbYnXrwsDSIb/77rt28cUX2xVXXGFPPfVUKDRe27T8TSbXwQcfbP379y+WElsrnYCXCchLnEyUpUs27MCLHrzEiW7RLUZAazTgaf7yNi8w35arYfiWwxeu5XD1Nn95ixfdLpi6dWNg1Z4e1XhSNpa+MLjUUkuZzKsVVljBunXrVu5ZZOulEfAyAXmJ09sFiHhL+2m5MtrQQbk68MaX+bZcPcC3HL5wLYert/nLW7zoFt16fIGEbhdM3bo0sMo9VWy9HQS8TEBe4vR240S85f7q0C18uTEtVwPaOr+zchl74eslTq675erVG190W64e4FsOX7iWw7Xq8xcGVrnnna3nJOBlAvISZ9Unns5kAd+cP5jIbnCNBBbZHb6RwHJ2h2tOUInd4JsIrsEwuJbDlfsauHp8EYNu0S26LV4DGFjFM2WLCQS83PB5iZMLZoIIE4Z40YOXONFtgggThnjRg5c40W2CCBOGeNGDlzjRbYIIE4Z40YOXONFtgggThnjRg5c40W2CCLsYgoFVLE+2lkjAywTkJU4mykQhRg7zogcvcaLbSAHvPDpCAAAgAElEQVQmdveiBy9xottEIUYO86IHL3Gi20gBJnb3ogcvcaLbRCFGDvOiBy9xottIATbojoFVLE+2lkggm4AShzMMAhCAAAQgAAEIQAACEIAABCAAgQIJDBgwoMCtNb8pDKzmGbKFAghgYBUAkU1AAAIQgAAEIAABCEAAAhCAAAQKIoCBVRBINvPJIuAlBdRLnJk6iLfc34kXvl7iRLfl6tUbX3Rbrh7gWw5fuJbD1dv85S1edItuawl40YOXOL3NB1WPlwyscucrtp6TgJcJyEucVZ94OpMFfHP+YCK7wTUSWGR3+EYCy9kdrjlBJXaDbyK4BsPgWg5X7mvg6tFgQbfoFt0WrwEMrOKZssUEAl5u+LzEyQUzQYQJQ7zowUuc6DZBhAlDvOjBS5zoNkGECUO86MFLnOg2QYQJQ7zowUuc6DZBhAlDvOjBS5zoNkGEXQzBwCqWJ1tLJOBlAvISJxNlohAjh3nRg5c40W2kABO7e9GDlzjRbaIQI4d50YOXONFtpAATu3vRg5c40W2iECOHedGDlzjRbaQAG3THwCqWJ1tLJOBlAvISJxNlohAjh3nRg5c40W2kABO7e9GDlzjRbaIQI4d50YOXONFtpAATu3vRg5c40W2iECOHedGDlzjRbaQAMbCKBcbWyiHgZQLyEicTZTk67bhVL3rwEie6Rbe1BNBtuXqAbzl84VoOV64PcOX6UK4GPPJlvi1XE1XlSwZWueedreckUNUfiFfDghu9nMJrshu6bRJgJ8O9cOV3Vs75h2u5XOFbLl/mL/hiBJSrAW2d31m5jL3w9RIn191i9YqBVSxPtpZIwMsE5CVOJspEIUYO86IHL3Gi20gBJnb3ogcvcaLbRCFGDvOiBy9xottIASZ296IHL3Gi20QhRg7zogcvcaLbSAE26I6BVSxPtpZIwMsE5CVOJspEIUYO86IHL3Gi20gBJnb3ogcvcaLbRCFGDvOiBy9xottIASZ296IHL3Gi20QhRg7zogcvcaLbSAFiYBULzMvWbrnlFrv//vttueWWs5EjR9YN+80337Rx48bZfffdZ2+//bYtu+yytvXWW9vw4cOtR48enR7qXXfdZddee61NmTLFunXrZv379w9jNtxww2Q8XiYgL3EyUSZLMWqgFz14iRPdRskvubMXPXiJE90mSzFqoBc9eIkT3UbJL7mzFz14iRPdJksxaqAXPXiJE91Gya9hZzKwGiLy1+GFF16w9dZbz2bOnGlrr722Pf744/MdxAMPPGA77rijvfHGG+Fv3bt3t48++ij895prrmkTJ060vn37zjNuzpw5NmLECBs7dmz4d5lXarNnzw7/PWbMGBs1alQSMC8TkJc4mSiTZBg9yIsevMSJbqMlmDTAix68xIluk2QYPciLHrzEiW6jJZg0wIsevMSJbpNkGD3Iix68xIluoyXY5QAMrGJ5tn1rMpm22moru/vuu03/Xc/AmjFjhq2xxhrBvDrooINs9OjRtuKKK4aMqiOOOMJuvPFGGzhwoMnkWmihheYe0+mnn27HHHOM9enTxy677DLbZpttgnl13XXXhe28++67dvPNN9vQoUOjOXiZgLzEyUQZLcGkAV704CVOdJskw+hBXvTgJU50Gy3BpAFe9OAlTnSbJMPoQV704CVOdBstwaQBXvTgJU50myTDTgdhYBXLs+1bO/fcc+3www+33Xbbza655pq6BpYypY4//ngbMmSI3X777fPE/OGHH9o666xjzz33XDCylKWl9t577wXjSuaXlhxuttlm84y7/PLLQ3aWlhFOnjw5msOEO58IY9Zaa63osa0c8NRTT7mIM2NCvOWqwwtfL3Gi23L16o0vui1XD/Athy9cy+Hqbf7yFi+6Rbe1BLzowUuc3uaD2nj7LvWBDRgwoNwfSOTWMbAigVW5+9NPPx0MJC39u+qqq2zQoEF1DawNNtjAHn300XkMqtrjyjKthg0bFrajNmHCBNtpp506NahmzZoVami988479uyzz9pqq60Wheq08S/aHc9/JmoMnSEAAQhAAAIQgAAEIAABCEAAAhAolkCvRT+y47/8HAZWsVjZWkbg448/ts0339wefvhhu/fee22JJZawdddddz4DS5lUSy65ZFheqCLuvXv3ng+iMqy++MUvWr9+/Wzq1Knh70cddZSdeeaZoSD8+eefXxe8lhTecccdoUbWPvvsE3VyMLCicNEZAhCAAAQgAAEIQAACEIAABCBQCgEMrFKwstGMwKmnnmrHHXdcKKJ+2mmnhcLt9QwsZV4pA2uppZay6dOn1wX4yiuvhOWCKswuw2uxxRYL2VfKwjrnnHPssMMOqzvugAMOCLWxjj322FDQPaZhYMXQoi8EIAABCEAAAhCAAAQgAAEIQKAcAhhY5XBlq2b22GOP2cYbbxy+HqgMrE996lOdGlh33nmnDR482FZZZRV7/vnn6/LTcsBFF100/E1m1gorrGBbbrml3XPPPTZu3DgbPnx43XEyrmSeyci65JJLos4NBlY+XGuu8P+//Ji3vf/++6Frz5498w5paz/iLQc/XMvhmm0VvuXwhWs5XNEtXGsJ8DtDDyKADtCBx3mhWd0+/ersck+8861jYDk/gVUN/3//+1+odfXEE0+ErwaqBpZaZxlY+krgDjvsEIqlP/nkk50elrKvtMwwq2clg0xfehg/fnwoEF+vnXzyyXbiiSdabe2svNy8fEXCS5wZd+LNq8C0fl74eokT3abpMHaUFz14iRPdxiowrb8XPXiJE92m6TB2lBc9eIkT3cYqMK2/Fz14iRPdpumws1EUcS+WZ8u3Nnr0aDvllFNM5pH+O2udGVi33Xabbbfddrb66qvbM888Uzfe2bNn28ILLxz+9uKLL9pKK61km2yySTDIrr76attzzz3rjsti2XfffU1fJYxp2QQUM4a+EIAABCAAAQhAAAIQgAAEIAABCJRDgK8QlsN1gdyqlgtuuummttFGG5kKr3fv3r2hgXX//feHYu9aFqjlgfXajBkzbOmllw5/evvtt8N/DxkyxCZOnBiWBmqJYL12+OGH27nnnmuHHnpo+N+YhoEVQ4u+EIAABCAAAQhAAAIQgAAEIACBcglgYJXLd4Ha+nrrrRfqXx155JGhplVtkzn14x//2FZcccW5mVnKnFJRdv2blgh+8MEHtsgii8zHTNvUtpdZZhl76623wt8PPPBAu/TSS8O2lO1Vr+288852ww032HnnnWeHHHJI1LnwkgLqJc4MPvFGyTC6sxe+XuJEt9ESTBrgRQ9e4kS3STKMHuRFD17iRLfREkwa4EUPXuJEt0kyjB7kRQ9e4kS30RLscgBLCIvl2dKtLbHEEsGQytuyelbLLbecvfHGG/bQQw+F4u8d29ixY22//fazrbbaylT0Xe2iiy6ygw8+2IYOHWqqo1Wv9evXz1566SWbNGlSKPoe07xMQF7iZKKMUV96Xy968BInuk3XYsxIL3rwEie6jVFfel8vevASJ7pN12LMSC968BInuo1RX3pfL3rwEie6TddivZEYWMXybOnW/vznP9tHH31Ud59Tp061/fff3z7/+c/bZZddFvpo6WCPHj1MNaquuOIKGzVqVPhqYMemGlmqlXXOOefYYYcdFv6s7a288sph/Msvvxyys2qb6mOpTlbv3r3t9ddfn2c5Yx4oXiYgL3EyUeZRXfN9vOjBS5zotnlN5tmCFz14iRPd5lFd83286MFLnOi2eU3m2YIXPXiJE93mUV3zfbzowUuc6LZ5TdZuAQOrWJ6V2VpnRdwV4COPPBLqZsmMUu2sDTbYYG7c11xzje2+++7BoJoyZcrcWljqsNNOO9mECRNsr732siuvvDIsQ1SbOXOmDR482B588EE76aST7IQTTojm4GUC8hInE2W0BJMGeNGDlzjRbZIMowd50YOXONFttASTBnjRg5c40W2SDKMHedGDlzjRbbQEkwZ40YOXONFtkgw7HYSBVSzPymytKwNLQR533HF26qmnBhNrl112MS3/05ibbrrJ5syZY+PHj7ddd911nuOZNm2aDRo0yF577TVbf/31bdttt7VZs2bZ9ddfH5YODhw4MCwf1DZjm5cJyEucTJSxCkzr70UPXuJEt2k6jB3lRQ9e4kS3sQpM6+9FD17iRLdpOowd5UUPXuJEt7EKTOvvRQ9e4kS3aTrsbBQGVrE8K7O1RgaWTKqf//znNmbMmHm+Rrj22mvbWWedFcypek1LCUeOHGm33nqrffzxx6FLz549bfjw4XbGGWdYr169khh4mYC8xMlEmSTD6EFe9OAlTnQbLcGkAV704CVOdJskw+hBXvTgJU50Gy3BpAFe9OAlTnSbJMPoQV704CVOdBstwS4HYGAVy9Pd1mbPnm3PP/+8TZ8+3ZZffnnr27dvrmPQ1wllZukrhquuumowsZppXiYgL3EyUTajxvxjvejBS5zoNr/2munpRQ9e4kS3zagx/1gvevASJ7rNr71menrRg5c40W0zasw/1osevMSJbvNrL09PDKw8lOhTOgEvE5CXOJkoS5ds2IEXPXiJE92i21oC6LZcPcC3HL5wLYcr1we4cn0oVwMe+TLflquJqvLFwCr3vLP1nASq+gPpGL6XOLnRyym8Jrt50YOXONFtk4LMOdyLHrzEiW5zCq/Jbl704CVOdNukIHMO96IHL3Gi25zCa7KbFz14iRPdNinIDsMxsIrlydYSCXiZgLzEyUSZKMTIYV704CVOdBspwMTuXvTgJU50myjEyGFe9OAlTnQbKcDE7l704CVOdJsoxMhhXvTgJU50GynABt0xsIrlydYSCXiZgLzEyUSZKMTIYV704CVOdBspwMTuXvTgJU50myjEyGFe9OAlTnQbKcDE7l704CVOdJsoxMhhXvTgJU50GylADKxigbG1cgh4mYC8xMlEWY5OO27Vix68xIlu0W0tAXRbrh7gWw5fuJbDlesDXLk+lKsBj3yZb8vVRFX5koFV7nln6zkJVPUH4tWw4EYvp/Ca7IZumwTYyXAvXPmdlXP+4VouV/iWy5f5C74YAeVqQFvnd1YuYy98vcTJdbdYvWJgFcuTrSUS8DIBeYmTiTJRiJHDvOjBS5zoNlKAid296MFLnOg2UYiRw7zowUuc6DZSgIndvejBS5zoNlGIkcO86MFLnOg2UoANumNgFcuTrSUS8DIBeYmTiTJRiJHDvOjBS5zoNlKAid296MFLnOg2UYiRw7zowUuc6DZSgIndvejBS5zoNlGIkcO86MFLnOg2UoAYWMUCY2vlEPAyAXmJk4myHJ123KoXPXiJE92i21oC6LZcPcC3HL5wLYcr1we4cn0oVwMe+TLflquJqvIlA6vc887WcxLIfiA5u9MNAhCAAAQgAAEIQAACEIAABCAAgRIJDBgwoMStx28aAyueGSNKIICBVQJUNgkBCEAAAhCAAAQgAAEIQAACEEgkgIGVCI5hn2wCVU1R7EjdS5xZ3MRb7u/GC18vcaLbcvXqjS+6LVcP8C2HL1zL4ept/vIWL7pFt7UEvOjBS5ze5oOqx0sGVrnzFVvPScDLBOQlzqpPPJ3JAr45fzCR3eAaCSyyO3wjgeXsDtecoBK7wTcRXINhcC2HK/c1cPVosKBbdItui9cABlbxTNliAgEvN3xe4uSCmSDChCFe9OAlTnSbIMKEIV704CVOdJsgwoQhXvTgJU50myDChCFe9OAlTnSbIMKEIV704CVOdJsgwi6GYGAVy5OtJRLwMgF5iZOJMlGIkcO86MFLnOg2UoCJ3b3owUuc6DZRiJHDvOjBS5zoNlKAid296MFLnOg2UYiRw7zowUuc6DZSgA26Y2AVy5OtJRLwMgF5iZOJMlGIkcO86MFLnOg2UoCJ3b3owUuc6DZRiJHDvOjBS5zoNlKAid296MFLnOg2UYiRw7zowUuc6DZSgBhYxQJja+UQ8DIBeYmTibIcnXbcqhc9eIkT3aLbWgLotlw9wLccvnAthyvXB7hyfShXAx75Mt+Wq4mq8iUDq9zzztZzEqjqD8SrYcGNXk7hNdkN3TYJsJPhXrjyOyvn/MO1XK7wLZcv8xd8MQLK1YC2zu+sXMZe+HqJk+tusXrFwCqWJ1tLJOBlAvISJxNlohAjh3nRg5c40W2kABO7e9GDlzjRbaIQI4d50YOXONFtpAATu3vRg5c40W2iECOHedGDlzjRbaQAG3THwCqWZ9u2NnnyZPv1r39tTzzxhH344Ye23HLL2RZbbGF77bWX9erVq25cb775po0bN87uu+8+e/vtt23ZZZe1rbfe2oYPH249evTo9Fjuuusuu/baa23KlCnWrVs369+/fxiz4YYbJh+/lwnIS5xMlMlSjBroRQ9e4kS3UfJL7uxFD17iRLfJUowa6EUPXuJEt1HyS+7sRQ9e4kS3yVKMGuhFD17iRLdR8mvYGQOrIaJqd5gzZ44dfvjhdt55580NdKGFFjL9u9rnPvc5u+WWW2zddded50AeeOAB23HHHe2NN94I/969e3f76KOPwn+vueaaNnHiROvbt+88Y7TNESNG2NixY8O/y7xSmz17dvjvMWPG2KhRo5KAeZmAvMTJRJkkw+hBXvTgJU50Gy3BpAFe9OAlTnSbJMPoQV704CVOdBstwaQBXvTgJU50myTD6EFe9OAlTnQbLcEuB2BgFcuz5Vs7/fTT7ZhjjrGePXvamWeeabvvvrstueSSYW3497//fVNm1hprrGFPPvmkLbzwwiG+GTNmhH+TeXXQQQfZ6NGjbcUVVwwZVUcccYTdeOONNnDgQJPJJTMsa9m++vTpY5dddplts802wby67rrrwnbeffddu/nmm23o0KHRHLxMQF7iZKKMlmDSAC968BInuk2SYfQgL3rwEie6jZZg0gAvevASJ7pNkmH0IC968BInuo2WYNIAL3rwEie6TZJhp4MwsIrl2dKtKWNKSwXfeustu+SSS+yAAw6YZ//Tpk2zVVZZJWRWaZngZpttFv6uTKnjjz/ehgwZYrfffvs8Y7T8cJ111rHnnnsuGFnK0lJ77733TMaVzK/abWWDL7/88pCdpWWEMs1im5cJyEucTJSxCkzr70UPXuJEt2k6jB3lRQ9e4kS3sQpM6+9FD17iRLdpOowd5UUPXuJEt7EKTOvvRQ9e4kS3aTrsbBQGVrE8W7q1f//73/bDH/7QXn/99ZAFtcQSS8y3/7XWWsv++c9/2q9+9atQD0ttgw02sEcffXQeg6p2YJZpNWzYMLvqqqvCnyZMmGA77bRTpwbVrFmzQg2td955x5599llbbbXVolh4mYC8xMlEGSW/5M5e9OAlTnSbLMWogV704CVOdBslv+TOXvTgJU50myzFqIFe9OAlTnQbJb/kzl704CVOdJssxboDMbCK5Vm5rSkD64UXXrA//OEPtv3224dMKi0xVD0rFXHv3bv3fDErw+qLX/yi9evXz6ZOnRr+ftRRR4UliiNHjrTzzz+/7nFqSeEdd9wRamTts88+USy8TEBe4mSijJJfcmcvevASJ7pNlmLUQC968BInuo2SX3JnL3rwEie6TZZi1EAvevASJ7qNkl9yZy968BInuk2WIgZWseiqv7WHHnrIBg0aFL5C+Morr9jiiy8eMq+UgbXUUkvZ9OnT6x6E+mq5oAqzy/BabLHFQvaVsrDOOeccO+yww+qO0xJG1cY69thjwzLFmOZlAvISJxNljPrS+3rRg5c40W26FmNGetGDlzjRbYz60vt60YOXONFtuhZjRnrRg5c40W2M+tL7etGDlzjRbboW640kA6tYnpXZ2syZM23zzTe3f/zjH3b22WeHLxWq3XnnnTZ48OBQG+v555+vG6+WAy666KLhbzKzVlhhBdtyyy3tnnvusXHjxtnw4cPrjpNxddppp4VaXKrJFdO8TEBe4mSijFFfel8vevASJ7pN12LMSC968BInuo1RX3pfL3rwEie6TddizEgvevASJ7qNUV96Xy968BInuk3XIgZWsewquzUtDfzGN75h9957r+266642fvz4uV8T1FcCd9hhB1NtLH2ZsLOm7CstM8zqWW288cbhy4ba1m677VZ32Mknn2wnnnii1dbOygspm4Dy9qcfBCAAAQhAAAIQgAAEIAABCEAAAuURGDBgQHkbT9gyGVgJ0Ko8RIbT0KFDg/G0xx57hIypRRZZZG7It912m2233Xa2+uqr2zPPPFP3UGbPnm0LL7xw+NuLL75oK620km2yySb2wAMP2NVXX2177rln3XGjR4+2U045xfbdd1/TVwljGgZWDC36QgACEIAABCAAAQhAAAIQgAAEyiWAgVUu3wV661oeuMsuu9jbb79tRx99dFjOt9BCC83D5P777w9LC7UsUMsD67UZM2bY0ksvHf6kbem/hwwZYhMnTgxLA7VEsF7TMsVzzz3XDj300PC/Mc1LCqiXODP2xBujwvi+Xvh6iRPdxmswZYQXPXiJE92mqDB+jBc9eIkT3cZrMGWEFz14iRPdpqgwfowXPXiJE93Ga7CrEWRgFcuzbVu7/vrrQ8aVlv5deumltvfee9eN5dVXX7UVV1wx9Pvggw/myc7KBjz22GO23nrr2TLLLGNvvfVW+OcDDzwwbFdZVloqWK/tvPPOdsMNN9h5551nhxxySBQLLxOQlziZKKPkl9zZix68xIluk6UYNdCLHrzEiW6j5Jfc2YsevMSJbpOlGDXQix68xIluo+SX3NmLHrzEiW6TpVh3IAZWsTzbsrVbb7011LxS4fXf//739qUvfanLOJZbbjl74403TF8pVG2rjm3s2LG233772VZbbRWKvqtddNFFdvDBB4fliaqjVa/169fPXnrpJZs0aVIo+h7TvExAXuJkooxRX3pfL3rwEie6TddizEgvevASJ7qNUV96Xy968BInuk3XYsxIL3rwEie6jVFfel8vevASJ7pN12K9kRhYxfJs+daefvpp22ijjezjjz8OZtNmm23WMAbVqLriiits1KhRYZlhx6YaWaqVdc4559hhhx0W/jx16lRbeeWVrUePHvbyyy+H7KzapvpYqpPVu3dve/3116179+4N46jt4GUC8hInE2WU/JI7e9GDlzjRbbIUowZ60YOXONFtlPySO3vRg5c40W2yFKMGetGDlzjRbZT8kjt70YOXONFtshTrDsTAKpZny7e2xRZbhK8Nxizbe+SRR4LpJTPqvvvusw022GBu3Ndcc43tvvvuwaCaMmXK3FpY6rDTTjvZhAkTbK+99rIrr7wyLENUmzlzpg0ePNgefPBBO+mkk+yEE06I5uBlAvISJxNltASTBnjRg5c40W2SDKMHedGDlzjRbbQEkwZ40YOXONFtkgyjB3nRg5c40W20BJMGeNGDlzjRbZIMOx2EgVUsz5ZuLSvIrp2uv/76XWY9bb/99vPUrjruuOPs1FNPDSaWCr9r+d/jjz9uN910k82ZM8fGjx9vu+666zzHM23aNBs0aJC99tprYX/bbrutzZo1y1R/S0sHBw4cGJYPapuxzcsE5CVOJspYBab196IHL3Gi2zQdxo7yogcvcaLbWAWm9feiBy9xots0HcaO8qIHL3Gi21gFpvX3ogcvcaLbNB12NgoDq1ieLd2aalHtsMMOufY5bNgwu+qqq+b2lUn185//3MaMGTPP1wjXXnttO+uss4I5Va9pKeHIkSNNdbe0bFGtZ8+eNnz4cDvjjDOsV69eueLp2MnLBOQlTibKJBlGD/KiBy9xottoCSYN8KIHL3Gi2yQZRg/yogcvcaLbaAkmDfCiBy9xotskGUYP8qIHL3Gi22gJdjkAA6tYnu62Nnv2bHv++edt+vTptvzyy1vfvn1zHYO+Tigza5FFFrFVV101mFjNNC8TkJc4mSibUWP+sV704CVOdJtfe8309KIHL3Gi22bUmH+sFz14iRPd5tdeMz296MFLnOi2GTXmH+tFD17iRLf5tZenJwZWHkr0KZ2AlwnIS5xMlKVLNuzAix68xIlu0W0tAXRbrh7gWw5fuJbDlesDXLk+lKsBj3yZb8vVRFX5YmCVe97Zek4CVf2BdAzfS5zc6OUUXpPdvOjBS5zotklB5hzuRQ9e4kS3OYXXZDcvevASJ7ptUpA5h3vRg5c40W1O4TXZzYsevMSJbpsUZIfhGFjF8mRriQS8TEBe4mSiTBRi5DAvevASJ7qNFGBidy968BInuk0UYuQwL3rwEie6jRRgYncvevASJ7pNFGLkMC968BInuo0UYIPuGFjF8mRriQS8TEBe4mSiTBRi5DAvevASJ7qNFGBidy968BInuk0UYuQwL3rwEie6jRRgYncvevASJ7pNFGLkMC968BInuo0UIAZWscDYWjkEvExAXuJkoixHpx236kUPXuJEt+i2lgC6LVcP8C2HL1zL4cr1Aa5cH8rVgEe+zLflaqKqfMnAKve8s/WcBKr6A/FqWHCjl1N4TXZDt00C7GS4F678zso5/3Atlyt8y+XL/AVfjIByNaCt8zsrl7EXvl7i5LpbrF4xsIrlydYSCXiZgLzEyUSZKMTIYV704CVOdBspwMTuXvTgJU50myjEyGFe9OAlTnQbKcDE7l704CVOdJsoxMhhXvTgJU50GynABt0xsIrlydYSCXiZgLzEyUSZKMTIYV704CVOdBspwMTuXvTgJU50myjEyGFe9OAlTnQbKcDE7l704CVOdJsoxMhhXvTgJU50GylADKxigbG1cgh4mYC8xMlEWY5OO27Vix68xIlu0W0tAXRbrh7gWw5fuJbDlesDXLk+lKsBj3yZb8vVRFX5koFV7nln6zkJVPUH4tWw4EYvp/Ca7IZumwTYyXAvXPmdlXP+4VouV/iWy5f5C74YAeVqQFvnd1YuYy98vcTJdbdYvWJgFcuTrSUSyCagxOEMgwAEIAABCEAAAhCAAAQgAAEIQMgjgUAAACAASURBVKBAAgMGDChwa81vCgOreYZsoQACGFgFQGQTEIAABCAAAQhAAAIQgAAEIACBgghgYBUEks18sgh4SQH1EmemDuIt93fiha+XONFtuXr1xhfdlqsH+JbDF67lcPU2f3mLF92i21oCXvTgJU5v80HV4yUDq9z5iq3nJOBlAvISZ9Unns5kAd+cP5jIbnCNBBbZHb6RwHJ2h2tOUInd4JsIrsEwuJbDlfsauHo0WNAtukW3xWsAA6t4pmwxgYCXGz4vcXLBTBBhwhAvevASJ7pNEGHCEC968BInuk0QYcIQL3rwEie6TRBhwhAvevASJ7pNEGHCEC968BInuk0QYRdDMLCK5cnWEgl4mYC8xMlEmSjEyGFe9OAlTnQbKcDE7l704CVOdJsoxMhhXvTgJU50GynAxO5e9OAlTnSbKMTIYV704CVOdBspwAbdMbCK5cnWEgl4mYC8xMlEmSjEyGFe9OAlTnQbKcDE7l704CVOdJsoxMhhXvTgJU50GynAxO5e9OAlTnSbKMTIYV704CVOdBspQAysYoGxtXIIeJmAvMTJRFmOTjtu1YsevMSJbtFtLQF0W64e4FsOX7iWw5XrA1y5PpSrAY98mW/L1URV+ZKBVe55Z+s5CVT1B+LVsOBGL6fwmuyGbpsE2MlwL1z5nZVz/uFaLlf4lsuX+Qu+GAHlakBb53dWLmMvfL3EyXW3WL1iYBXLc4HY2l133WXXXnutTZkyxbp162b9+/e34cOH24Ybbph8/F4mIC9xMlEmSzFqoBc9eIkT3UbJL7mzFz14iRPdJksxaqAXPXiJE91GyS+5sxc9eIkT3SZLMWqgFz14iRPdRsmvYWcMrIaI6JARmDNnjo0YMcLGjh0b/knmldrs2bPDf48ZM8ZGjRqVBMzLBOQlTibKJBlGD/KiBy9xottoCSYN8KIHL3Gi2yQZRg/yogcvcaLbaAkmDfCiBy9xotskGUYP8qIHL3Gi22gJdjkAA6tYnp/orZ1++ul2zDHHWJ8+feyyyy6zbbbZJphX1113nR100EH27rvv2s0332xDhw6N5uBlAvISJxNltASTBnjRg5c40W2SDKMHedGDlzjRbbQEkwZ40YOXONFtkgyjB3nRg5c40W20BJMGeNGDlzjRbZIMOx2EgVUsz0/s1t57771gXM2YMcPuu+8+22yzzeY51ssvvzxkZ2kZ4eTJk6M5eJmAvMTJRBktwaQBXvTgJU50myTD6EFe9OAlTnQbLcGkAV704CVOdJskw+hBXvTgJU50Gy3BpAFe9OAlTnSbJEMMrGKxLXhbmzBhgu20006dGlSzZs2yZZdd1t555x179tlnbbXVVouC5GUC8hInE2WU/JI7e9GDlzjRbbIUowZ60YOXONFtlPySO3vRg5c40W2yFKMGetGDlzjRbZT8kjt70YOXONFtshTrDiQDq1ien9itHXXUUXbmmWfayJEj7fzzz697nFpSeMcdd4QaWfvss08UCy8TkJc4mSij5Jfc2YsevMSJbpOlGDXQix68xIluo+SX3NmLHrzEiW6TpRg10IsevMSJbqPkl9zZix68xIluk6WIgVUsugVra8q+UhbWOeecY4cddljdgz/ggANCbaxjjz02FHSPaV4mIC9xMlHGqC+9rxc9eIkT3aZrMWakFz14iRPdxqgvva8XPXiJE92mazFmpBc9eIkT3caoL72vFz14iRPdpmux3kgysIrl+Ynd2pZbbmn33HOPjRs3zoYPH173OGVcnXbaaSYj65JLLoli4WUC8hInE2WU/JI7e9GDlzjRbbIUowZ60YOXONFtlPySO3vRg5c40W2yFKMGetGDlzjRbZT8kjt70YOXONFtshTrDsTAKpbnJ3ZrG2+8sWmSGD9+vO222251j/Pkk0+2E0880YYNG2ZXXXVVFAsvE5CXOJkoo+SX3NmLHrzEiW6TpRg10IsevMSJbqPkl9zZix68xIluk6UYNdCLHrzEiW6j5Jfc2YsevMSJbpOliIFVLLoFa2ubbLKJPfDAA3b11VfbnnvuWffgR48ebaeccortu+++pq8SxjRNQAceeGDMEPpCAAIQgAAEIAABCEAAAhCAAAQgUAIBraoaMGBACVtO3yQZWOnsFqiRQ4YMsYkTJ4algVoiWK8dfvjhdu6559qhhx4a/je2KcuLBgEIQAACEIAABCAAAQhAAAIQgEB7CTz88MPtDaDO3jGwKndKqhmQsqMuvfRSU5aVlgrWazvvvLPdcMMNdt5559khhxxSzQMhKghAAAIQgAAEIAABCEAAAhCAAATcEcDAcnfK2hPwRRddZAcffLANHTrUbr755rpB9OvXz1566SWbNGmSqeg7DQIQgAAEIAABCEAAAhCAAAQgAAEIFEEAA6sIigvANqZOnWorr7yy9ejRw15++WVbZpll5jlq1cdSnazevXvb66+/bt27d18AqHCIEIAABCAAAQhAAAIQgAAEIAABCLSCAAZWKyh/Qvax00472YQJE2yvvfayK6+80rp16xaObObMmTZ48GB78MEH7aSTTrITTjjhE3LEHAYEIAABCEAAAhCAAAQgAAEIQAACVSCAgVWFs+AkhmnTptmgQYPstddes/XXX9+23XZbmzVrll1//fVh6eDAgQPD8kFladEgAAEIQAACEIAABCAAAQhAAAIQgEBRBDCwiiK5gGxHSwlHjhxpt956q3388cfhqHv27GnDhw+3M844w3r16rWAkOAwIQABCEAAAhCAAAQgAAEIQAACEGgVAQysVpH+hO3nrbfeMplZiyyyiK266qrBxKJBAAIQgAAEIAABCEAAAhCAAAQgAIEyCGBglUGVbUIAAhCAAAQgAAEIQAACEIAABCAAAQgURgADqzCUbAgCEIAABCAAAQhAAAIQgAAEIAABCECgDAIYWGVQZZsQgAAEIAABCEAAAhCAAAQgAAEIQAAChRHAwCoMJRuCAAQgAAEIQAACEIAABCAAAQhAAAIQKIMABlYZVNkmBCAAAQhAAAIQgAAEIAABCEAAAhCAQGEEMLAKQ8mGIAABCEAAAhCAAAQgAAEIQAACEIAABMoggIFVBlW2GUXgoYceshtvvNGWXHJJO/roo6PGtqrznDlz7Pe//334v6lTp4bd9uvXz7bbbjv7xje+YQsvvHCrQsm1n3/+85921VVX2aOPPmozZ860T3/60zZw4ED79re/bSussEKubbSz04UXXmivvvqqbbLJJva1r32tnaHM3ffzzz9vY8eObRjLD3/4Q1t66aUb9mtVh3feecfGjRtnkyZNsunTp1ufPn1syJAhtvvuu1dCt7Nnz7YTTjghF46lllrKjjzyyFx9y+704Ycf2jXXXGN33HGH/etf/7Lu3bvbyiuvbEOHDg2aXWihhcoOIWr7L7zwgl1xxRX297//3d577z1bccUVQ6y77babdevWLWpbRXcWx3/84x+23nrrhXi6ah999JGNHz/ebrvttjBH6Lqx8cYb27777huOqRXttddes0suucT+97//2WGHHWaf+cxnutxtzPEVHX/MvqWLq6++2v785z+bjnGxxRaz/v37h7ni//7v/4oObb7txXK988477YYbbrBnn33WpAvNbV/+8pdtjz32sJ49e5YebwzbjsG8//779pOf/MQ+/vhj+9a3vmVrr712qfHmZav5TOe/q7bMMsvYD37wg1LjjWWr+zJdnzW/6XepuXjPPfe0L37xi6XGqY3nYZv3/kHb22CDDWyXXXYpLe4Ytv/5z3/C/cNf/vIX038vvvjiQav6jW244YalxZhtOA/b2iDuvfdeu/baa+2ZZ54x3VusuuqqLdHB5MmT7de//rU98cQTpnuD5ZZbzrbYYgvba6+9rFevXnU5teta1uw8H6OfIgSSwrbZY0yNO3W/7bqWpbBt97Us2z8GVqpKGdc0AU3eP/7xj+3UU08NN5+a8HWxqlp7++23baeddgoGgJoeTGVoZU03SH/4wx86vUi1+njEU4aAbow7xrvEEkvYr371q2C6VbVdd911tuuuu4bwDj74YPvZz35WiVB/97vf2Te/+c2Gscgo+PznP9+wXys6PP7447bDDjvMNV1lsui3prbZZpvZ7bffbtJEO5viWWSRRXKFoAdUmUXtbi+++KJtv/329uSTTwbjqm/fvuGmVYaK5oatttrKJkyYUJk5QWbLyJEjw4OdWq0OttxyyzB/tUMHeiA68MADgwmhJqPkt7/9baenV/233XZb+9vf/jbfccjc1IPLNttsU6o8tI/vfve79uabb4b9PPXUU8Hkqddij6/IwGP3/cgjj9jXv/51e+mll+a7bugfDjnkEDvvvPOKDHGebcVw/eCDD8JDqebkrNVel1dZZZVgcK6++uqlxBvLtl4QurZddNFF4U869jINixi2hx56qJ1//vldctPLu+xFXtGAU9jqgVoGtkxB6UCGfHb/UxXdyhjMOzcNGzYsvIAsusWy/eMf/xiMKt0D9+jRI1zntI233norcD7iiCPsrLPOKjrMuduL0a3O9/777z/3JaM0oBgzHRx++OF29tlnFx6rrvfadu3cWDsXfe5zn7NbbrnF1l133Xn23a5rWTPzfKx+moWdyraZY2wm5pT9tutalsq23dey2v1jYDWjVsYmE9BN//Dhw8ODyDrrrGN60K6qgaUsK90M66ZYN3Z6ONVFUf+mm9B///vfNmLECPvFL36RzKOogcpM0A2HDAEZWcq46t27d3gbNWrUqJBBphuRp59+OtyMVK29/vrrQQ96ONQEWyUDS29399tvv/CGv6tMwS996UuBcbubMq9006QH0oMOOshOPPHE8BvTRVY3+8rO04N49hDVrnh1nmWkddUmTpwYbj5lvNY+tLYrZmUzPvzww7bjjjuG3/2yyy4bQtHvSubrY489FuY3vblud9Obva985SshDGlAD6gye5T5qnlLc68yQPT2uJVNc5EeODR/rrnmmsEIamRgybySVvTSQLrVXKGswnPOOSe8DNGbbm2njEws7UfzkTjJsFLWj64DnRlYKcdXFP/YfevY1lprrfACaeuttw4PpZo79KD6y1/+0o4//viQzaCXH8ooKLLFctW+NW9dfPHFIeNKD47KKJUp+8ADD9j3vve9cE4Uv+a4ojMhY9nWY/WnP/1prpmh+a8sAyuF7d577x3mLRk/uvep13R903Wu6JbC9sEHHwyZLjrP0q2u0br/0f2Z5uAZM2aEjM1GmZ2xxxLLVvc0mnO7aj/96U9DRu+5554b5ukiWyxbzQVrrLGGvfvuu+G6ceyxx9qnPvWpEJKMrZ133jlk92t+EPMiWyxb7ftHP/qRnXTSSeHaphc2euksTehFkq4z0oH+/YADDigyVDv99NPtmGOOCRmfZ555ZriGKStYzzbf//73TRku4qiXXbUrNdpxLWtmno/VTxGQU9g2c4zNxJy633Zdy1LYtvNaVm/fGFjNKJaxyQQ++9nPhoufbjg22mgj23TTTStpYOniM2DAgPBGTw96usmvbcoW0MOfLl6awPJmkiSDazBQsSpmmVe6qNY2ZYjowUtvTnWjpLdnVWsyKLScVDebeqtaJQNLD8lipowRPTxVvSkLTw/1erOvB6TaJkNTpoaWXinjrd1LyLpiKSNOSxZ0A6qbQL3RbGfTUrf1118/3IzKfNFymtomw2jw4MHhZl8xaxlWO5tiUUwyLS+//PJ5QpG5qSyVWbNmBdNNhlArms6jzqlMdJkiWp6i+aorA+u+++4LxpXMQum34zJdmfXaVllv2jUn6Xek37/MVL0Y0Jxaz8BKOb6iuKfsW8ejJWFabiN9d1x+JwNcD3/KINHDa5Ethqv2KyNAy+CVTXj//feHe4faJhM5y4jTQ6TuL4pqKWw77jt7saD7Hy3BkplVloEVy1axKgvvpptust/85jfhZVirWipbZZDec889IVNb9wu1TfOdHtRkuuZdpp73eFPYdrVtmVvSsjTx17/+tdDl/Sls9bJWJpp+P1nGa2382f2FzMO77747L7Zc/WLZKvNOL+f0m7ryyivDi9valt2nL7/88iGDu6iSH9nKERn99cyxadOmhRff6qfrl7Le1dp1LUud51P0k+tEd9EplW3qMTYbb8p+23UtS2XbzmtZvfODgdWsahmfREBZLHqD/oUvfCFcrKtqYOlCoxsjvdnXBapjU8aQLopquli18+Fab3K1TEgP1TKo6sWiN5JKTdeNid7yVanpra/e/irGQYMGhWOpkoGlt5Ann3xyyL7STXHV20orrRQ0qZoM+p15bdnDs26opYl2N73ZV2aCzJdsuVVtTG+88Ua4ma7CnCBjSksD9bCvByQZlh1blnGhBxK9wW5FUxbgaaedFuZUGVHZ28CuDCzVmlK2TWcGVXYd0bwn3Rfd9BZftc30gK8mY7IzAyvl+IqKN2XfyqLQMhdlX3U0ARRXltkrg+u5554rKtSwnRiu6q9aQtKLMsIUd72m36YeVJWtWeRy+RS2HeNTtoqyeTPm119/fWkGVixbxarMKhkSt956a1iu26qWwlZaWG211ULGpZZ1KwuvVS2FbWex6YFSxpXMcM3TRdeWSmGrjH3VaOssk1gvGDVfV2FOUM02rYzQfbqWO3Z8Iae5QjpReQe9zFHfIprutVXzVM8BehFYbxm+XnqrJm1t9mq7rmWp83yKfprlm8o29RibjTdlv+26lqWybee1rN75wcBqVrWMTyKgC3Z2s1FlA6vRwekBVvUglKqsN6vtqCPTKMbav6tuj25MleqsC29Vmh42tORDBUKV6SaTrWoGlpZUXHDBBeHBWzd3VW4yrZRNo7d/ukh6bVqmp+LRKu6t/y7qzWkzPHQzqpvSRRddNLzx7fjQlGVo6e8q6NnOmF955ZWwzEpNGaJaXtGxZZmFX/3qV8Oym1a02vlf+8tjYMnU1sOdHvjr1aLTNrV0QzUlyqhD1zHmrgyslOMrinsZ+85eLmjprJZsFdliuObZrx5WpXP9NjszbfNsp16fZtnefPPNoSahrsOqO6fs2DINrBS2mmuVjamsSH1EpVUtha0+9qJlWjIFOzMzy4o/hW1nsWTZG7rnaVR/LOV4Utgqy1zLm5TBq2WNHVuWodXZ31PizMbEstWybtUNU/F7FfGv17LMwlbfv+keTNcj/d71u1dr97Wss3PT2Tyfop9mzn/esfXYNhpb5rWsq32n7LfMa1kjTo3YtvpaVi9eDKxGZ5G/l07As4ElI+ioo47q9CJfOryIHag+iNLtZbYpJVgTVFVaVg8ge+urrLeqGVjZEqWf//znIQNHtXhkvKkeiG6ctCSv3UtIs/OZZUyoRpOWZOo3pmwExauMF72BVI2IdporebSnzEzFrjesZdRcyRNDvT6bb755WL50yimn2HHHHTe3i7IgtVRPyxiqsNRUKerZF/I6yxCVWay37O00O/MYWFqqKRNODyj6vdVrqjWi2lRa5pa3YHKqBroysDpuM8/xpcbRaFwR+9bXKpWhpSXJqodVZovhWi8OZRYrS08ms8zkMrNyYthqmZFeKihrTy9ptAyybAOrI588bLPMXWUDyYDX8jzNI1oyq3lPD9+taHnYZvVjZADpfkFLH5VhoywcZWLKtMiWbZUdcx629WJQxq6WcUunym7suCS9jLjzsNU515ccpYG77ror3DtmTf8mM1saacVS00ZsZQLrt9RVNth3vvOdufW6WmV2ykDX70WZYXqZpBe0alW7lmXnNe88n0c/Zei2dpudsW2037zH2Gg7sX9P2W8rr2UxbKtwLVO8GFixKqR/4QS8GlgygZQdojf+WmrYqhu7vCdA2WGqh6UbJE32SmFWXR7VhSjzi0d548v6ZW/6VFwzW6ZZRQNLZpAKWaomhFKq9XaktikTT28CW3XD3BVn1ZY78sgjw/Ic3RjLdFNTan0Wt25A9VYwK0Aee97K7q/iqzLZtGxL3KvUZAbphkSZCqoBokwFLdPTjb4KR8vg1BKLdmdkylBTvUF9Paiz5VQy4GXE6wE1+7Jeq1k3uiGWZjOzVfNaZx+g0G9PmSP6Hao2YZmt0UNV7b4bHV+ZcTa77+zNsTL59MCqLLcyWwxXxaFrnDIc9ICoDEIZbVouJL2XXdMthq3qSenFQq02q2hg6WFbhbu13FhZrx2bXiTItJABV2bLw1bXBl3DdL9w9dVXh9++5onsy3OKT9lZl112Wel1HmN1m7HLlpPpmq06dK1oedgqDtVnUz0q1XLUUlx9bEPXCBmFuq9UOYUxY8aUHnIjtroOK3NQ9zr6EnD20qY2sCzrSdm7MrzKbsoAleErE10Gq0x1tSpeyxRXzDyfVz9lMe6MbaP9xRxjo23F/D3vftt5LcuOJw/bKlzLFC8GVowK6VsKAY8GlgwMPcDqprle8dBSQEVu9IorrgjZIFlThpDSvjsWoo/cbKHd9eChGw+ZKLrQZw/8VTSwsmKxyrJSdo1unvUwJyNTN58qHqz4tcSm3Yyzel0yL3RDr/OuLDf9t96o6831lClTSinKXJRAVChdmtD8IKO4ak1ZYdkXz2pjU3bbGWecUbfeVDuOQSamvpSouip6wNPSxqxpqalMHy1/1tth3by0ozW6IVZcmXGieiPSdb2mGk4yEfXAqjfuZbZGD1W1+250fGXG2cy+lZ0nA0AvPpTZ0oqXNDFcxW2fffYJGY9qMuhVM0+ZYjJky2552ao+jr5O2vGDGlUzsGT86Pom41vXZJkrMuhlzuu6puOVmSFjUP9/mV/bzcM2q9el+eDzn/98qJGnD9nIgFNhfBlCyhaSyaKv6JXZYnWrWHT/qMxXzb1ZNneZMWbbzsNWfbV0TA/f+niNzntt07VPBpYy9spujdhKr/pwgz7uUe/Lynp5mxV21327lj+V2WTyyfC79957w+9exnX2NdQqXsti5/m8+imDcVdsu9pf7DEWFXvMftt5LdPx5mFblWuZ4sXAKkqlbCeZgDcDSxc/vd3XjZFSPFUbqYpNS230pkmTklLT9QCii6hqX2npU5lLK/Lw0E2HHvZVMFYPnbVLxKpoYOm8K5NFy5c6LmFSFp5MFhkurXrD1xXj0aNHh3OsJr56CKltMi5kEOmBpeg6MXnOfaM+qrmhJWB6GKmXBdBofNl/z/jqjbQ+3y1zSAXTNZep0L8eTPQwpfos7W56MNK5Vtq34tQDvh7u9QCqzDxpQ0t39cCqt+rtaI1uiPX7yh6WX3755VC0uV7Tseihod6XqIo+rkYPVbX7a3R8RcdWxL5V0F/a1pJjZUDqC5CtaDFcFc8NN9wQ5ojXXnstZMbquqclOrqG7LnnnqWGnOe8ynCV4aOXB1o6WJsdUjUDS4aFHrjU9MIj+0BNBlH3Ebr26d6n7I9q5GGb/d5lYCk7sKNpmWV3S8Oa28pc4h+rWzHVclyZazLa9BKsVS0PW825yjqfOHGiqT5i9pVS3QPpXkjx6pg1NyjTqMyWh60yL/VSUfeVytzOVhkoQ08Zg9KzrnMylJQdXVbTEnaZZPpfZarIAKzVXdWuZSnzfB79lMG3EdvO9plyjEXEH7vfdl7L8rCt0rVM5wcDqwiVso2mCHgysJQKrKVZuqDqwrTzzjs3deytHKwJSgVklSmkGye9pW5ny4pH1/uqWBUNrEassiVv+gS93gB3/BJOo/FF/l1fD1KheT3o64G/Xstu/vXFSr1hrVLLHuzqfZq63XFmn8DWQ5OMwI7LFVTkXUaRzEE9VKkuR7ublljoU/IyWLMmQ0hfI1VhWWUXyoxT7O1oeW6IlQWkTBDNX6p1Va+Ju0yMor8+V29feR6qsnF5jq8s7rH71gOWMnf16XnVwNHDaiu/YhrDtR4zLSPUdfm///1vqIWmzOOyWh62ysRQHUL9nwyB2lY1AysPp2zJW9kffcjDVku1db5lVGoJYcemlwq6Hmsu/tvf/haW/5fVYnWrmLQsVw+FXc1pZcSbh+2pp54a6juqSLtMrCyDKItHLwmUMaK5WNfBMl+I5mWrrDt9RVVfWcuavgise82pU6eGLLwya1PqJbF+06rBpuw0FYzvyE1xVeFa1sw8n0c/Res2L9va/TZzjM3EX9R+W3Uty8u2StcynR8MrGZUythCCHgxsPSQrwuhaj/orZOyQ7w1xa2baD10117kW30cMlVUuFQXd13kdUGvbVqepbTrL3/5y+FTzVqapwfwKje9ndYxqWVFb9sVr27mxWvttdcOb/3rtawo/THHHGO6Wa1Kk/knc0gPH8pk0g1olVr2ANfVjXBmDpadpRDDRW+mZe7oq5Sqc6PlYMpMyOozqOCxTNh2tDw3xDLYtEREdVm0VLBe+/SnPx0yzVSHTEuTy2x5H6oUQ57jKyvWmH0rs0aZCspiU1aFjMBW18iL4doZM2WL6GVTxyV7RTNuxFZv1GWmaUl5vUztSy+9NGSMqf6jzFeZAZ1pu4jYi2Cr5chalqyvBtca4kXEV7uNRmzVN1seLdNCL73qtawovT66MmTIkKLDnLu9WLYyV2UCyhyWAdTKloetMu00j3ZWpF3XZy19VNaedCA9lNVi2CouLZVXxp3u1ZUZrwwoLYUeO3ZsuIfXNbzoptUOyrjSi0v9rvfee+9Od9Hua1mz83we/RTJN4Zttt9mjzE1/qL3W/a1LC/bql3LdH4wsFJVyrjCCHgwsLJUb91s6EZIX7ipWlNqt5aLaQLVV8XqNd1oaDmRmr6G1NE4atUxacmHiojnbXpTqaVQVW6ZjtvNVvvXDbGWrXRV1ygrgNuK+iAx5y27UMpg0Zczq9b0QKoYu8pizN5U6S2sbvaq3LIbe8WpeNvR8twQq5iw3rCr4LyWQXdsqqenejLKLNMb8NpaX2UcU8xDVZ7jKyNGbTPvvnU90Jyg5btaZqO6MWUzrHfMjbjKxJTpo+VinX1pUsaxsgv1FVN9LbSs1oht9jGNNhtJlAAAHv5JREFUvPsfNmzY3CV8ecfE9GvENs+2smNW7Txlo5bVGrHVfi+88MKwTFtZpFoqVq+pdp7qDinWMj+wEstWhuYFF1wQvmKtjOlWtjxss5cBmg+UhVWv6QWIamNlX48u6xhi2daLQ5nQqvtZRk1NHb+u+Zov9ZK40ReT23ktK2Kez6OforQQy1b7LeIYU+KP3W+7r2UxbKt2LdP5wcBKUSljCiVQdQMrKwCpLxvpJqizAsKFQknYWGZaaKgu1Fr+0bHpC0i6SVaNEGUqtKspy6Yrc0LLLfRGVVkhukHVDUyrarDUYyKe4pZ90bFegWDVPlLx9LLfTOc9Z3qY10N9vaUrSnFW0VstX9ASIdVsqErTg6ceQOsVY61CjCpeq9pRXdXSUOabivurRp6Op51NNc70f/r9dMxKktGjr2fqAU83U5rj2tHy3BBnS1b0xUe9Ye/YsmWzrcoki3moynN8ZXHPu+8RI0aEL9SqfoyMwuyrj2XF1dl2G3HNTAvNX5qX6y3RUUaTCvnrWGQ2l9UasdUXM/W76qzpmqGPapxwwgmhFp0yRjR3lNUasVUGpmJS1p1e1NVrMjO05GTkyJFhni6rNWKr/WpZmO5zZFpLCx1rdsno1LJBaVn3O8o8Las1Yttxv9lHSpRpLkOjlS0PW72s1RJ4/d50zevYlMGf3Qsrszd7MVrGceRhKwNT8eq33/E8K2tXS4mVjSfN1JszUuPW8k9pTEtC9bvIY5K281pWxDyfRz+pPGvHpbDV+CKOMSX+2P2281oWy7Zq1zKdHwysFJUyplACVTawtBRMb25kuChrSGn+VW5Z2rduMnUzmn3VTzFrOZZuknWjpwwtLR2qaqtaDSzdnOjhXjc/KuAvU7P2AU83cFpy8/7774e3qlUo3p1lIShdXUuCams1qbaFlg3qgUnH1K5MvHr607LRSZMm2UUXXRRMrKo11SVQ7RXV/FAh9I5zgj4xLhNF+tANdbastF3HobofWqYrfepGPsuqUT0pLXnQA740LXO7XS3PDbFqGuk3qHmsY200mQRaKjJ9+vSgHdX0KrvleajKYshzfGXFm2ff2UcT+vbtG4zX2utGWXF1tt1GXFWsXeaV3nZr+bM+VlFbb1BZyMrM0lKiX/7yl2HpUFktD9uu9l21Gliqk6mvuc2ePbuucaGlUVo6LQNA17wyl+nmZauPpmipq0wgzWHZdVnnX0v0VI5AWbP6elaZrZFua/etZXeqzaU5WL+3Vn+1OA9b1dDUSwG9CJMR2NEUUu1SvaDRb1HL0sus+ZmHrYwjvdhQdq6ydLOm+UL3vSrxUEZNzaxcgD7akveDTu26lhU1z+fRTxG/tRS2RR1jbPwp+23ntSyFbZWuZRhYsQqlfyEE9AUQfWY+a1rypuLBeiCsfYuj9GRNCu1sWSFLXUAbvRnVl8n04NrOpkwL1dBQRoXeoqqeid6SyT3XGyoZLHpLqQdvPaxUtVXNwBIn1azQEhvddOqtr7KWlMkm7cos1L+rSL5uptuVvdDxJllLK1SAVXWkZFIstdRS4YuPesjT703ZWepTpZbVLJGxogyKKjYZP3pzrnlBD8h6kMu+6ChzU/+trAp9habdTW/KlRWobDuZmZqj9LChcy+DTaaQXiJoyUirmpYqykyrfchQXTz9nvTAlDUZ8bXLa2Qe6jcovjIRVYfw1VdfDV+V0ksGGccykItuekBTLb7aNnny5PDFK10XpIOsSRd60E85viLiTmGr2kCaJ3TN0O+vq6a5rqgl9LFcsw8iKAMyywrRw7+yC7VcWmaAjkPnRct4dP9QZHHpFLZdsSzTwEplqy9PZvOWTAEtw5TprexzmcNq+k1q6VuRLZWtSgsoRv2v5jnNbzKvdB2WIadrn+6LirzfSWWb8dJLxEzLygzTvFdmS2Gr7Fydf93f6EWXsks0NytezcPZb0v3lUXWFktlK6NS1wuZr/q6teYExar5WOU1ZHTKxCwy+0rLk7MvMOrZpau5RvdZym7MWjuuZanzfIp+mtVzKtvUY2w23tT9tuNalsq2XdeyzvZLBlazqmV8NIHMnGg0UA9UuvC0s+ltjr7SlqdpycJ3vvOdPF1L7aObeGVd6LPCMlWypocsvYnU25OiHkDKOpAqGlg6VmXh6euNqnOgh6SsqUaXloqp0H8VzKssLr3p07JGPVCrVkXW9OCvNe3Kdqpak8n2zjvvhBvkzmpvtDtmGSjKcNNb1xdffHGecPRArcyQzurQtSN2PYRoLtOckOlWD6VaBqmith2/pFh2jNmDe6P91Muc0IOKivCqwHDW9JCqB2r9exmZAPoQQt4ixfrio0wAFUdt1MrIDElhu/HGG4evtOVpMgWKWmoay1V1/bKmB2c9EOplTG2TCadlRKpRV2ss5jm2Rn1S2Ha1zTINrGbYyhCWSSWTtrYp21TXkzJe1DXDdtq0aeG3r+xXZTep6TosszvLEmp0bmP+3gxb7Sdb2qj/Vrxl3zOkspWJpRcxeilTe/+gOVYGsTJ7lflaZGuGra5vyi5XdmDW9ByhzCjdExdpZmv7Kr+gl5Z5Wr36dq2+lqXO86n6ycOlsz6pbFOPsZlYNbaZ/bb6WpbKtl3Xss72i4HVrGoZD4GKElCdIz1sKMNN6d9ayqSvsdCaJyC2ymrTTZ0y3FRHqMpNy230ZlNakHmpN6q0Ygjozb+ygPRmV2/5q/bVxNqjlF6lW5lYepvezqVizdLPuMvwVDZD2Q+BzcbL+HII6CFbtf5kBMiIVXZskVkW5UTtY6t6kSCDXhlNysxr9RcpYylpfpMWNL9pTiiz5lVsbJ77K6tJ9w/KaJIprGuHiuNXtWlpljJ6lZUpHVT9vpdrWVWV1Nq4uJbF8cbAiuNFbwhAAAIQgAAEIAABCEAAAhCAAAQgAIEWE8DAajFwdgcBCEAAAhCAAAQgAAEIQAACEIAABCAQRwADK44XvSEAAQhAAAIQgAAEIAABCEAAAhCAAARaTAADq8XA2R0EIAABCEAAAhCAAAQgAAEIQAACEIBAHAEMrDhe9IYABCAAAQhAAAIQgAAEIAABCEAAAhBoMQEMrBYDZ3cQgAAEIAABCEAAAhCAAAQgAAEIQAACcQQwsOJ40RsCEIAABCAAAQhAAAIQgAAEIAABCECgxQQwsFoMnN1BAAIQgAAEIAABCEAAAhCAAAQgAAEIxBHAwIrjRW8IQAACEIAABCAAAQhAAAIQgAAEIACBFhPAwGoxcHYHAQhAAAIQgAAEIAABCEAAAhCAAAQgEEcAAyuOF70hAAEIQAACEIAABCAAAQhAAAIQgAAEWkwAA6vFwNkdBCAAAQhAAAIQgAAEIAABCEAAAhCAQBwBDKw4XvSGAAQgAAEIQAACEIAABCAAAQhAAAIQaDEBDKwWA2d3EIAABCAAAQhAAAIQgAAEIAABCEAAAnEEMLDieNEbAhCAAAQgAAEIQAACEIAABCAAAQhAoMUEMLBaDJzdQQACEIAABCAAAQhAAAIQgAAEIAABCMQRwMCK40VvCEAAAhCAAAQgAAEIQAACEIAABCAAgRYTwMBqMXB2BwEIQAACEIAABCAAAQhAAAIQgAAEIBBHAAMrjhe9IQABCEAAAhCAAAQgAAEIQAACEIAABFpMAAOrxcDZHQQgAAEIQAACEIAABCAAAQhAAAIQgEAcAQysOF70hgAEIAABCEAAAhCAAAQgAAEIQAACEGgxAQysFgNndxCAAAQgAAEIQAACEIAABCAAAQhAAAJxBDCw4njRGwIQgAAEIAABCEAAAhCAAAQgAAEIQKDFBDCwWgyc3UEAAhCAAAQgAAEIQAACEIAABCAAAQjEEcDAiuNFbwhAAAIQgAAEIAABCEAAAhCAAAQgAIEWE8DAajFwdgcBCEAAAhCAAAQgAAEIQAACEIAABCAQRwADK44XvSEAAQhAAAIQgAAEIAABCEAAAhCAAARaTAADq8XA2R0EIAABCEAAAhCAAAQgAAEIQAACEIBAHAEMrDhe9IYABCAAAQhAAAIQgAAEIAABCEAAAhBoMQEMrBYDZ3cQgAAEIAABCEAAAhCAAAQgAAEIQAACcQQwsOJ40RsCEIAABCAAAQhAAAIQgAAEIAABCECgxQQwsFoMnN1BAAIQgAAEIAABCEAAAhCAAAQgAAEIxBHAwIrjRW8IQAACEIAABCAAAQhAAAIQgAAEIACBFhPAwGoxcHYHAQhAAAIQgAAEIAABCEAAAhCAAAQgEEcAAyuOF70hAAEIQAACEIAABCAAAQhAAAIQgAAEWkwAA6vFwNkdBCAAAQhAAAIQgAAEIAABCEAAAhCAQBwBDKw4XvSGAAQgAAEIQAACEIAABCAAAQhAAAIQaDEBDKwWA2d3EIAABCAAAQhAAAIQgAAEIAABCEAAAnEEMLDieNEbAhCAAAQgAAEIQAACEIAABCAAAQhAoMUEMLBaDJzdQQACEIAABCAAAQhAAAIQgAAEIAABCMQRwMCK40VvCEAAAhCAAAQgAAEIQAACEIAABCAAgRYTwMBqMXB2BwEIQAACEIDAgkfgL3/5iz3xxBO2/vrr28CBAxc8AJ0c8bRp02zy5Mn2/vvv22abbWb9+vVLZvPss8/apEmTrE+fPrbddtslb4eBEIAABCAAAQhUkwAGVjXPC1FBAAIQgAAEIPAJIvD973/fLrzwQjv66KPt9NNP/wQdWfqhXHnllXbAAQfYrFmzwkbOPPNM++EPf5i8wSuuuML23XdfGzx4sN1xxx3J22EgBCAAAQhAAALVJICBVc3zQlQQgAAEIAABCHyCCGBgzX8yP/vZz9q///1v+9a3vmW77babrbnmmrbWWmsln3UMrGR0DIQABCAAAQi4IICB5eI0ESQEIAABCEAAAp4JYGDNe/befPNN+8xnPhP+8e2337all1666dOLgdU0QjYAAQhAAAIQqDQBDKxKnx6CgwAEIAABCEDgk0AAA2veszh16lRbeeWVbeGFF7aPPvqokFOMgVUIRjYCAQhAAAIQqCwBDKzKnhoCgwAEIAABCEDgk0IgM7COO+440/+dddZZNmHCBHvttddsmWWWsW222cZGjx5tvXv3nu+Qn376aTv//PPtvvvuszfeeMN69uwZltrtvvvutueee1q3bt3mjnnhhRfs8MMPt8UXX9yuvvrq+bb10ksv2SGHHDLf388555xQAP2II46wJZdcMtSiUlH0Sy+91LbddtuGp0FZVIrxj3/8o6kwu2JaaaWVbPvtt7fvfe971qtXr7nbUJ2ql19+2SZOnGgLLbSQ7bjjjuFv+vevf/3rXe5rzpw59otf/MJUP0smmLa75ZZb2jHHHGN33XVXpzWw3nnnHRs7dqzddNNN9q9//ctmzpxpK6ywQqiX9YMf/MC0nFHtvffes29/+9v28ccf29lnn22rrLJK3XjOO++8sL+vfe1r9p3vfKchHzpAAAIQgAAEINA8AQys5hmyBQhAAAIQgAAEINAlgczAOv7440OB8SeffNI23HDDYJj8/e9/D4bJBhtsYA8//HDISsraddddZ8OGDQuFzmVarb322jZjxgy799577b///W/42t6NN95oiyyySBjyyCOPhO0utdRSNn369Plievzxx23ddded7+8yYX75y18GE0pF5l955ZUw9je/+Y3tscceXR7bU089FQw4mVLLL7+8bbLJJiaj6f777w81rmQC3XnnnXO/MLjpppvaq6++ai+++GLY7qqrrhr+VybUiBEjutzXd7/7Xbv44osDoy222CIsQ9Qxy0AbOXKk/ehHP5qviPt//vMf+9KXvhSYi4s4a/yjjz5qWsooI+uvf/1rMNzUxPS2224znasf//jH88Wjc7XiiisGM/HPf/5z2DYNAhCAAAQgAIHyCWBglc+YPUAAAhCAAAQgsIATyAys5ZZbzjbbbLOQQaRMJ7XJkyeHf/vwww+DcfLVr341/Luypb7whS8Ek+uiiy4ymTdZ09+22mormzJlip1yyikhq0st1cDKjKGNNtooZGcpy6lv375hmz169Oj07M2ePds0RmaQMpeUsbXooouG/u+//34o0K6sp6985Ssh4yprKUsI//KXvwROn/rUp4IJKANLTWaZjKszzjjDPvjgg/kMLGWcXXDBBcFYUwxLLLFEGPfuu++GDKq7777b9t57b9MSRLXf/e539s1vfjMcv+KszXDT37WNIUOG2GqrrWbPPPNMyCKjQQACEIAABCBQPgEMrPIZswcIQAACEIAABBZwApmBpWLlzz///HxLBbXU7tZbb7VTTz01ZCKpyZTS/9/R/MlQKjtKSwiVQaTsJxkpqQZWFp8yk5QZ1adPn1xnLDNzdFxamifzq7YpLmU2yehSplb//v3Dn1MMrMxk22uvvexXv/rVPPuRiaUMNS231LJAGVxZO/PMM+2xxx4LBptY1rbf//73YQmjzCqZgmqqyaWYlSV2++23B7OqtilL7PLLL7cxY8bYsccem4sTnSAAAQhAAAIQaJ4ABlbzDNkCBCAAAQhAAAIQ6JJAZhDtvPPOpmWBHdsBBxxgl112mR111FH2k5/8JPxZS+20tE3ZQxrfsWmJoOpnqSkTaPXVV2/awFJWl5b75W0y27TksLPj0na0ZE8ZWsrO2n///cOmUwwsLY2UQaeljvvtt998Iar217nnnjufgdXVscjYWm+99UKWmTLGspaZh6oz9tvf/nbuv2spp7LolL0VY/Tl5Uk/CEAAAhCAAAQ6J4CBhTogAAEIQAACEIBAyQQyA0sFw1XAvWOr9/dll13WVL+pXhZQNl5F31X/KVt62GwGlrKLtHwwb9t1112DIScjS9li9ZqW42lZ3qhRo+y0005LNrA+/elP21tvvRWyq5Rl1bH97Gc/C3WwOmZgqZ+Ktivb6qGHHgqF8/X/K9NKxd1VHF/LHrX8MGsy2FS7S8sVlYmVGYVaDqlC88qY+8Mf/pAXE/0gAAEIQAACECiAAAZWARDZBAQgAAEIQAACEOiKQGZQHX300SFjKY+Btdhii4W6WDJYVPupXtNSN33179prr7Vddtml6Qys2gywPGdUXyiUwdbVcjot3dOSv4MPPthkMqmlZGA14qHMLBWj72hgaZmjllrKDFQ9q5VXXjks4ZRp9b///c8eeOCB+QwsxahaZPqqomJW7GrajpZuyrRT1hkNAhCAAAQgAIHWEcDAah1r9gQBCEAAAhCAwAJKIMXAUl0pfXFQS/q0tK9e03I2fQ1P2UDKCmqUgZUtmev4lcJG8XV22r7xjW+EryCecMIJdtJJJ9XtpmV411xzjR155JGh0HqqgaWi98qc6uzLfxdeeGFYallrYMm00lcOlWl14IEHhgywLJtKcfzzn/8MtbM6ZmDpb9dff30wBTfeeOOQuaWvPn72s58Nyw1V2yv78uMCKmkOGwIQgAAEINByAhhYLUfODiEAAQhAAAIQWNAINDKI6i0hXHfdde3xxx8PXyxUFlPHpuysnj17hgLpMq7WX3/9UGtKNadk9si06dhUKF5GV1EGlpbsKUNp3333DYXN67XNN9/c7r///lCf6tBDD002sJQ5pcyt8ePH22677TbfrpQ9poLttQaWviyo2DRWxfM7fjFQyxG32WabugaWsrOU4aYlh88995z97W9/M5lxqrV19tlnL2gS5nghAAEIQAACbSeAgdX2U0AAEIAABCAAAQh80gmkGFhZYfd99tnHxo4dOx+iP/3pT+GrejKrVBuqe/fu9uyzz9oaa6wRlsopY0g1nGrb6NGj7ZRTTinMwPr1r39tw4YNC/WiZPJ0NIjee+89+8xnPhPqS2mp3qBBg5INrK997Wsh06w2k6v22JQpJZOp1sBSvTH113JA1Qnr2Pbee28bN25cXQNLfbMi9VoiqYL6qqOlLLZ11lnnky5Zjg8CEIAABCBQOQIYWJU7JQQEAQhAAAIQgMAnjUCKgSXDZ5NNNjHVfpo8eXJY6pY1FSCXeTVp0qRQuPz8888Pf1JWlgwtZQ9lywqzMS+88IINGDAgFH0vKgNLX+5TltKbb74ZMrCU7VTbjj/++FAfS9lk//jHP+b+KaUG1sUXX2zf/e53w1cAn3jiCVNR96zdcMMNc2tS1RpYqlWlQvOf+9znQgZWraGn7CzFp+WAajoWLQ+sbVOmTLHVVlstLEPUVwf1JUSdFxoEIAABCEAAAq0ngIHVeubsEQIQgAAEIACBBYxAioElRFpyJ3NKdZtkVPXv3z/UvFJRdGUbrb766vbggw+a6mVlbY899gjL7FSoXHWf+vbtG5be6euCRxxxRDBtevXqFeprZa1RfF2dLplEWlqn7Kv99tvPtthii2Ck3XLLLeHrg4svvrjdddddNnDgwKYMLGWUKfNJppKWBGpf4vLwww/bVVddZcpYu+iii2zrrbc2Zaep6RjXXHNNe/3110MdsW9961tzY1NtsbvvvjssqZQBp0LtQ4cOte22226ew9USQy01VJOJJqY0CEAAAhCAAARaTwADq/XM2SMEIAABCEAAAgsYgUYGUb0aWEI0Z84cu+CCC0Lx8yxTSP+u2lcyY/RFQy3Rq20qXK6aWap3lTWZWSq0rgwmFSzvWLS8UXyNTpe+1jdq1Cj7+9//PrfrwgsvHJbzqS7VeuutN88mUjKwtAFlUY0YMSJknmVthRVWsJ/+9Ke27LLLhnpWqrl17733zv276m/J7Hr66afn/pvqhMns2nTTTe2yyy4L5pWy1hSn6ojVNn3hUTW3lJ2lelgy/2gQgAAEIAABCLSeAAZW65mzRwhAAAIQgAAEIBBNQJlHMqeWWGKJsKytY32rjhtUppaMorz9owOqM0CZTtOmTQv1uJQlpaWKZbRXX33V/vWvf4Xta3mfzLKumoxAGYAyoGR49enTZ57uyhhT0XuZYB2bMtf2339/66wWWRnHxzYhAAEIQAACEJifAAYWqoAABCAAAQhAAAIQgEAdAjK2vvCFL4Rli6pDphpYNAhAAAIQgAAE2kMAA6s93NkrBCAAAQhAAAIQgECFCci80nLFq6++OhSIV60vGgQgAAEIQAAC7SOAgdU+9uwZAhCAAAQgAAEIQKBiBFTzSqaVMq60HFJfWVShfH39kAYBCEAAAhCAQPsIYGC1jz17hgAEIAABCEAAAhCoGIELL7zQjjzyyFAo/6tf/aqdddZZoW4WDQIQgAAEIACB9hLAwGovf/YOAQhAAAIQgAAEIAABCEAAAhCAAAQg0IAABhYSgQAEIAABCEAAAhCAAAQgAAEIQAACEKg0AQysSp8egoMABCAAAQhAAAIQgAAEIAABCEAAAhDAwEIDEIAABCAAAQhAAAIQgAAEIAABCEAAApUmgIFV6dNDcBCAAAQgAAEIQAACEIAABCAAAQhAAAIYWGgAAhCAAAQgAAEIQAACEIAABCAAAQhAoNIEMLAqfXoIDgIQgAAEIAABCEAAAhCAAAQgAAEIQAADCw1AAAIQgAAEIAABCEAAAhCAAAQgAAEIVJoABlalTw/BQQACEIAABCAAAQhAAAIQgAAEIAABCGBgoQEIQAACEIAABCAAAQhAAAIQgAAEIACBShPAwKr06SE4CEAAAhCAAAQgAAEIQAACEIAABCAAAQwsNAABCEAAAhCAAAQgAAEIQAACEIAABCBQaQIYWJU+PQQHAQhAAAIQgAAEIAABCEAAAhCAAAQggIGFBiAAAQhAAAIQgAAEIAABCEAAAhCAAAQqTQADq9Knh+AgAAEIQAACEIAABCAAAQhAAAIQgAAEMLDQAAQgAAEIQAACEIAABCAAAQhAAAIQgEClCWBgVfr0EBwEIAABCEAAAhCAAAQgAAEIQAACEIAABhYagAAEIAABCEAAAhCAAAQgAAEIQAACEKg0AQysSp8egoMABCAAAQhAAAIQgAAEIAABCEAAAhDAwEIDEIAABCAAAQhAAAIQgAAEIAABCEAAApUmgIFV6dNDcBCAAAQgAAEIQAACEIAABCAAAQhAAAIYWGgAAhCAAAQgAAEIQAACEIAABCAAAQhAoNIEMLAqfXoIDgIQgAAEIAABCEAAAhCAAAQgAAEIQAADCw1AAAIQgAAEIAABCEAAAhCAAAQgAAEIVJoABlalTw/BQQACEIAABCAAAQhAAAIQgAAEIAABCGBgoQEIQAACEIAABCAAAQhAAAIQgAAEIACBShPAwKr06SE4CEAAAhCAAAQgAAEIQAACEIAABCAAAQwsNAABCEAAAhCAAAQgAAEIQAACEIAABCBQaQIYWJU+PQQHAQhAAAIQgAAEIAABCEAAAhCAAAQggIGFBiAAAQhAAAIQgAAEIAABCEAAAhCAAAQqTQADq9Knh+AgAAEIQAACEIAABCAAAQhAAAIQgAAEMLDQAAQgAAEIQAACEIAABCAAAQhAAAIQgEClCWBgVfr0EBwEIAABCEAAAhCAAAQgAAEIQAACEIAABhYagAAEIAABCEAAAhCAAAQgAAEIQAACEKg0AQysSp8egoMABCAAAQhAAAIQgAAEIAABCEAAAhDAwEIDEIAABCAAAQhAAAIQgAAEIAABCEAAApUmgIFV6dNDcBCAAAQgAAEIQAACEIAABCAAAQhAAAL/D5aab4ul6BgTAAAAAElFTkSuQmCC;" vertex="1" parent="1">
          <mxGeometry x="50" y="69.99999999999999" width="770" height="476.12" as="geometry" />
        </mxCell>
        <mxCell id="pAG5VO9cVmeyoWC2blWp-3" value="Kids enter classroom at the start of the day" style="rounded=0;whiteSpace=wrap;html=1;" vertex="1" parent="1">
          <mxGeometry x="300" y="260" width="60" height="60" as="geometry" />
        </mxCell>
        <mxCell id="pAG5VO9cVmeyoWC2blWp-6" value="" style="endArrow=classic;html=1;rounded=0;entryX=0.377;entryY=0.651;entryDx=0;entryDy=0;entryPerimeter=0;exitX=0.5;exitY=1;exitDx=0;exitDy=0;" edge="1" parent="1" source="pAG5VO9cVmeyoWC2blWp-3" target="pAG5VO9cVmeyoWC2blWp-1">
          <mxGeometry width="50" height="50" relative="1" as="geometry">
            <mxPoint x="320" y="310" as="sourcePoint" />
            <mxPoint x="450" y="290" as="targetPoint" />
          </mxGeometry>
        </mxCell>
        <mxCell id="pAG5VO9cVmeyoWC2blWp-7" value="Kids leave classroom at the end of the school day" style="rounded=0;whiteSpace=wrap;html=1;" vertex="1" parent="1">
          <mxGeometry x="514" y="268.06" width="60" height="81.94" as="geometry" />
        </mxCell>
        <mxCell id="pAG5VO9cVmeyoWC2blWp-8" value="" style="endArrow=classic;html=1;rounded=0;exitX=0.5;exitY=0;exitDx=0;exitDy=0;" edge="1" parent="1" source="pAG5VO9cVmeyoWC2blWp-7">
          <mxGeometry width="50" height="50" relative="1" as="geometry">
            <mxPoint x="551.0685892255694" y="261.05999999999995" as="sourcePoint" />
            <mxPoint x="572" y="191.68516129032264" as="targetPoint" />
          </mxGeometry>
        </mxCell>
        <mxCell id="pAG5VO9cVmeyoWC2blWp-9" value="last occupant leaves classroom&amp;nbsp;" style="rounded=0;whiteSpace=wrap;html=1;" vertex="1" parent="1">
          <mxGeometry x="590" y="278.06" width="60" height="61.94" as="geometry" />
        </mxCell>
        <mxCell id="pAG5VO9cVmeyoWC2blWp-10" value="" style="endArrow=classic;html=1;rounded=0;exitX=0.5;exitY=0;exitDx=0;exitDy=0;" edge="1" parent="1" source="pAG5VO9cVmeyoWC2blWp-9">
          <mxGeometry width="50" height="50" relative="1" as="geometry">
            <mxPoint x="623" y="273.05999999999995" as="sourcePoint" />
            <mxPoint x="598" y="195.68516129032264" as="targetPoint" />
          </mxGeometry>
        </mxCell>
        <mxCell id="pAG5VO9cVmeyoWC2blWp-11" value="&lt;font style=&quot;font-size: 15px;&quot;&gt;1&lt;/font&gt;" style="text;html=1;align=center;verticalAlign=middle;whiteSpace=wrap;rounded=0;fillColor=#FFFFFF;fontSize=15;" vertex="1" parent="1">
          <mxGeometry x="480" y="465" width="20" height="20" as="geometry" />
        </mxCell>
        <mxCell id="pAG5VO9cVmeyoWC2blWp-13" value="&lt;font style=&quot;font-size: 15px;&quot;&gt;2&lt;/font&gt;" style="text;html=1;align=center;verticalAlign=middle;whiteSpace=wrap;rounded=0;fillColor=#FFFFFF;fontSize=15;" vertex="1" parent="1">
          <mxGeometry x="506" y="465" width="20" height="20" as="geometry" />
        </mxCell>
        <mxCell id="pAG5VO9cVmeyoWC2blWp-14" value="&lt;font style=&quot;font-size: 15px;&quot;&gt;11&lt;/font&gt;" style="text;html=1;align=center;verticalAlign=middle;whiteSpace=wrap;rounded=0;fillColor=#FFFFFF;fontSize=15;" vertex="1" parent="1">
          <mxGeometry x="758" y="465" width="20" height="20" as="geometry" />
        </mxCell>
        <mxCell id="pAG5VO9cVmeyoWC2blWp-15" value="&lt;font style=&quot;font-size: 15px;&quot;&gt;6&lt;/font&gt;" style="text;html=1;align=center;verticalAlign=middle;whiteSpace=wrap;rounded=0;fillColor=#FFFFFF;fontSize=15;" vertex="1" parent="1">
          <mxGeometry x="618" y="465" width="20" height="20" as="geometry" />
        </mxCell>
        <mxCell id="pAG5VO9cVmeyoWC2blWp-16" value="3" style="text;html=1;align=center;verticalAlign=middle;whiteSpace=wrap;rounded=0;fillColor=#FFFFFF;fontSize=15;" vertex="1" parent="1">
          <mxGeometry x="534" y="465" width="20" height="20" as="geometry" />
        </mxCell>
        <mxCell id="pAG5VO9cVmeyoWC2blWp-17" value="&lt;font style=&quot;font-size: 15px;&quot;&gt;4&lt;/font&gt;" style="text;html=1;align=center;verticalAlign=middle;whiteSpace=wrap;rounded=0;fillColor=#FFFFFF;fontSize=15;" vertex="1" parent="1">
          <mxGeometry x="563" y="465" width="20" height="20" as="geometry" />
        </mxCell>
        <mxCell id="pAG5VO9cVmeyoWC2blWp-18" value="&lt;font style=&quot;font-size: 15px;&quot;&gt;5&lt;/font&gt;" style="text;html=1;align=center;verticalAlign=middle;whiteSpace=wrap;rounded=0;fillColor=#FFFFFF;fontSize=15;" vertex="1" parent="1">
          <mxGeometry x="591" y="465" width="20" height="20" as="geometry" />
        </mxCell>
        <mxCell id="pAG5VO9cVmeyoWC2blWp-19" value="&lt;font style=&quot;font-size: 15px;&quot;&gt;8&lt;/font&gt;" style="text;html=1;align=center;verticalAlign=middle;whiteSpace=wrap;rounded=0;fillColor=#FFFFFF;fontSize=15;" vertex="1" parent="1">
          <mxGeometry x="675" y="465" width="20" height="20" as="geometry" />
        </mxCell>
        <mxCell id="pAG5VO9cVmeyoWC2blWp-20" value="10" style="text;html=1;align=center;verticalAlign=middle;whiteSpace=wrap;rounded=0;fillColor=#FFFFFF;fontSize=15;" vertex="1" parent="1">
          <mxGeometry x="730" y="465" width="20" height="20" as="geometry" />
        </mxCell>
        <mxCell id="pAG5VO9cVmeyoWC2blWp-21" value="&lt;font style=&quot;font-size: 15px;&quot;&gt;9&lt;/font&gt;" style="text;html=1;align=center;verticalAlign=middle;whiteSpace=wrap;rounded=0;fillColor=#FFFFFF;fontSize=15;" vertex="1" parent="1">
          <mxGeometry x="701" y="465" width="20" height="20" as="geometry" />
        </mxCell>
        <mxCell id="pAG5VO9cVmeyoWC2blWp-23" value="&lt;font style=&quot;font-size: 15px;&quot;&gt;12&lt;/font&gt;" style="text;html=1;align=center;verticalAlign=middle;whiteSpace=wrap;rounded=0;fillColor=#FFFFFF;fontSize=15;" vertex="1" parent="1">
          <mxGeometry x="788" y="465" width="20" height="20" as="geometry" />
        </mxCell>
        <mxCell id="pAG5VO9cVmeyoWC2blWp-24" value="&lt;font style=&quot;font-size: 15px;&quot;&gt;7&lt;/font&gt;" style="text;html=1;align=center;verticalAlign=middle;whiteSpace=wrap;rounded=0;fillColor=#FFFFFF;fontSize=15;" vertex="1" parent="1">
          <mxGeometry x="648" y="465" width="20" height="20" as="geometry" />
        </mxCell>
        <mxCell id="pAG5VO9cVmeyoWC2blWp-25" value="" style="endArrow=none;html=1;rounded=0;strokeWidth=3;" edge="1" parent="1">
          <mxGeometry width="50" height="50" relative="1" as="geometry">
            <mxPoint x="461" y="461.0000366210937" as="sourcePoint" />
            <mxPoint x="461" y="175" as="targetPoint" />
          </mxGeometry>
        </mxCell>
        <mxCell id="pAG5VO9cVmeyoWC2blWp-28" value="Text" style="text;html=1;align=center;verticalAlign=middle;whiteSpace=wrap;rounded=0;" vertex="1" parent="1">
          <mxGeometry x="380" y="270" width="60" height="30" as="geometry" />
        </mxCell>
        <mxCell id="pAG5VO9cVmeyoWC2blWp-29" value="Text" style="text;html=1;align=center;verticalAlign=middle;whiteSpace=wrap;rounded=0;" vertex="1" parent="1">
          <mxGeometry x="380" y="270" width="60" height="30" as="geometry" />
        </mxCell>
        <mxCell id="pAG5VO9cVmeyoWC2blWp-30" value="&lt;b&gt;P.M.&lt;/b&gt;" style="text;html=1;align=center;verticalAlign=middle;whiteSpace=wrap;rounded=0;" vertex="1" parent="1">
          <mxGeometry x="608" y="495" width="60" height="30" as="geometry" />
        </mxCell>
        <mxCell id="pAG5VO9cVmeyoWC2blWp-31" value="&lt;b&gt;A.M.&lt;/b&gt;" style="text;html=1;align=center;verticalAlign=middle;whiteSpace=wrap;rounded=0;" vertex="1" parent="1">
          <mxGeometry x="280" y="495" width="60" height="30" as="geometry" />
        </mxCell>
      </root>
    </mxGraphModel>
  </diagram>
</mxfile>
